<?xml version="1.0" encoding="UTF-8" ?>
<!DOCTYPE svg PUBLIC "-//W3C//DTD SVG 1.1//EN" "http://www.w3.org/Graphics/SVG/1.1/DTD/svg11.dtd">
<svg width="1015pt" height="301pt" viewBox="0 0 1015 301" version="1.1" xmlns="http://www.w3.org/2000/svg">
<g id="#ffffffff">
<path fill="#ffffff" opacity="1.00" d=" M 637.12 42.61 C 736.48 42.61 835.84 42.61 935.20 42.61 C 935.21 91.68 935.20 140.76 935.21 189.84 C 835.84 189.84 736.48 189.84 637.12 189.84 C 637.12 140.76 637.12 91.68 637.12 42.61 M 642.78 46.66 C 642.77 92.97 642.78 139.28 642.77 185.59 C 738.33 185.62 833.89 185.60 929.45 185.60 C 929.45 139.28 929.45 92.97 929.45 46.65 C 833.89 46.65 738.33 46.64 642.78 46.66 Z" />
</g>
<g id="#0c4da2ff">
<path fill="#0c4da2" opacity="1.00" d=" M 642.78 46.66 C 738.33 46.64 833.89 46.65 929.45 46.65 C 929.45 92.97 929.45 139.28 929.45 185.60 C 833.89 185.60 738.33 185.62 642.77 185.59 C 642.78 139.28 642.77 92.97 642.78 46.66 M 783.74 68.49 C 781.16 68.50 778.59 68.51 776.02 68.54 C 778.09 69.63 780.16 70.72 782.24 71.81 C 781.47 73.55 780.70 75.29 779.96 77.04 C 781.99 75.98 784.04 74.91 786.08 73.84 C 788.11 74.91 790.16 75.98 792.22 77.04 C 791.44 75.29 790.67 73.55 789.91 71.80 C 791.97 70.71 794.04 69.63 796.11 68.54 C 793.53 68.51 790.96 68.50 788.40 68.49 C 787.62 66.71 786.85 64.95 786.08 63.19 C 785.29 64.95 784.51 66.72 783.74 68.49 M 754.80 69.33 C 753.97 71.11 753.17 72.90 752.37 74.69 C 749.84 74.68 747.32 74.69 744.81 74.70 C 746.85 75.77 748.89 76.84 750.95 77.91 C 750.17 79.65 749.41 81.39 748.66 83.13 C 750.71 82.08 752.76 81.02 754.81 79.95 C 756.84 81.02 758.86 82.09 760.91 83.15 C 760.12 81.40 759.37 79.66 758.60 77.92 C 760.63 76.85 762.66 75.78 764.70 74.71 C 762.17 74.69 759.65 74.68 757.13 74.65 C 756.35 72.87 755.58 71.10 754.80 69.33 M 817.35 69.32 C 816.61 71.08 815.88 72.85 815.16 74.61 C 812.60 74.67 810.03 74.69 807.49 74.72 C 809.52 75.78 811.56 76.85 813.60 77.92 C 812.83 79.66 812.04 81.41 811.29 83.16 C 813.36 82.08 815.44 81.00 817.54 79.95 C 819.53 81.05 821.54 82.13 823.56 83.20 C 822.79 81.43 822.01 79.67 821.25 77.91 C 823.29 76.84 825.34 75.78 827.39 74.71 C 824.86 74.69 822.34 74.68 819.83 74.68 C 819.00 72.89 818.18 71.10 817.35 69.32 M 729.46 91.36 C 726.93 91.36 724.41 91.37 721.89 91.39 C 723.93 92.45 725.98 93.51 728.04 94.57 C 727.27 96.34 726.50 98.10 725.74 99.86 C 727.79 98.78 729.84 97.69 731.90 96.61 C 733.94 97.70 735.98 98.79 738.04 99.87 C 737.25 98.12 736.48 96.36 735.71 94.61 C 737.75 93.53 739.81 92.46 741.88 91.39 C 739.32 91.37 736.78 91.36 734.24 91.35 C 733.46 89.56 732.68 87.77 731.92 85.97 C 731.09 87.77 730.28 89.57 729.46 91.36 M 837.91 91.27 C 835.37 91.28 832.82 91.30 830.29 91.32 C 832.34 92.39 834.40 93.45 836.46 94.53 C 835.68 96.28 834.90 98.04 834.15 99.79 C 836.17 98.72 838.21 97.63 840.24 96.55 C 842.30 97.62 844.36 98.71 846.41 99.81 C 845.63 98.04 844.87 96.27 844.11 94.49 C 846.16 93.44 848.21 92.39 850.26 91.32 C 847.72 91.30 845.20 91.29 842.68 91.28 C 841.87 89.51 841.04 87.73 840.25 85.96 C 839.46 87.73 838.68 89.50 837.91 91.27 M 723.46 108.74 C 722.67 110.51 721.89 112.28 721.12 114.06 C 718.57 114.07 716.02 114.08 713.48 114.11 C 715.54 115.17 717.60 116.23 719.67 117.30 C 718.88 119.06 718.09 120.82 717.32 122.58 C 719.36 121.51 721.40 120.43 723.43 119.34 C 725.50 120.41 727.56 121.48 729.64 122.56 C 728.85 120.82 728.08 119.08 727.30 117.35 C 729.30 116.28 731.31 115.22 733.31 114.13 C 730.83 114.08 728.35 114.06 725.88 114.06 C 725.07 112.28 724.27 110.51 723.46 108.74 M 846.20 113.98 C 843.66 113.99 841.14 114.03 838.61 114.11 C 840.66 115.15 842.72 116.20 844.77 117.27 C 843.98 119.00 843.20 120.74 842.43 122.47 C 844.50 121.41 846.57 120.34 848.65 119.27 C 850.66 120.36 852.69 121.44 854.73 122.51 C 853.94 120.75 853.17 118.99 852.40 117.24 C 854.46 116.17 856.54 115.11 858.62 114.05 C 856.05 114.02 853.49 114.00 850.93 113.98 C 850.16 112.21 849.39 110.44 848.63 108.68 C 847.80 110.43 846.99 112.20 846.20 113.98 M 729.49 136.86 C 726.95 136.85 724.41 136.85 721.87 136.86 C 723.92 137.93 725.96 139.00 728.02 140.06 C 727.28 141.82 726.54 143.57 725.81 145.33 C 727.83 144.25 729.86 143.18 731.90 142.11 C 733.93 143.20 735.98 144.29 738.02 145.38 C 737.25 143.61 736.48 141.85 735.72 140.09 C 737.74 139.04 739.76 137.97 741.78 136.88 C 739.25 136.85 736.76 136.84 734.25 136.83 C 733.46 135.05 732.68 133.27 731.90 131.50 C 731.09 133.28 730.29 135.07 729.49 136.86 M 837.91 136.83 C 835.38 136.84 832.84 136.85 830.32 136.87 C 832.35 137.95 834.39 139.01 836.43 140.07 C 835.67 141.84 834.90 143.61 834.15 145.39 C 836.16 144.30 838.18 143.22 840.20 142.12 C 842.27 143.18 844.34 144.24 846.43 145.31 C 845.64 143.57 844.86 141.82 844.10 140.08 C 846.15 139.01 848.19 137.94 850.24 136.87 C 847.69 136.85 845.17 136.84 842.64 136.82 C 841.85 135.04 841.05 133.27 840.26 131.51 C 839.47 133.28 838.68 135.05 837.91 136.83 M 754.86 148.17 C 754.03 149.96 753.22 151.75 752.41 153.54 C 749.87 153.53 747.35 153.52 744.83 153.53 C 746.83 154.57 748.88 155.54 750.81 156.74 C 750.30 158.57 749.45 160.29 748.72 162.04 C 750.75 160.94 752.79 159.87 754.85 158.81 C 756.88 159.89 758.91 160.95 760.97 162.02 C 760.18 160.27 759.42 158.52 758.65 156.78 C 760.70 155.70 762.76 154.62 764.82 153.54 C 762.26 153.53 759.71 153.52 757.16 153.50 C 756.39 151.72 755.63 149.95 754.86 148.17 M 814.89 153.50 C 812.37 153.52 809.85 153.53 807.34 153.55 C 809.40 154.62 811.45 155.70 813.51 156.78 C 812.73 158.53 811.95 160.28 811.18 162.03 C 813.23 160.96 815.27 159.88 817.32 158.80 C 819.37 159.87 821.42 160.95 823.48 162.04 C 822.70 160.28 821.92 158.52 821.15 156.77 C 823.21 155.69 825.27 154.62 827.33 153.54 C 824.79 153.53 822.25 153.52 819.73 153.52 C 818.96 151.82 818.19 150.12 817.44 148.42 C 816.55 150.09 815.71 151.79 814.89 153.50 M 785.86 154.88 C 785.06 156.40 784.38 157.97 783.69 159.53 C 781.14 159.55 778.60 159.56 776.06 159.57 C 778.12 160.65 780.18 161.73 782.25 162.82 C 781.48 164.55 780.71 166.29 779.97 168.04 C 782.00 166.98 784.04 165.92 786.08 164.85 C 788.12 165.92 790.17 166.99 792.23 168.05 C 791.45 166.30 790.68 164.56 789.91 162.82 C 791.96 161.73 794.02 160.65 796.08 159.57 C 793.56 159.56 791.04 159.56 788.53 159.56 C 787.67 158.00 787.29 156.04 785.86 154.88 Z" />
<path fill="#0c4da2" opacity="1.00" d=" M 673.13 207.39 C 678.70 207.40 684.27 207.39 689.85 207.39 C 689.84 208.43 689.84 209.47 689.85 210.51 C 685.93 210.50 682.02 210.50 678.11 210.51 C 678.10 211.88 678.11 213.26 678.12 214.63 C 681.51 214.63 684.90 214.63 688.29 214.63 C 688.29 215.39 688.29 216.91 688.30 217.67 C 684.90 217.67 681.51 217.68 678.12 217.67 C 678.11 220.20 678.11 222.72 678.11 225.25 C 676.44 225.26 674.78 225.27 673.13 225.28 C 673.12 219.31 673.12 213.35 673.13 207.39 Z" />
<path fill="#0c4da2" opacity="1.00" d=" M 747.17 207.39 C 748.74 207.39 750.32 207.39 751.90 207.39 C 751.90 213.41 751.93 219.44 751.88 225.47 C 749.67 225.29 747.43 224.19 745.23 224.92 C 742.70 225.64 739.82 225.92 737.53 224.37 C 733.36 222.06 733.48 214.89 737.90 212.90 C 740.86 211.37 744.31 212.14 747.23 213.40 C 747.19 211.40 747.18 209.39 747.17 207.39 M 741.25 215.16 C 739.08 216.16 739.10 219.04 739.84 220.96 C 741.61 224.22 747.53 222.87 747.20 218.95 C 747.69 215.72 743.92 213.58 741.25 215.16 Z" />
<path fill="#0c4da2" opacity="1.00" d=" M 805.65 207.40 C 807.24 207.39 808.84 207.39 810.45 207.39 C 810.43 209.38 810.40 211.37 810.37 213.36 C 813.90 211.70 818.77 211.25 821.63 214.42 C 824.02 217.47 823.31 222.91 819.59 224.64 C 816.76 226.28 813.49 225.34 810.64 224.35 C 809.04 224.99 807.35 225.30 805.67 225.51 C 805.63 219.47 805.66 213.43 805.65 207.40 M 812.20 215.16 C 809.27 216.61 809.86 221.90 813.09 222.61 C 815.47 223.49 818.32 221.69 818.15 219.05 C 818.75 215.79 814.89 213.55 812.20 215.16 Z" />
<path fill="#0c4da2" opacity="1.00" d=" M 786.88 207.45 C 788.50 207.42 790.13 207.39 791.77 207.37 C 791.76 213.43 791.82 219.49 791.74 225.55 C 790.00 225.21 788.31 224.86 786.62 224.41 C 783.71 225.46 780.32 226.25 777.54 224.44 C 773.45 222.31 773.23 215.53 777.23 213.22 C 780.20 211.36 783.94 211.96 786.96 213.37 C 786.91 211.40 786.89 209.42 786.88 207.45 M 781.17 215.15 C 778.92 216.11 778.91 219.19 779.81 221.11 C 781.66 224.16 787.44 222.84 786.94 218.99 C 787.68 215.76 783.80 213.56 781.17 215.15 Z" />
<path fill="#0c4da2" opacity="1.00" d=" M 855.47 209.71 C 857.04 209.05 858.62 208.39 860.21 207.73 C 860.20 209.25 860.22 210.77 860.23 212.29 C 861.04 212.29 862.65 212.29 863.45 212.30 C 863.45 213.00 863.44 214.41 863.44 215.11 C 862.63 215.12 861.00 215.14 860.18 215.14 C 860.21 217.63 860.24 220.13 860.37 222.62 C 861.15 222.58 862.70 222.51 863.48 222.48 C 863.55 223.19 863.70 224.61 863.77 225.31 C 861.16 225.32 857.95 226.23 855.88 224.14 C 855.07 221.28 855.53 218.25 855.47 215.33 C 854.92 215.21 853.80 214.96 853.24 214.84 C 853.26 214.21 853.29 212.95 853.30 212.32 C 853.83 212.30 854.89 212.27 855.42 212.26 C 855.43 211.62 855.46 210.35 855.47 209.71 Z" />
<path fill="#0c4da2" opacity="1.00" d=" M 866.58 207.39 C 868.16 207.39 869.76 207.39 871.37 207.40 C 871.34 209.44 871.34 211.49 871.31 213.54 C 874.66 211.87 879.91 210.87 882.33 214.50 C 883.21 217.99 882.64 221.68 882.77 225.26 C 881.21 225.27 879.66 225.28 878.13 225.31 C 877.97 221.92 877.91 218.53 877.70 215.14 C 875.74 214.90 873.40 214.19 871.93 215.95 C 870.86 218.91 871.50 222.18 871.35 225.27 C 869.75 225.27 868.16 225.27 866.58 225.27 C 866.57 219.31 866.57 213.35 866.58 207.39 Z" />
<path fill="#0c4da2" opacity="1.00" d=" M 705.19 212.28 C 706.75 212.28 708.32 212.28 709.90 212.29 C 709.89 216.68 709.91 221.08 709.87 225.47 C 707.25 225.11 704.59 224.05 701.99 225.15 C 699.16 225.99 694.59 225.63 693.93 222.11 C 693.56 218.85 693.80 215.56 693.77 212.29 C 695.35 212.29 696.94 212.29 698.54 212.29 C 698.61 215.54 698.23 218.85 698.91 222.06 C 700.84 223.56 704.87 223.08 705.02 220.15 C 705.33 217.54 705.18 214.90 705.19 212.28 Z" />
<path fill="#0c4da2" opacity="1.00" d=" M 719.71 213.33 C 723.03 211.88 728.20 210.93 730.49 214.49 C 731.36 218.00 730.84 221.69 730.95 225.28 C 729.36 225.27 727.78 225.27 726.21 225.27 C 726.08 221.97 726.68 218.51 725.52 215.35 C 723.72 214.18 720.57 214.48 719.75 216.68 C 719.18 219.51 719.48 222.41 719.43 225.27 C 717.83 225.27 716.24 225.27 714.66 225.27 C 714.66 220.88 714.64 216.49 714.67 212.10 C 716.37 212.33 718.27 212.18 719.71 213.33 Z" />
<path fill="#0c4da2" opacity="1.00" d=" M 757.66 213.61 C 760.85 211.48 765.34 211.53 768.69 213.30 C 771.09 214.52 771.48 217.38 772.04 219.74 C 767.97 219.84 763.91 219.80 759.84 219.81 C 760.10 220.45 760.61 221.72 760.87 222.35 C 763.09 223.10 765.47 223.00 767.16 221.19 C 768.62 221.34 770.08 221.51 771.55 221.70 C 768.91 226.18 762.71 226.36 758.40 224.50 C 754.29 222.59 753.92 216.08 757.66 213.61 M 759.49 217.53 C 762.16 217.69 764.84 217.69 767.52 217.56 C 766.48 216.40 765.58 214.62 763.78 214.69 C 761.76 214.35 760.60 216.21 759.49 217.53 Z" />
<path fill="#0c4da2" opacity="1.00" d=" M 824.43 212.29 C 826.13 212.29 827.84 212.29 829.56 212.30 C 830.94 215.32 832.34 218.33 833.76 221.34 C 835.12 218.30 836.49 215.26 837.90 212.25 C 839.53 212.27 841.18 212.30 842.84 212.32 C 840.09 217.48 837.74 222.84 834.84 227.90 C 833.52 230.29 830.46 230.58 828.03 230.47 C 826.42 230.54 825.53 229.69 825.35 227.91 C 827.59 227.83 829.88 227.47 831.42 225.67 C 829.07 221.22 826.76 216.75 824.43 212.29 Z" />
<path fill="#0c4da2" opacity="1.00" d=" M 889.30 213.21 C 892.64 211.48 897.14 211.54 900.29 213.71 C 902.29 215.04 902.45 217.60 903.00 219.72 C 898.94 219.85 894.87 219.80 890.82 219.81 C 891.08 220.44 891.59 221.69 891.85 222.32 C 894.07 223.11 896.47 223.02 898.15 221.18 C 899.70 221.36 901.27 221.56 902.84 221.79 C 899.64 226.09 893.24 226.62 888.79 224.13 C 884.92 221.76 885.22 215.22 889.30 213.21 M 890.53 217.57 C 893.19 217.70 895.86 217.68 898.54 217.54 C 897.45 216.42 896.58 214.64 894.80 214.69 C 892.77 214.32 891.58 216.20 890.53 217.57 Z" />
<path fill="#0c4da2" opacity="1.00" d=" M 824.85 237.23 C 826.50 237.21 828.15 237.20 829.83 237.19 C 829.85 240.82 829.69 244.46 829.88 248.09 C 829.34 252.93 837.34 253.76 839.18 250.13 C 839.71 245.84 839.34 241.51 839.42 237.20 C 841.07 237.20 842.74 237.20 844.41 237.20 C 844.30 241.64 844.68 246.11 844.18 250.53 C 843.57 254.30 839.17 255.27 835.97 255.37 C 832.29 255.46 827.48 255.31 825.48 251.65 C 824.22 246.96 825.08 242.02 824.85 237.23 Z" />
<path fill="#0c4da2" opacity="1.00" d=" M 870.37 237.20 C 871.96 237.20 873.56 237.20 875.17 237.21 C 875.16 238.28 875.15 239.37 875.16 240.45 C 873.56 240.45 871.97 240.45 870.39 240.46 C 870.37 239.37 870.37 238.29 870.37 237.20 Z" />
<path fill="#0c4da2" opacity="1.00" d=" M 657.83 237.20 C 663.91 237.21 669.99 237.16 676.07 237.24 C 676.07 238.01 676.07 239.54 676.06 240.30 C 671.64 240.32 667.22 240.31 662.80 240.32 C 662.79 241.59 662.80 242.87 662.81 244.15 C 666.91 244.15 671.01 244.15 675.11 244.15 C 675.11 244.91 675.11 246.44 675.11 247.20 C 671.00 247.20 666.90 247.20 662.80 247.20 C 662.79 248.82 662.80 250.44 662.82 252.06 C 667.37 252.06 671.92 252.06 676.48 252.06 C 676.48 252.81 676.48 254.32 676.47 255.07 C 670.26 255.08 664.05 255.08 657.84 255.07 C 657.83 249.12 657.83 243.16 657.83 237.20 Z" />
<path fill="#0c4da2" opacity="1.00" d=" M 680.49 242.10 C 682.07 242.10 683.66 242.09 685.27 242.09 C 685.34 245.26 684.93 248.50 685.62 251.62 C 686.95 253.38 690.02 252.83 691.44 251.35 C 692.20 248.33 691.84 245.17 691.92 242.10 C 693.50 242.09 695.09 242.09 696.69 242.10 C 696.68 246.49 696.69 250.88 696.68 255.27 C 694.85 255.06 693.04 254.77 691.29 254.24 C 688.01 255.45 683.22 256.37 680.97 252.96 C 679.96 249.46 680.66 245.70 680.49 242.10 Z" />
<path fill="#0c4da2" opacity="1.00" d=" M 701.24 241.91 C 702.98 242.10 704.74 242.31 706.49 242.59 C 708.54 241.97 710.68 241.84 712.83 241.99 C 712.40 243.05 711.97 244.11 711.54 245.18 C 709.96 245.29 708.18 244.71 706.82 245.74 C 705.62 248.69 706.21 251.97 706.07 255.07 C 704.44 255.07 702.82 255.07 701.21 255.08 C 701.21 250.69 701.19 246.30 701.24 241.91 Z" />
<path fill="#0c4da2" opacity="1.00" d=" M 718.43 242.51 C 723.64 240.36 733.08 242.68 731.86 249.80 C 729.95 256.29 720.53 256.76 715.76 253.21 C 711.82 250.19 713.80 243.61 718.43 242.51 M 720.33 245.31 C 717.92 246.57 717.89 250.52 720.27 251.84 C 722.67 253.42 726.86 252.29 727.11 249.09 C 727.76 245.45 723.06 243.47 720.33 245.31 Z" />
<path fill="#0c4da2" opacity="1.00" d=" M 735.46 241.98 C 737.20 242.19 739.22 241.76 740.62 243.13 C 743.53 241.69 747.17 241.15 750.02 243.07 C 754.07 245.47 753.74 252.35 749.49 254.38 C 746.55 256.12 743.08 255.24 740.21 253.88 C 740.23 255.89 740.24 257.90 740.26 259.91 C 738.64 259.91 737.05 259.92 735.45 259.93 C 735.46 253.94 735.44 247.96 735.46 241.98 M 741.36 245.52 C 738.92 247.70 740.40 252.74 743.97 252.60 C 746.59 252.94 748.44 250.41 747.89 247.97 C 748.00 244.72 743.50 243.53 741.36 245.52 Z" />
<path fill="#0c4da2" opacity="1.00" d=" M 755.12 249.07 C 754.55 242.40 763.20 240.23 768.09 242.77 C 770.90 243.83 771.54 246.95 772.06 249.55 C 767.86 249.65 763.66 249.53 759.48 249.75 C 760.90 252.94 764.83 253.63 767.20 251.06 C 768.74 251.20 770.28 251.37 771.83 251.56 C 768.00 257.31 755.82 256.93 755.12 249.07 M 759.58 247.37 C 762.21 247.49 764.85 247.50 767.49 247.38 C 766.41 245.97 765.23 244.05 763.15 244.51 C 761.37 244.45 760.60 246.26 759.58 247.37 Z" />
<path fill="#0c4da2" opacity="1.00" d=" M 774.38 245.37 C 777.67 240.80 785.04 240.67 789.35 243.68 C 790.46 247.40 789.57 251.47 790.62 255.25 C 788.79 255.11 786.96 254.92 785.23 254.31 C 782.00 255.26 777.97 256.29 775.18 253.77 C 773.46 252.25 774.23 249.20 776.37 248.50 C 779.52 247.40 782.90 247.21 786.07 246.13 C 784.58 244.94 782.75 244.55 780.93 244.30 C 780.37 244.76 779.26 245.68 778.70 246.15 C 777.25 245.89 775.81 245.63 774.38 245.37 M 779.37 250.24 C 777.85 252.79 781.95 253.38 783.59 252.46 C 785.15 251.98 785.06 250.13 785.54 248.86 C 783.46 249.25 781.34 249.47 779.37 250.24 Z" />
<path fill="#0c4da2" opacity="1.00" d=" M 794.44 241.97 C 796.18 242.20 798.23 241.74 799.61 243.18 C 802.84 241.60 807.44 240.87 810.08 243.89 C 811.32 247.44 810.51 251.37 810.71 255.07 C 809.11 255.07 807.52 255.07 805.95 255.08 C 805.86 251.87 806.27 248.59 805.50 245.45 C 803.93 243.86 801.18 244.35 799.74 245.85 C 798.85 248.83 799.31 252.00 799.21 255.07 C 797.61 255.07 796.02 255.08 794.44 255.09 C 794.42 250.72 794.41 246.34 794.44 241.97 Z" />
<path fill="#0c4da2" opacity="1.00" d=" M 849.50 241.99 C 851.20 242.26 853.39 241.56 854.56 243.26 C 857.76 241.56 862.48 240.85 865.11 243.89 C 866.37 247.43 865.55 251.38 865.76 255.08 C 864.13 255.07 862.51 255.07 860.90 255.08 C 860.75 251.85 861.36 248.49 860.46 245.37 C 858.84 243.86 856.26 244.41 854.79 245.82 C 853.90 248.82 854.36 252.00 854.27 255.08 C 852.66 255.07 851.07 255.07 849.49 255.07 C 849.49 250.71 849.48 246.35 849.50 241.99 Z" />
<path fill="#0c4da2" opacity="1.00" d=" M 870.38 242.10 C 871.96 242.10 873.55 242.09 875.16 242.09 C 875.16 246.42 875.16 250.75 875.16 255.08 C 873.55 255.07 871.97 255.07 870.38 255.07 C 870.38 250.75 870.38 246.42 870.38 242.10 Z" />
<path fill="#0c4da2" opacity="1.00" d=" M 883.37 242.60 C 888.44 240.51 897.29 242.22 897.24 248.98 C 895.99 256.16 885.77 257.00 880.84 253.15 C 877.13 250.13 878.89 243.79 883.37 242.60 M 885.37 245.40 C 883.10 246.65 883.11 250.44 885.30 251.76 C 887.69 253.47 892.14 252.31 892.27 249.02 C 892.93 245.37 888.02 243.44 885.37 245.40 Z" />
<path fill="#0c4da2" opacity="1.00" d=" M 900.76 241.94 C 902.44 242.19 904.56 241.70 905.75 243.29 C 909.01 241.49 914.38 240.73 916.62 244.40 C 917.19 247.92 916.79 251.52 916.88 255.07 C 915.29 255.07 913.72 255.07 912.17 255.08 C 912.14 252.04 912.34 249.00 912.02 245.98 C 910.76 243.67 907.37 244.25 905.90 246.00 C 905.28 248.98 905.55 252.04 905.52 255.06 C 903.92 255.07 902.32 255.07 900.75 255.08 C 900.74 250.70 900.73 246.32 900.76 241.94 Z" />
</g>
<g id="#9c9e9fff">
<path fill="#9c9e9f" opacity="1.00" d=" M 462.29 152.00 C 462.21 121.17 462.27 90.33 462.26 59.50 C 467.09 59.50 471.92 59.50 476.75 59.50 C 476.74 69.00 476.75 78.50 476.74 88.00 C 500.50 88.00 524.25 88.00 548.00 88.00 C 548.00 92.83 548.00 97.66 548.00 102.50 C 524.25 102.50 500.49 102.49 476.74 102.50 C 476.75 116.67 476.74 130.83 476.74 145.00 C 500.50 145.00 524.25 145.00 548.00 145.00 C 548.00 149.83 548.00 154.66 548.00 159.50 C 521.99 159.49 495.99 159.51 469.99 159.49 C 465.80 159.87 462.17 156.10 462.29 152.00 Z" />
<path fill="#9c9e9f" opacity="1.00" d=" M 73.71 61.78 C 76.14 60.47 79.13 59.92 81.68 61.26 C 97.87 69.44 114.05 77.66 130.27 85.78 C 132.71 86.90 134.82 89.14 134.93 91.95 C 135.12 99.63 134.93 107.33 135.00 115.01 C 130.26 117.91 125.54 120.84 120.78 123.69 C 120.72 114.80 120.76 105.90 120.75 97.01 C 106.60 89.90 92.41 82.86 78.26 75.74 C 59.21 85.18 40.33 94.94 21.26 104.35 C 21.33 99.93 21.08 95.49 21.36 91.07 C 21.76 88.37 23.98 86.46 26.37 85.43 C 42.16 77.58 57.93 69.66 73.71 61.78 Z" />
<path fill="#9c9e9f" opacity="1.00" d=" M 163.52 94.97 C 163.39 90.63 167.89 87.65 171.92 88.00 C 197.61 87.99 223.31 88.00 249.00 88.00 C 249.00 92.83 249.00 97.66 249.00 102.50 C 225.33 102.50 201.67 102.50 178.00 102.49 C 177.99 116.66 178.00 130.83 178.00 145.00 C 201.67 145.00 225.33 145.00 249.00 145.00 C 249.00 149.83 249.00 154.66 249.00 159.50 C 223.00 159.49 197.01 159.51 171.01 159.49 C 166.95 159.78 163.08 156.19 163.50 152.03 C 163.52 133.01 163.47 113.99 163.52 94.97 Z" />
<path fill="#9c9e9f" opacity="1.00" d=" M 267.45 88.64 C 269.21 87.95 271.15 88.02 273.01 87.98 C 295.72 88.06 318.42 87.93 341.13 88.04 C 345.43 87.81 349.05 91.75 348.74 95.98 C 348.74 114.62 348.77 133.27 348.72 151.91 C 348.96 156.04 345.21 159.84 341.06 159.50 C 317.37 159.47 293.68 159.54 270.00 159.47 C 266.15 159.51 262.94 155.86 263.03 152.10 C 262.96 133.38 263.00 114.65 263.01 95.93 C 262.88 92.90 264.58 89.79 267.45 88.64 M 277.50 102.50 C 277.50 116.66 277.50 130.83 277.49 145.00 C 296.41 145.01 315.33 145.00 334.26 145.00 C 334.26 130.83 334.25 116.67 334.26 102.50 C 315.34 102.49 296.42 102.50 277.50 102.50 Z" />
<path fill="#9c9e9f" opacity="1.00" d=" M 362.79 94.90 C 362.71 90.70 366.99 87.72 370.93 88.01 C 396.70 87.98 422.48 88.01 448.25 88.00 C 448.25 92.83 448.25 97.66 448.25 102.50 C 424.58 102.50 400.91 102.50 377.25 102.50 C 377.25 107.16 377.25 111.83 377.25 116.50 C 398.47 116.52 419.70 116.46 440.92 116.53 C 444.86 116.45 448.56 119.92 448.25 123.95 C 448.25 133.33 448.25 142.71 448.25 152.09 C 448.57 156.05 444.98 159.67 441.04 159.48 C 414.94 159.53 388.85 159.48 362.75 159.50 C 362.75 154.66 362.75 149.83 362.75 145.00 C 386.42 145.00 410.09 145.00 433.75 145.00 C 433.75 140.33 433.75 135.67 433.75 131.00 C 412.48 130.98 391.21 131.02 369.94 130.99 C 366.15 131.16 362.56 127.78 362.77 123.93 C 362.75 114.26 362.71 104.58 362.79 94.90 Z" />
<path fill="#9c9e9f" opacity="1.00" d=" M 21.28 132.51 C 26.05 129.67 30.73 126.70 35.52 123.89 C 35.48 132.81 35.50 141.72 35.51 150.64 C 49.68 157.70 63.83 164.80 78.00 171.88 C 96.93 162.20 115.99 152.79 135.00 143.26 C 134.87 147.81 135.30 152.40 134.77 156.94 C 133.92 160.80 129.85 162.15 126.76 163.77 C 111.49 171.13 96.41 178.87 81.21 186.36 C 78.89 187.62 76.12 187.19 73.85 186.05 C 57.94 177.93 42.00 169.88 26.03 161.88 C 23.74 160.69 21.40 158.69 21.33 155.90 C 21.14 148.10 21.30 140.30 21.28 132.51 Z" />
<path fill="#9c9e9f" opacity="1.00" d=" M 166.16 187.22 C 170.26 186.64 174.41 187.15 178.52 187.32 C 178.50 188.63 178.49 189.94 178.49 191.25 C 175.03 191.24 171.57 191.23 168.11 191.30 C 168.05 192.87 168.00 194.44 167.95 196.02 C 170.96 196.25 173.98 196.28 177.00 196.27 C 177.00 197.59 177.00 198.91 177.00 200.23 C 173.98 200.22 170.96 200.26 167.96 200.48 C 168.01 202.02 168.06 203.55 168.13 205.09 C 171.58 205.31 175.03 205.26 178.48 205.25 C 178.50 206.48 178.51 207.72 178.53 208.95 C 173.89 208.88 168.83 210.62 164.49 208.45 C 162.49 204.67 163.92 200.10 163.49 196.00 C 163.71 193.04 162.42 188.40 166.16 187.22 Z" />
<path fill="#9c9e9f" opacity="1.00" d=" M 182.00 187.00 C 183.58 187.00 185.16 187.00 186.75 187.00 C 186.89 192.33 186.42 197.68 186.98 202.99 C 187.58 205.94 191.06 205.08 193.25 205.36 C 196.57 199.86 194.38 193.06 195.00 187.00 C 196.50 187.00 198.00 187.00 199.50 187.00 C 199.11 193.18 200.38 199.58 198.67 205.59 C 197.23 210.05 191.76 209.74 187.99 209.43 C 185.24 209.46 183.07 207.23 182.61 204.62 C 181.51 198.82 182.17 192.87 182.00 187.00 Z" />
<path fill="#9c9e9f" opacity="1.00" d=" M 203.25 187.01 C 207.71 187.23 212.31 186.43 216.67 187.50 C 221.10 190.28 220.79 198.22 216.33 200.90 C 217.76 203.72 219.12 206.58 220.41 209.47 C 218.71 209.49 217.01 209.50 215.31 209.52 C 214.03 206.69 212.75 203.85 211.52 200.99 C 210.35 200.84 209.17 200.69 208.00 200.55 C 208.00 203.53 208.00 206.51 208.00 209.50 C 206.41 209.49 204.83 209.49 203.25 209.50 C 203.26 202.00 203.26 194.50 203.25 187.01 M 208.00 191.01 C 208.00 193.02 208.00 195.03 208.00 197.04 C 210.17 196.94 212.42 197.25 214.53 196.60 C 215.40 194.79 214.84 192.80 214.41 190.97 C 212.27 190.99 210.13 191.00 208.00 191.01 Z" />
<path fill="#9c9e9f" opacity="1.00" d=" M 227.24 187.29 C 230.28 186.45 233.65 186.43 236.66 187.44 C 240.33 188.90 240.75 193.43 240.98 196.84 C 240.98 200.47 241.06 204.63 238.59 207.56 C 236.07 209.89 232.29 209.61 229.12 209.40 C 226.68 209.28 224.27 207.85 223.51 205.43 C 222.21 201.45 222.23 197.12 222.97 193.03 C 223.38 190.60 224.68 187.98 227.24 187.29 M 229.19 191.18 C 226.11 193.69 227.24 198.53 227.36 202.04 C 227.41 206.68 235.99 206.55 236.10 201.96 C 236.37 199.05 236.52 196.03 235.83 193.17 C 235.06 190.30 231.42 190.87 229.19 191.18 Z" />
<path fill="#9c9e9f" opacity="1.00" d=" M 244.25 187.01 C 248.18 187.05 252.12 186.84 256.04 187.09 C 258.48 187.30 260.39 189.57 260.46 191.98 C 260.61 194.80 260.80 198.37 258.31 200.29 C 255.47 202.02 252.07 200.84 249.00 200.68 C 249.00 203.62 249.00 206.56 249.00 209.50 C 247.41 209.49 245.83 209.49 244.25 209.50 C 244.26 202.00 244.26 194.50 244.25 187.01 M 249.00 190.94 C 249.00 193.07 249.00 195.19 249.01 197.32 C 250.99 197.25 253.00 197.35 254.95 196.95 C 256.43 195.48 256.50 192.64 254.71 191.38 C 252.89 190.72 250.89 191.08 249.00 190.94 Z" />
<path fill="#9c9e9f" opacity="1.00" d=" M 264.27 191.86 C 264.15 189.98 264.99 187.73 266.98 187.19 C 271.05 186.69 275.17 187.10 279.26 187.32 C 279.25 188.30 279.25 190.27 279.24 191.25 C 275.80 191.24 272.35 191.23 268.91 191.28 C 268.81 192.85 268.74 194.42 268.67 195.99 C 271.77 196.24 274.89 196.29 278.00 196.27 C 278.00 197.59 278.00 198.91 278.00 200.23 C 274.88 200.22 271.75 200.25 268.64 200.50 C 268.74 202.05 268.85 203.59 268.99 205.14 C 272.40 205.29 275.81 205.26 279.23 205.26 C 279.24 206.48 279.26 207.71 279.29 208.95 C 275.56 209.18 271.82 209.65 268.08 209.42 C 266.15 209.37 264.49 207.89 264.36 205.95 C 264.11 201.26 264.27 196.56 264.27 191.86 Z" />
<path fill="#9c9e9f" opacity="1.00" d=" M 289.73 187.00 C 291.47 187.00 293.22 187.00 294.97 187.00 C 297.31 194.53 299.89 201.99 302.35 209.48 C 300.72 209.49 299.10 209.50 297.48 209.51 C 296.91 207.84 296.35 206.17 295.79 204.50 C 293.40 204.50 291.01 204.50 288.63 204.49 C 288.07 206.16 287.51 207.83 286.95 209.50 C 285.28 209.50 283.62 209.50 281.96 209.52 C 284.58 202.02 287.06 194.48 289.73 187.00 M 292.37 193.11 C 291.51 195.57 290.69 198.04 289.83 200.50 C 291.45 200.50 293.07 200.50 294.70 200.51 C 293.90 198.05 293.14 195.58 292.37 193.11 Z" />
<path fill="#9c9e9f" opacity="1.00" d=" M 305.50 187.00 C 307.04 187.00 308.58 187.00 310.12 187.00 C 312.97 191.66 315.84 196.31 318.79 200.90 C 318.73 196.27 318.75 191.63 318.75 187.00 C 320.25 187.00 321.75 187.00 323.25 187.00 C 323.25 194.50 323.25 202.00 323.25 209.50 C 321.76 209.49 320.28 209.50 318.80 209.50 C 315.85 204.88 312.96 200.23 310.02 195.60 C 309.98 200.23 310.00 204.86 310.00 209.50 C 308.50 209.50 307.00 209.49 305.50 209.50 C 305.50 202.00 305.50 194.50 305.50 187.00 Z" />
<path fill="#9c9e9f" opacity="1.00" d=" M 344.36 187.45 C 348.15 186.00 352.37 186.87 356.26 187.50 C 356.26 188.44 356.24 190.32 356.24 191.26 C 353.03 191.26 349.43 189.90 346.47 191.57 C 344.42 194.76 345.19 199.02 345.58 202.59 C 346.95 207.13 352.79 204.81 356.25 205.22 C 356.24 206.44 356.24 207.67 356.24 208.89 C 352.59 209.38 348.74 210.09 345.15 209.01 C 340.99 207.21 340.59 201.98 340.48 198.05 C 340.65 194.34 340.64 189.50 344.36 187.45 Z" />
<path fill="#9c9e9f" opacity="1.00" d=" M 364.18 187.08 C 367.22 186.56 370.56 186.36 373.47 187.60 C 377.05 189.65 377.24 194.33 377.29 197.99 C 377.26 201.69 377.22 206.36 373.65 208.54 C 370.36 209.91 366.53 209.83 363.14 208.88 C 358.93 207.15 358.97 201.82 358.95 197.99 C 358.81 193.92 359.45 188.27 364.18 187.08 M 364.15 191.94 C 363.51 195.81 362.89 199.94 364.19 203.74 C 366.24 206.48 372.32 205.91 372.49 201.91 C 372.88 198.54 373.19 194.76 371.44 191.71 C 369.20 190.36 366.40 190.94 364.15 191.94 Z" />
<path fill="#9c9e9f" opacity="1.00" d=" M 385.29 187.27 C 388.30 186.45 391.65 186.44 394.63 187.42 C 398.33 188.88 398.76 193.43 398.98 196.86 C 398.98 200.49 399.06 204.66 396.57 207.59 C 394.03 209.89 390.27 209.61 387.10 209.40 C 384.66 209.27 382.27 207.85 381.52 205.45 C 380.20 201.46 380.24 197.12 380.97 193.02 C 381.39 190.58 382.71 187.96 385.29 187.27 M 387.15 191.19 C 385.19 192.34 385.30 194.96 385.14 196.94 C 385.19 199.47 384.81 202.38 386.37 204.56 C 388.70 205.72 392.93 206.02 393.90 202.92 C 394.48 199.71 394.52 196.32 393.82 193.14 C 393.02 190.28 389.38 190.89 387.15 191.19 Z" />
<path fill="#9c9e9f" opacity="1.00" d=" M 402.25 187.01 C 406.19 187.05 410.15 186.84 414.09 187.10 C 416.51 187.32 418.40 189.60 418.46 192.00 C 418.64 194.82 418.81 198.38 416.30 200.30 C 413.46 202.02 410.07 200.84 407.00 200.68 C 407.00 203.62 407.00 206.56 407.00 209.50 C 405.41 209.49 403.83 209.50 402.26 209.50 C 402.25 202.00 402.26 194.51 402.25 187.01 M 407.00 190.94 C 407.00 193.07 407.00 195.19 407.01 197.32 C 409.64 197.18 414.52 198.10 414.04 193.96 C 414.01 190.19 409.52 191.05 407.00 190.94 Z" />
<path fill="#9c9e9f" opacity="1.00" d=" M 422.27 191.89 C 422.15 189.99 422.99 187.66 425.05 187.18 C 429.10 186.70 433.19 187.10 437.26 187.32 C 437.25 188.30 437.25 190.27 437.24 191.25 C 433.80 191.24 430.37 191.23 426.94 191.28 C 426.83 192.85 426.74 194.42 426.67 195.99 C 429.77 196.24 432.88 196.29 436.00 196.27 C 435.99 197.59 435.99 198.91 436.00 200.23 C 432.88 200.21 429.75 200.25 426.64 200.50 C 426.74 202.05 426.85 203.59 426.98 205.14 C 430.40 205.29 433.82 205.26 437.24 205.26 C 437.24 206.49 437.25 207.73 437.26 208.98 C 433.53 209.17 429.79 209.65 426.06 209.42 C 424.13 209.36 422.48 207.87 422.36 205.93 C 422.11 201.26 422.27 196.57 422.27 191.89 Z" />
<path fill="#9c9e9f" opacity="1.00" d=" M 440.50 187.01 C 445.23 187.46 450.45 185.92 454.87 188.03 C 458.09 191.48 457.93 198.36 453.58 200.91 C 455.01 203.73 456.42 206.56 457.71 209.45 C 455.99 209.48 454.27 209.50 452.56 209.53 C 451.28 206.69 450.01 203.85 448.77 201.00 C 447.59 200.84 446.41 200.69 445.24 200.53 C 445.25 203.52 445.24 206.51 445.25 209.50 C 443.66 209.49 442.08 209.49 440.50 209.50 C 440.50 202.00 440.50 194.50 440.50 187.01 M 445.25 190.97 C 445.24 192.99 445.24 195.01 445.25 197.03 C 447.51 196.71 450.39 197.84 452.15 195.99 C 452.11 194.39 453.00 191.89 451.06 191.11 C 449.12 190.91 447.18 190.99 445.25 190.97 Z" />
<path fill="#9c9e9f" opacity="1.00" d=" M 467.40 187.11 C 469.18 187.03 470.97 187.00 472.76 186.96 C 475.11 194.50 477.75 201.95 480.17 209.48 C 478.52 209.49 476.89 209.50 475.26 209.51 C 474.73 207.84 474.19 206.17 473.67 204.50 C 471.26 204.50 468.86 204.50 466.47 204.49 C 465.90 206.16 465.34 207.83 464.78 209.50 C 463.12 209.50 461.46 209.49 459.81 209.48 C 462.33 202.03 464.98 194.61 467.40 187.11 M 467.66 200.49 C 469.28 200.50 470.90 200.51 472.53 200.53 C 471.73 198.05 470.96 195.56 470.19 193.08 C 469.35 195.55 468.52 198.02 467.66 200.49 Z" />
<path fill="#9c9e9f" opacity="1.00" d=" M 479.25 187.00 C 484.92 187.00 490.58 187.00 496.25 187.00 C 496.24 188.33 496.24 189.66 496.25 191.00 C 494.16 191.00 492.08 191.00 490.00 191.00 C 490.00 197.17 490.00 203.33 490.00 209.50 C 488.49 209.50 487.00 209.49 485.50 209.50 C 485.50 203.33 485.50 197.17 485.51 191.01 C 483.42 191.00 481.33 191.00 479.25 190.99 C 479.25 189.66 479.25 188.33 479.25 187.00 Z" />
<path fill="#9c9e9f" opacity="1.00" d=" M 499.75 187.00 C 501.24 187.00 502.74 187.00 504.25 187.00 C 504.25 194.50 504.25 202.00 504.25 209.50 C 502.74 209.49 501.24 209.49 499.75 209.50 C 499.75 202.00 499.75 194.50 499.75 187.00 Z" />
<path fill="#9c9e9f" opacity="1.00" d=" M 512.32 187.42 C 515.75 186.43 519.79 186.20 523.04 187.90 C 526.17 190.21 526.27 194.58 526.41 198.12 C 526.28 201.41 526.29 205.22 523.84 207.76 C 520.82 210.07 516.59 209.73 513.05 209.13 C 508.57 208.15 508.01 202.76 507.96 198.99 C 508.01 194.95 507.97 189.36 512.32 187.42 M 514.34 191.43 C 512.17 193.16 512.66 196.48 512.47 198.97 C 512.70 201.08 512.46 204.42 515.05 205.10 C 517.13 205.43 520.40 205.74 521.22 203.21 C 522.09 200.04 521.95 196.61 521.34 193.40 C 520.70 190.31 516.59 190.59 514.34 191.43 Z" />
<path fill="#9c9e9f" opacity="1.00" d=" M 530.00 187.00 C 531.59 187.00 533.19 187.00 534.80 187.00 C 537.71 191.63 540.61 196.27 543.48 200.93 C 543.52 196.28 543.50 191.64 543.50 187.00 C 544.99 187.00 546.49 187.00 548.00 187.00 C 548.00 194.50 548.00 201.99 548.00 209.49 C 546.52 209.49 545.05 209.50 543.58 209.52 C 540.57 204.91 537.68 200.23 534.74 195.58 C 534.74 200.22 534.74 204.86 534.74 209.50 C 533.15 209.50 531.57 209.50 530.00 209.49 C 530.00 202.00 530.00 194.50 530.00 187.00 Z" />
<path fill="#9c9e9f" opacity="1.00" d=" M 163.50 223.26 C 164.99 223.26 166.49 223.25 168.00 223.25 C 168.00 230.75 168.00 238.25 168.00 245.75 C 166.49 245.74 164.99 245.74 163.50 245.74 C 163.50 238.24 163.50 230.75 163.50 223.26 Z" />
<path fill="#9c9e9f" opacity="1.00" d=" M 172.00 223.26 C 173.55 223.25 175.11 223.25 176.67 223.24 C 179.50 227.85 182.35 232.44 185.23 237.01 C 185.27 232.43 185.25 227.84 185.26 223.25 C 186.83 223.25 188.42 223.25 190.00 223.26 C 190.00 230.75 190.00 238.25 190.00 245.75 C 188.43 245.74 186.86 245.74 185.29 245.75 C 182.40 241.05 179.42 236.40 176.47 231.75 C 176.51 236.41 176.50 241.08 176.50 245.74 C 175.00 245.74 173.50 245.74 172.00 245.74 C 172.00 238.25 172.00 230.75 172.00 223.26 Z" />
<path fill="#9c9e9f" opacity="1.00" d=" M 203.33 223.50 C 207.30 222.37 211.50 223.20 215.50 223.73 C 215.50 224.67 215.49 226.53 215.49 227.47 C 212.16 227.28 208.78 226.98 205.46 227.46 C 204.50 228.83 205.11 230.60 205.07 232.15 C 208.65 232.50 213.77 231.13 215.70 235.18 C 216.63 238.53 217.08 243.76 213.22 245.45 C 209.24 246.65 205.00 245.80 200.99 245.17 C 201.00 244.24 201.01 242.39 201.01 241.46 C 204.42 241.58 207.93 242.24 211.28 241.33 C 211.74 239.95 211.55 238.48 211.54 237.06 C 207.90 236.32 202.25 238.07 200.65 233.53 C 199.98 230.20 199.42 225.04 203.33 223.50 Z" />
<path fill="#9c9e9f" opacity="1.00" d=" M 222.84 223.52 C 226.61 222.31 230.69 223.15 234.50 223.78 C 234.50 224.71 234.49 226.58 234.48 227.52 C 231.10 227.83 225.26 225.16 223.68 229.43 C 223.08 233.07 222.58 237.29 224.49 240.63 C 227.28 242.81 231.24 241.32 234.49 241.45 C 234.49 242.39 234.50 244.25 234.50 245.19 C 230.48 245.72 225.99 246.95 222.23 244.85 C 218.79 242.49 218.68 237.80 218.53 234.04 C 218.71 230.29 218.89 225.33 222.84 223.52 Z" />
<path fill="#9c9e9f" opacity="1.00" d=" M 238.00 223.26 C 239.50 223.25 241.00 223.25 242.50 223.25 C 242.50 230.75 242.49 238.24 242.50 245.74 C 241.00 245.74 239.50 245.74 238.00 245.75 C 238.00 238.25 238.00 230.75 238.00 223.26 Z" />
<path fill="#9c9e9f" opacity="1.00" d=" M 247.29 224.29 C 251.52 222.08 256.66 223.73 261.25 223.56 C 261.25 224.87 261.24 226.18 261.25 227.50 C 257.77 227.49 254.29 227.48 250.81 227.54 C 250.77 229.18 250.74 230.82 250.72 232.46 C 253.72 232.49 256.73 232.49 259.73 232.68 C 259.74 233.94 259.74 235.19 259.75 236.45 C 256.73 236.49 253.72 236.66 250.70 236.80 C 250.74 238.35 250.78 239.90 250.82 241.46 C 254.30 241.51 257.77 241.50 261.25 241.50 C 261.25 242.47 261.24 244.40 261.24 245.37 C 257.02 245.46 252.70 246.27 248.54 245.42 C 245.17 244.13 246.22 239.79 245.98 236.98 C 246.39 232.81 244.96 228.03 247.29 224.29 Z" />
<path fill="#9c9e9f" opacity="1.00" d=" M 264.00 223.25 C 265.58 223.25 267.16 223.26 268.74 223.26 C 271.71 227.90 274.53 232.64 277.51 237.27 C 277.50 232.60 277.50 227.93 277.50 223.26 C 279.00 223.25 280.50 223.25 282.00 223.26 C 282.00 230.75 282.00 238.25 282.00 245.75 C 280.46 245.74 278.92 245.74 277.39 245.74 C 274.54 241.14 271.64 236.58 268.76 232.01 C 268.73 236.59 268.74 241.17 268.74 245.75 C 267.16 245.74 265.58 245.74 264.00 245.74 C 264.00 238.24 264.00 230.75 264.00 223.25 Z" />
<path fill="#9c9e9f" opacity="1.00" d=" M 289.40 223.34 C 293.06 222.51 296.86 223.13 300.51 223.72 C 300.50 224.67 300.49 226.57 300.48 227.52 C 297.31 227.52 293.70 226.27 290.77 227.81 C 288.58 231.06 289.10 235.54 289.89 239.21 C 291.54 243.46 297.08 241.25 300.49 241.46 C 300.49 242.41 300.50 244.31 300.50 245.26 C 296.48 245.69 291.99 246.95 288.27 244.77 C 284.65 242.09 284.71 237.00 284.73 232.94 C 284.87 229.39 285.48 224.65 289.40 223.34 Z" />
<path fill="#9c9e9f" opacity="1.00" d=" M 303.32 226.88 C 303.31 225.01 305.02 223.31 306.89 223.32 C 310.68 223.06 314.47 223.37 318.25 223.56 C 318.25 224.55 318.25 226.51 318.25 227.50 C 314.77 227.49 311.29 227.47 307.82 227.57 C 307.78 229.19 307.75 230.81 307.73 232.43 C 310.82 232.49 313.92 232.49 317.01 232.69 C 317.00 233.95 317.00 235.20 317.00 236.46 C 313.89 236.49 310.79 236.67 307.69 236.80 C 307.75 238.32 307.81 239.85 307.88 241.37 C 311.34 241.54 314.80 241.51 318.26 241.51 C 318.25 242.48 318.23 244.41 318.22 245.38 C 314.46 245.55 310.68 245.94 306.92 245.69 C 304.95 245.72 303.24 243.95 303.31 241.99 C 303.19 236.96 303.18 231.92 303.32 226.88 Z" />
<path fill="#9c9e9f" opacity="1.00" d=" M 333.37 225.36 C 335.98 221.47 341.42 223.27 345.25 223.76 C 345.25 224.63 345.25 226.35 345.24 227.22 C 342.72 227.22 340.21 227.26 337.70 227.45 C 339.31 230.89 341.84 233.76 344.09 236.78 C 345.41 235.60 346.73 234.42 348.05 233.23 C 350.73 235.53 347.78 238.03 346.64 240.23 C 348.05 242.06 349.46 243.90 350.87 245.74 C 349.00 245.74 347.14 245.74 345.27 245.74 C 344.65 244.86 344.02 243.98 343.40 243.10 C 341.26 244.61 338.81 246.57 335.99 245.79 C 332.21 245.28 329.58 240.77 331.13 237.24 C 332.02 235.29 333.75 233.92 335.18 232.38 C 333.95 230.31 331.81 227.86 333.37 225.36 M 337.44 235.62 C 336.56 236.75 335.59 237.83 334.91 239.10 C 335.40 240.48 336.68 241.24 337.78 242.08 C 338.74 241.24 339.70 240.42 340.66 239.59 C 339.60 238.25 338.53 236.92 337.44 235.62 Z" />
<path fill="#9c9e9f" opacity="1.00" d=" M 356.49 223.26 C 362.16 223.25 367.83 223.26 373.51 223.26 C 373.49 224.58 373.49 225.92 373.49 227.25 C 371.41 227.24 369.33 227.25 367.25 227.25 C 367.25 233.41 367.25 239.58 367.25 245.74 C 365.66 245.74 364.08 245.74 362.50 245.75 C 362.50 239.58 362.50 233.42 362.51 227.25 C 360.50 227.25 358.50 227.24 356.51 227.25 C 356.50 226.25 356.50 224.26 356.49 223.26 Z" />
<path fill="#9c9e9f" opacity="1.00" d=" M 375.45 227.07 C 375.56 225.23 376.98 223.39 378.92 223.34 C 382.78 223.03 386.65 223.37 390.51 223.56 C 390.50 224.87 390.49 226.18 390.50 227.50 C 386.99 227.49 383.48 227.45 379.97 227.62 C 379.99 229.23 380.01 230.86 380.05 232.48 C 383.04 232.49 386.03 232.48 389.01 232.67 C 389.00 233.93 388.99 235.19 388.99 236.46 C 385.98 236.49 382.99 236.66 379.99 236.79 C 380.00 238.30 380.02 239.81 380.05 241.33 C 383.52 241.56 387.01 241.51 390.49 241.50 C 390.49 242.47 390.49 244.40 390.50 245.36 C 386.36 245.53 382.19 246.12 378.08 245.53 C 375.64 245.00 375.31 242.21 375.28 240.15 C 375.27 235.79 375.06 231.41 375.45 227.07 Z" />
<path fill="#9c9e9f" opacity="1.00" d=" M 397.47 223.32 C 401.11 222.52 404.88 223.13 408.51 223.73 C 408.50 224.68 408.49 226.58 408.48 227.53 C 405.17 227.68 400.94 225.79 398.23 228.34 C 396.92 232.17 396.62 236.86 398.59 240.50 C 401.21 242.93 405.29 241.29 408.49 241.46 C 408.49 242.41 408.50 244.31 408.50 245.26 C 404.66 245.67 400.52 246.80 396.84 245.14 C 392.66 242.70 392.70 237.19 392.73 232.95 C 392.85 229.37 393.46 224.57 397.47 223.32 Z" />
<path fill="#9c9e9f" opacity="1.00" d=" M 411.25 223.26 C 412.83 223.25 414.41 223.25 416.00 223.25 C 416.00 226.42 416.00 229.59 416.00 232.76 C 418.50 232.75 421.00 232.75 423.51 232.75 C 423.50 229.58 423.50 226.42 423.50 223.26 C 425.00 223.25 426.50 223.25 428.00 223.26 C 428.00 230.75 428.00 238.25 428.00 245.75 C 426.49 245.74 424.99 245.74 423.50 245.74 C 423.50 242.83 423.50 239.91 423.50 237.00 C 421.00 237.00 418.50 237.00 416.00 237.00 C 416.00 239.91 416.00 242.83 416.00 245.75 C 414.41 245.74 412.83 245.74 411.25 245.74 C 411.26 238.25 411.26 230.75 411.25 223.26 Z" />
<path fill="#9c9e9f" opacity="1.00" d=" M 431.25 223.25 C 432.83 223.25 434.41 223.25 436.00 223.26 C 438.88 227.97 441.86 232.64 444.76 237.36 C 444.74 232.65 444.75 227.96 444.75 223.26 C 446.25 223.25 447.74 223.25 449.25 223.26 C 449.25 230.76 449.25 238.26 449.25 245.76 C 447.69 245.74 446.16 245.73 444.62 245.72 C 441.76 241.14 438.85 236.59 436.02 232.00 C 435.99 236.58 436.00 241.16 436.00 245.75 C 434.41 245.74 432.83 245.74 431.25 245.74 C 431.26 238.25 431.26 230.75 431.25 223.25 Z" />
<path fill="#9c9e9f" opacity="1.00" d=" M 456.49 223.72 C 459.66 222.65 463.28 222.64 466.46 223.71 C 470.69 225.64 470.57 231.10 470.74 235.05 C 470.64 238.89 470.08 244.33 465.57 245.44 C 462.24 245.90 458.50 246.30 455.41 244.69 C 452.14 242.24 452.29 237.62 452.22 233.95 C 452.32 230.29 452.65 225.43 456.49 223.72 M 458.56 227.70 C 456.09 230.32 456.74 234.67 457.00 238.03 C 456.81 243.06 465.82 243.06 465.85 238.12 C 465.91 234.69 466.91 230.36 464.31 227.62 C 462.47 227.04 460.35 226.98 458.56 227.70 Z" />
<path fill="#9c9e9f" opacity="1.00" d=" M 493.48 223.75 C 496.85 222.64 500.78 222.55 504.09 223.93 C 507.81 226.21 507.72 231.20 507.79 235.04 C 507.77 238.72 507.36 243.75 503.33 245.26 C 500.21 246.07 496.78 246.04 493.66 245.27 C 489.64 243.71 489.48 238.67 489.29 235.02 C 489.40 231.08 489.47 225.86 493.48 223.75 M 496.34 227.41 C 494.12 228.10 494.10 230.97 493.98 232.88 C 494.03 235.54 493.57 238.56 495.19 240.87 C 497.57 242.27 502.12 242.28 502.80 238.96 C 503.49 235.37 503.70 231.34 502.00 228.01 C 500.33 226.95 498.20 227.10 496.34 227.41 Z" />
<path fill="#9c9e9f" opacity="1.00" d=" M 510.05 231.96 C 510.22 228.57 511.17 224.15 515.02 223.20 C 518.75 222.62 522.56 223.08 526.25 223.76 C 526.25 224.68 526.25 226.53 526.25 227.45 C 522.89 227.50 518.83 225.89 515.91 227.92 C 513.88 231.39 514.41 235.95 515.21 239.75 C 516.25 242.71 519.98 241.50 522.07 240.48 C 522.02 239.14 521.99 237.81 521.95 236.48 C 521.20 236.49 519.70 236.50 518.95 236.50 C 518.99 235.68 519.07 234.04 519.11 233.23 C 521.64 232.90 524.18 232.72 526.73 232.67 C 526.74 237.11 526.78 241.54 526.70 245.98 C 525.16 245.75 523.63 245.50 522.16 245.02 C 519.04 245.77 515.21 246.81 512.53 244.41 C 509.64 241.01 509.94 236.15 510.05 231.96 Z" />
<path fill="#9c9e9f" opacity="1.00" d=" M 529.04 223.25 C 530.70 223.24 532.37 223.24 534.04 223.23 C 535.49 226.68 536.92 230.14 538.37 233.58 C 539.90 230.13 541.44 226.69 543.01 223.26 C 544.69 223.25 546.39 223.25 548.09 223.25 C 545.88 227.93 543.52 232.54 541.33 237.23 C 539.98 239.86 540.61 242.90 540.49 245.74 C 538.99 245.74 537.50 245.74 536.02 245.75 C 535.87 242.80 536.52 239.63 535.15 236.89 C 533.09 232.35 531.04 227.81 529.04 223.25 Z" />
<path fill="#9c9e9f" opacity="1.00" d=" M 473.75 223.26 C 475.24 223.25 476.74 223.25 478.25 223.26 C 478.35 229.14 478.03 235.03 478.38 240.90 C 481.24 242.23 484.83 241.21 487.98 241.49 C 487.98 242.90 487.99 244.32 488.01 245.74 C 484.39 245.69 480.76 245.92 477.15 245.63 C 475.30 245.54 473.64 244.00 473.79 242.08 C 473.65 235.81 473.80 229.53 473.75 223.26 Z" />
</g>
<g id="#fff100ff">
<path fill="#fff100" opacity="1.00" d=" M 783.74 68.49 C 784.51 66.72 785.29 64.95 786.08 63.19 C 786.85 64.95 787.62 66.71 788.40 68.49 C 790.96 68.50 793.53 68.51 796.11 68.54 C 794.04 69.63 791.97 70.71 789.91 71.80 C 790.67 73.55 791.44 75.29 792.22 77.04 C 790.16 75.98 788.11 74.91 786.08 73.84 C 784.04 74.91 781.99 75.98 779.96 77.04 C 780.70 75.29 781.47 73.55 782.24 71.81 C 780.16 70.72 778.09 69.63 776.02 68.54 C 778.59 68.51 781.16 68.50 783.74 68.49 Z" />
<path fill="#fff100" opacity="1.00" d=" M 754.80 69.33 C 755.58 71.10 756.35 72.87 757.13 74.65 C 759.65 74.68 762.17 74.69 764.70 74.71 C 762.66 75.78 760.63 76.85 758.60 77.92 C 759.37 79.66 760.12 81.40 760.91 83.15 C 758.86 82.09 756.84 81.02 754.81 79.95 C 752.76 81.02 750.71 82.08 748.66 83.13 C 749.41 81.39 750.17 79.65 750.95 77.91 C 748.89 76.84 746.85 75.77 744.81 74.70 C 747.32 74.69 749.84 74.68 752.37 74.69 C 753.17 72.90 753.97 71.11 754.80 69.33 Z" />
<path fill="#fff100" opacity="1.00" d=" M 817.35 69.32 C 818.18 71.10 819.00 72.89 819.83 74.68 C 822.34 74.68 824.86 74.69 827.39 74.71 C 825.34 75.78 823.29 76.84 821.25 77.91 C 822.01 79.67 822.79 81.43 823.56 83.20 C 821.54 82.13 819.53 81.05 817.54 79.95 C 815.44 81.00 813.36 82.08 811.29 83.16 C 812.04 81.41 812.83 79.66 813.60 77.92 C 811.56 76.85 809.52 75.78 807.49 74.72 C 810.03 74.69 812.60 74.67 815.16 74.61 C 815.88 72.85 816.61 71.08 817.35 69.32 Z" />
<path fill="#fff100" opacity="1.00" d=" M 729.46 91.36 C 730.28 89.57 731.09 87.77 731.92 85.97 C 732.68 87.77 733.46 89.56 734.24 91.35 C 736.78 91.36 739.32 91.37 741.88 91.39 C 739.81 92.46 737.75 93.53 735.71 94.61 C 736.48 96.36 737.25 98.12 738.04 99.87 C 735.98 98.79 733.94 97.70 731.90 96.61 C 729.84 97.69 727.79 98.78 725.74 99.86 C 726.50 98.10 727.27 96.34 728.04 94.57 C 725.98 93.51 723.93 92.45 721.89 91.39 C 724.41 91.37 726.93 91.36 729.46 91.36 Z" />
<path fill="#fff100" opacity="1.00" d=" M 837.91 91.27 C 838.68 89.50 839.46 87.73 840.25 85.96 C 841.04 87.73 841.87 89.51 842.68 91.28 C 845.20 91.29 847.72 91.30 850.26 91.32 C 848.21 92.39 846.16 93.44 844.11 94.49 C 844.87 96.27 845.63 98.04 846.41 99.81 C 844.36 98.71 842.30 97.62 840.24 96.55 C 838.21 97.63 836.17 98.72 834.15 99.79 C 834.90 98.04 835.68 96.28 836.46 94.53 C 834.40 93.45 832.34 92.39 830.29 91.32 C 832.82 91.30 835.37 91.28 837.91 91.27 Z" />
<path fill="#fff100" opacity="1.00" d=" M 723.46 108.74 C 724.27 110.51 725.07 112.28 725.88 114.06 C 728.35 114.06 730.83 114.08 733.31 114.13 C 731.31 115.22 729.30 116.28 727.30 117.35 C 728.08 119.08 728.85 120.82 729.64 122.56 C 727.56 121.48 725.50 120.41 723.43 119.34 C 721.40 120.43 719.36 121.51 717.32 122.58 C 718.09 120.82 718.88 119.06 719.67 117.30 C 717.60 116.23 715.54 115.17 713.48 114.11 C 716.02 114.08 718.57 114.07 721.12 114.06 C 721.89 112.28 722.67 110.51 723.46 108.74 Z" />
<path fill="#fff100" opacity="1.00" d=" M 846.20 113.98 C 846.99 112.20 847.80 110.43 848.63 108.68 C 849.39 110.44 850.16 112.21 850.93 113.98 C 853.49 114.00 856.05 114.02 858.62 114.05 C 856.54 115.11 854.46 116.17 852.40 117.24 C 853.17 118.99 853.94 120.75 854.73 122.51 C 852.69 121.44 850.66 120.36 848.65 119.27 C 846.57 120.34 844.50 121.41 842.43 122.47 C 843.20 120.74 843.98 119.00 844.77 117.27 C 842.72 116.20 840.66 115.15 838.61 114.11 C 841.14 114.03 843.66 113.99 846.20 113.98 Z" />
<path fill="#fff100" opacity="1.00" d=" M 729.49 136.86 C 730.29 135.07 731.09 133.28 731.90 131.50 C 732.68 133.27 733.46 135.05 734.25 136.83 C 736.76 136.84 739.25 136.85 741.78 136.88 C 739.76 137.97 737.74 139.04 735.72 140.09 C 736.48 141.85 737.25 143.61 738.02 145.38 C 735.98 144.29 733.93 143.20 731.90 142.11 C 729.86 143.18 727.83 144.25 725.81 145.33 C 726.54 143.57 727.28 141.82 728.02 140.06 C 725.96 139.00 723.92 137.93 721.87 136.86 C 724.41 136.85 726.95 136.85 729.49 136.86 Z" />
<path fill="#fff100" opacity="1.00" d=" M 837.91 136.83 C 838.68 135.05 839.47 133.28 840.26 131.51 C 841.05 133.27 841.85 135.04 842.64 136.82 C 845.17 136.84 847.69 136.85 850.24 136.87 C 848.19 137.94 846.15 139.01 844.10 140.08 C 844.86 141.82 845.64 143.57 846.43 145.31 C 844.34 144.24 842.27 143.18 840.20 142.12 C 838.18 143.22 836.16 144.30 834.15 145.39 C 834.90 143.61 835.67 141.84 836.43 140.07 C 834.39 139.01 832.35 137.95 830.32 136.87 C 832.84 136.85 835.38 136.84 837.91 136.83 Z" />
<path fill="#fff100" opacity="1.00" d=" M 754.86 148.17 C 755.63 149.95 756.39 151.72 757.16 153.50 C 759.71 153.52 762.26 153.53 764.82 153.54 C 762.76 154.62 760.70 155.70 758.65 156.78 C 759.42 158.52 760.18 160.27 760.97 162.02 C 758.91 160.95 756.88 159.89 754.85 158.81 C 752.79 159.87 750.75 160.94 748.72 162.04 C 749.45 160.29 750.30 158.57 750.81 156.74 C 748.88 155.54 746.83 154.57 744.83 153.53 C 747.35 153.52 749.87 153.53 752.41 153.54 C 753.22 151.75 754.03 149.96 754.86 148.17 Z" />
<path fill="#fff100" opacity="1.00" d=" M 814.89 153.50 C 815.71 151.79 816.55 150.09 817.44 148.42 C 818.19 150.12 818.96 151.82 819.73 153.52 C 822.25 153.52 824.79 153.53 827.33 153.54 C 825.27 154.62 823.21 155.69 821.15 156.77 C 821.92 158.52 822.70 160.28 823.48 162.04 C 821.42 160.95 819.37 159.87 817.32 158.80 C 815.27 159.88 813.23 160.96 811.18 162.03 C 811.95 160.28 812.73 158.53 813.51 156.78 C 811.45 155.70 809.40 154.62 807.34 153.55 C 809.85 153.53 812.37 153.52 814.89 153.50 Z" />
<path fill="#fff100" opacity="1.00" d=" M 785.86 154.88 C 787.29 156.04 787.67 158.00 788.53 159.56 C 791.04 159.56 793.56 159.56 796.08 159.57 C 794.02 160.65 791.96 161.73 789.91 162.82 C 790.68 164.56 791.45 166.30 792.23 168.05 C 790.17 166.99 788.12 165.92 786.08 164.85 C 784.04 165.92 782.00 166.98 779.97 168.04 C 780.71 166.29 781.48 164.55 782.25 162.82 C 780.18 161.73 778.12 160.65 776.06 159.57 C 778.60 159.56 781.14 159.55 783.69 159.53 C 784.38 157.97 785.06 156.40 785.86 154.88 Z" />
</g>
</svg>
