<?xml version="1.0" encoding="UTF-8" ?>
<!DOCTYPE svg PUBLIC "-//W3C//DTD SVG 1.1//EN" "http://www.w3.org/Graphics/SVG/1.1/DTD/svg11.dtd">
<svg width="526pt" height="165pt" viewBox="0 0 526 165" version="1.1" xmlns="http://www.w3.org/2000/svg">
<g id="#ffffffff">
</g>
<g id="#104154ff">
<path fill="#104154" opacity="1.00" d=" M 77.90 0.00 L 82.70 0.00 C 88.68 1.15 93.47 6.80 92.98 12.98 C 93.29 19.76 85.11 23.14 85.77 30.01 C 85.28 36.47 92.64 39.70 92.92 45.92 C 93.96 52.88 88.08 59.90 81.00 59.85 C 73.98 60.46 67.39 54.05 67.97 46.98 C 67.47 40.18 75.55 36.80 75.20 30.01 C 75.77 23.17 67.60 19.76 67.97 12.98 C 67.44 6.89 72.06 1.33 77.90 0.00 Z" />
<path fill="#104154" opacity="1.00" d=" M 43.46 14.55 C 47.77 12.70 53.01 16.37 52.61 21.06 C 52.66 26.01 46.49 29.29 42.38 26.52 C 37.75 23.94 38.42 16.28 43.46 14.55 Z" />
<path fill="#104154" opacity="1.00" d=" M 112.48 14.55 C 117.09 12.51 122.63 16.91 121.55 21.85 C 121.10 26.99 113.92 29.45 110.40 25.67 C 106.88 22.62 108.08 16.11 112.48 14.55 Z" />
<path fill="#104154" opacity="1.00" d=" M 207.21 26.39 C 209.70 26.38 213.45 25.22 215.16 27.12 C 215.56 33.94 215.15 40.79 215.34 47.62 C 221.60 47.79 227.86 47.60 234.12 47.75 C 234.37 40.96 233.96 34.15 234.31 27.37 C 235.96 25.14 239.45 26.39 241.85 26.32 C 242.10 26.52 242.59 26.90 242.84 27.09 C 243.24 42.40 242.85 57.75 243.03 73.08 C 242.78 74.38 243.52 76.54 241.93 77.17 C 239.51 77.49 237.06 77.28 234.63 77.28 C 233.65 70.00 234.47 62.62 234.16 55.30 C 227.89 55.34 221.62 55.24 215.35 55.37 C 215.25 61.60 215.34 67.83 215.32 74.05 C 215.56 75.59 214.93 77.63 212.97 77.31 C 210.88 77.21 206.58 78.33 206.72 75.01 C 206.63 60.34 206.76 45.68 206.66 31.01 C 206.80 29.49 206.34 27.75 207.21 26.39 Z" />
<path fill="#104154" opacity="1.00" d=" M 265.18 29.07 C 265.59 27.83 266.21 26.01 267.88 26.22 C 270.81 26.11 273.77 26.01 276.68 26.41 C 278.14 28.51 278.55 31.12 279.41 33.49 C 283.89 48.06 289.04 62.44 293.15 77.12 C 290.21 77.11 286.98 77.97 284.22 76.73 C 282.67 74.28 282.35 71.25 281.31 68.56 C 274.85 68.59 268.38 68.58 261.91 68.57 C 260.83 71.28 260.63 74.53 258.86 76.86 C 256.13 77.54 252.88 77.80 250.25 76.71 C 250.49 74.05 251.66 71.60 252.41 69.07 C 256.67 55.74 260.96 42.42 265.18 29.07 M 271.46 36.57 C 269.08 44.88 266.52 53.13 263.98 61.39 C 269.06 61.44 274.15 61.43 279.23 61.41 C 276.57 53.16 274.51 44.69 271.46 36.57 Z" />
<path fill="#104154" opacity="1.00" d=" M 301.27 26.19 C 305.83 25.72 310.44 26.13 315.03 26.00 C 320.44 26.01 326.51 25.35 331.04 28.96 C 339.89 35.33 338.04 51.90 326.87 54.60 C 329.54 62.23 334.42 69.08 336.75 76.74 C 334.12 77.75 330.90 77.61 328.22 76.82 C 324.19 69.96 321.70 62.26 317.87 55.27 C 314.96 55.33 312.05 55.32 309.14 55.31 C 308.57 62.43 309.60 69.69 308.63 76.75 C 306.22 77.92 303.30 77.08 300.70 77.30 C 300.40 75.89 300.16 74.46 300.17 73.02 C 300.20 58.65 300.21 44.29 300.16 29.92 C 300.23 28.63 299.95 27.00 301.27 26.19 M 308.98 33.71 C 309.02 38.60 308.99 43.49 309.01 48.38 C 313.64 48.27 318.34 48.84 322.94 48.07 C 329.03 46.37 329.37 36.82 323.68 34.38 C 318.96 32.86 313.86 33.75 308.98 33.71 Z" />
<path fill="#104154" opacity="1.00" d=" M 344.97 29.99 C 345.24 28.87 344.36 26.58 346.04 26.33 C 348.41 26.04 350.79 26.19 353.17 26.14 C 357.81 32.26 361.32 39.14 365.59 45.52 C 369.28 39.25 373.11 33.04 377.18 27.01 C 379.69 25.32 383.21 26.30 386.08 26.61 C 385.92 41.74 386.01 56.88 386.03 72.02 C 385.94 73.60 386.23 75.28 385.60 76.77 C 383.21 77.91 380.36 77.09 377.79 77.24 C 376.90 65.37 377.72 53.41 377.37 41.50 C 374.43 45.89 371.91 50.55 369.01 54.96 C 367.71 57.35 363.47 57.28 362.05 55.03 C 359.12 50.64 356.74 45.89 353.64 41.60 C 353.29 53.46 354.02 65.35 353.27 77.19 C 350.68 77.10 347.83 77.90 345.41 76.80 C 344.77 75.29 345.05 73.60 344.97 72.02 C 345.02 58.01 345.01 44.00 344.97 29.99 Z" />
<path fill="#104154" opacity="1.00" d=" M 406.40 26.66 C 414.68 23.78 425.51 25.84 430.14 33.87 C 434.29 41.20 431.96 49.97 432.60 57.97 C 433.19 64.97 430.21 72.52 423.73 75.83 C 414.94 80.25 401.83 78.39 397.14 68.92 C 393.65 61.46 395.78 52.98 395.17 45.06 C 394.39 37.31 398.80 29.13 406.40 26.66 M 410.43 33.65 C 406.46 34.82 403.90 38.91 404.01 42.97 C 403.99 49.02 403.95 55.07 404.04 61.12 C 404.01 64.91 406.58 68.51 410.12 69.81 C 414.79 71.58 420.84 69.71 422.85 64.92 C 424.39 60.80 423.46 56.28 423.69 51.98 C 423.54 47.96 424.10 43.88 423.29 39.91 C 421.98 34.53 415.44 31.73 410.43 33.65 Z" />
<path fill="#104154" opacity="1.00" d=" M 442.28 26.38 C 445.32 26.26 449.89 24.95 451.40 28.56 C 457.89 39.22 464.32 49.92 470.97 60.47 C 471.13 49.31 470.81 38.14 471.11 26.99 C 473.18 25.30 476.60 26.54 479.17 26.17 C 480.00 30.74 479.41 35.42 479.58 40.03 C 479.35 52.43 480.05 64.87 479.22 77.23 C 476.13 76.96 471.61 78.65 469.89 75.13 C 463.37 64.36 456.80 53.61 450.30 42.83 C 450.28 53.56 450.36 64.30 450.28 75.02 C 450.66 77.55 447.66 77.41 446.01 77.38 C 444.35 77.43 441.37 77.54 441.72 75.04 C 441.63 60.34 441.76 45.64 441.66 30.95 C 441.84 29.45 441.27 27.66 442.28 26.38 Z" />
<path fill="#104154" opacity="1.00" d=" M 486.90 26.81 C 489.64 25.74 492.75 25.97 495.59 26.47 C 496.94 27.54 497.54 29.24 498.34 30.72 C 500.91 36.30 503.69 41.79 506.47 47.27 C 509.53 41.07 512.63 34.88 515.70 28.68 C 517.34 24.54 522.62 26.60 526.00 26.35 L 526.00 27.37 C 521.22 37.07 515.87 46.49 511.23 56.25 C 510.03 63.20 511.55 70.37 510.38 77.37 C 507.78 76.80 503.66 78.61 502.18 75.83 C 501.36 69.16 502.84 62.30 501.49 55.71 C 496.81 45.99 491.43 36.60 486.90 26.81 Z" />
<path fill="#104154" opacity="1.00" d=" M 17.35 43.27 C 19.86 41.69 24.06 43.01 24.51 46.17 C 25.51 49.40 22.31 52.87 18.99 51.99 C 14.83 51.55 13.72 45.26 17.35 43.27 Z" />
<path fill="#104154" opacity="1.00" d=" M 138.45 43.36 C 140.97 41.66 145.11 42.91 145.74 46.05 C 146.70 49.00 144.17 52.47 141.00 52.04 C 136.51 52.37 134.64 45.61 138.45 43.36 Z" />
<path fill="#104154" opacity="1.00" d=" M 6.44 73.50 C 11.71 71.38 18.36 75.06 18.93 80.80 C 20.03 86.20 15.43 91.69 9.95 91.62 C 6.40 91.87 3.10 89.64 1.39 86.64 C 0.15 81.77 0.77 75.19 6.44 73.50 Z" />
<path fill="#104154" opacity="1.00" d=" M 146.44 73.69 C 152.21 70.96 159.85 75.49 159.62 82.03 C 160.24 89.14 151.49 94.17 145.56 90.35 C 139.07 87.01 139.72 76.42 146.44 73.69 Z" />
<path fill="#104154" opacity="1.00" d=" M 207.33 93.77 C 208.33 94.33 209.37 94.90 209.89 95.98 C 212.02 99.35 214.06 102.77 216.18 106.15 C 216.19 102.15 216.18 98.15 216.22 94.16 C 216.61 94.16 217.40 94.18 217.79 94.18 C 217.75 99.44 218.00 104.71 217.59 109.95 C 213.60 106.67 212.00 101.46 208.87 97.46 C 208.76 101.52 208.84 105.59 208.79 109.66 C 208.42 109.44 207.69 109.01 207.32 108.79 C 207.01 103.79 207.19 98.77 207.33 93.77 Z" />
<path fill="#104154" opacity="1.00" d=" M 253.60 94.63 C 253.86 94.39 254.38 93.89 254.64 93.65 C 254.90 98.13 254.83 102.62 254.82 107.10 C 255.05 108.28 254.34 109.23 253.63 110.06 C 253.39 104.93 253.19 99.74 253.60 94.63 Z" />
<path fill="#104154" opacity="1.00" d=" M 292.68 102.07 C 293.06 99.26 291.68 95.83 293.77 93.51 C 294.17 98.94 294.05 104.40 293.86 109.83 C 291.62 107.91 293.09 104.60 292.68 102.07 Z" />
<path fill="#104154" opacity="1.00" d=" M 313.09 94.79 C 314.51 94.52 315.94 94.28 317.39 94.14 C 316.05 95.31 314.56 96.35 313.56 97.85 C 314.88 98.23 316.68 98.00 317.26 99.58 C 316.44 99.65 314.82 99.81 314.00 99.89 C 313.98 102.95 313.99 106.01 314.06 109.08 C 313.65 109.22 312.83 109.49 312.42 109.63 C 312.42 106.57 312.41 103.51 312.50 100.45 C 311.98 100.13 310.93 99.47 310.41 99.15 C 312.04 98.19 312.78 96.59 313.09 94.79 Z" />
<path fill="#104154" opacity="1.00" d=" M 413.68 99.98 C 414.03 97.89 412.61 94.70 415.18 93.64 C 415.35 99.09 415.48 104.57 415.07 110.01 C 412.37 107.41 414.20 103.27 413.68 99.98 Z" />
<path fill="#104154" opacity="1.00" d=" M 447.81 95.80 C 448.06 95.31 448.57 94.33 448.83 93.84 C 450.25 93.35 451.30 95.40 450.32 96.41 C 449.27 97.12 448.44 96.92 447.81 95.80 Z" />
<path fill="#104154" opacity="1.00" d=" M 509.40 94.24 C 509.74 94.22 510.44 94.17 510.79 94.15 C 510.85 99.02 510.72 103.89 510.91 108.76 C 508.37 109.18 504.99 110.36 503.18 107.77 C 501.96 105.43 502.02 102.35 503.10 99.96 C 504.50 97.75 507.35 98.19 509.51 98.72 C 509.46 97.23 509.42 95.73 509.40 94.24 M 505.31 100.02 C 502.95 101.88 503.08 106.79 506.02 108.06 C 511.10 108.85 510.35 97.46 505.31 100.02 Z" />
<path fill="#104154" opacity="1.00" d=" M 263.55 94.77 C 264.15 95.76 264.57 96.83 264.88 97.95 C 265.52 98.27 266.79 98.92 267.42 99.24 C 266.71 99.38 265.29 99.67 264.58 99.82 C 264.58 102.28 264.58 104.74 264.57 107.20 C 265.38 107.57 267.00 108.31 267.81 108.68 C 266.34 109.44 264.76 109.01 263.24 108.73 C 262.99 105.80 262.97 102.87 262.96 99.94 C 262.55 99.73 261.73 99.32 261.32 99.12 C 262.43 97.87 263.47 96.53 263.55 94.77 Z" />
<path fill="#104154" opacity="1.00" d=" M 342.81 94.70 C 343.17 95.85 343.51 97.01 343.89 98.16 C 344.49 98.18 345.70 98.20 346.30 98.22 L 346.27 99.57 C 345.59 99.57 344.23 99.57 343.55 99.57 C 343.52 102.26 343.52 104.96 343.99 107.62 C 344.74 107.86 346.24 108.34 346.99 108.59 C 345.60 109.48 343.92 109.36 342.55 108.50 C 341.84 105.69 342.27 102.73 342.22 99.87 C 341.44 99.58 340.68 99.26 339.94 98.90 C 341.85 98.33 342.60 96.53 342.81 94.70 Z" />
<path fill="#104154" opacity="1.00" d=" M 371.55 94.70 C 371.92 95.86 372.26 97.02 372.60 98.18 C 373.20 98.19 374.42 98.19 375.02 98.20 C 375.01 98.55 374.97 99.25 374.95 99.60 C 374.29 99.59 372.96 99.57 372.29 99.56 C 372.30 102.12 372.31 104.67 372.41 107.23 C 373.73 107.54 374.74 108.28 375.46 109.44 C 374.07 109.30 372.71 109.03 371.37 108.64 C 370.59 105.84 371.13 102.85 370.97 99.97 C 370.27 99.60 369.58 99.21 368.91 98.81 C 369.38 98.58 370.32 98.12 370.80 97.88 C 370.98 97.09 371.36 95.50 371.55 94.70 Z" />
<path fill="#104154" opacity="1.00" d=" M 440.05 98.58 C 440.91 97.40 441.58 96.11 442.05 94.72 C 442.31 95.50 442.84 97.06 443.10 97.84 C 444.17 98.20 445.27 98.59 446.15 99.33 C 445.31 99.42 443.63 99.58 442.79 99.66 C 442.77 102.30 442.79 104.94 443.05 107.57 C 443.85 107.86 445.45 108.43 446.25 108.71 C 444.73 109.33 442.89 109.54 441.55 108.36 C 440.62 105.16 442.05 101.48 440.05 98.58 Z" />
<path fill="#104154" opacity="1.00" d=" M 223.38 98.53 C 225.46 97.56 228.35 98.51 229.40 100.59 C 230.60 103.87 230.12 109.01 225.82 109.52 C 220.27 109.99 219.31 101.06 223.38 98.53 M 223.26 100.42 C 221.89 102.97 221.93 108.42 225.97 108.07 C 230.76 106.85 228.31 96.59 223.26 100.42 Z" />
<path fill="#104154" opacity="1.00" d=" M 231.58 97.37 C 234.12 99.81 234.24 103.57 235.84 106.55 C 237.34 103.67 237.05 99.51 240.09 97.70 C 239.31 101.97 237.68 106.04 236.01 110.03 C 233.33 106.40 232.16 101.78 231.58 97.37 Z" />
<path fill="#104154" opacity="1.00" d=" M 242.19 106.93 C 240.86 103.78 241.66 97.93 246.04 98.15 C 249.61 97.59 250.49 101.55 250.66 104.24 C 248.08 104.30 245.50 104.31 242.93 104.40 C 243.51 105.85 243.96 108.28 246.05 108.10 C 247.70 108.08 248.81 106.72 250.10 105.90 C 250.11 110.15 243.48 110.68 242.19 106.93 M 243.05 103.20 C 245.11 103.20 247.18 103.20 249.24 103.18 C 248.80 102.04 248.36 100.90 247.91 99.77 C 245.31 99.21 243.17 100.38 243.05 103.20 Z" />
<path fill="#104154" opacity="1.00" d=" M 269.29 101.32 C 270.45 99.79 271.65 97.53 273.99 98.22 C 279.60 98.40 279.85 108.58 274.44 109.42 C 272.33 110.16 270.21 108.47 269.62 106.50 C 269.33 104.79 269.39 103.04 269.29 101.32 M 272.20 100.03 C 269.91 102.07 270.14 106.73 273.05 108.16 C 278.62 108.85 277.78 97.26 272.20 100.03 Z" />
<path fill="#104154" opacity="1.00" d=" M 281.83 99.85 C 283.74 96.66 288.39 98.38 289.70 101.26 C 289.67 104.25 290.05 108.59 286.21 109.36 C 281.03 110.81 279.33 103.17 281.83 99.85 M 283.18 100.26 C 281.39 102.85 281.81 108.70 286.04 108.08 C 290.30 106.28 288.20 97.07 283.18 100.26 Z" />
<path fill="#104154" opacity="1.00" d=" M 296.55 102.13 C 297.50 100.77 297.74 98.25 299.84 98.23 C 302.07 97.74 305.40 99.10 304.67 101.87 C 303.05 100.53 299.62 97.95 298.55 101.11 C 299.94 103.58 304.07 103.17 305.40 106.09 C 304.38 107.68 303.32 109.89 301.03 109.52 C 298.63 109.67 296.98 107.89 296.66 105.63 C 298.39 106.42 299.79 108.53 301.92 107.98 C 302.43 107.50 303.44 106.53 303.95 106.05 C 301.44 104.83 298.78 103.85 296.55 102.13 Z" />
<path fill="#104154" opacity="1.00" d=" M 317.90 100.98 C 319.14 99.47 320.54 97.48 322.82 98.24 C 327.78 99.04 327.68 105.88 324.96 109.01 C 323.12 109.17 320.92 110.24 319.46 108.56 C 317.30 106.66 318.19 103.50 317.90 100.98 M 320.34 100.27 C 318.35 102.69 318.85 108.56 322.92 108.07 C 327.36 106.62 325.31 97.02 320.34 100.27 Z" />
<path fill="#104154" opacity="1.00" d=" M 329.89 97.50 C 330.23 97.97 330.91 98.90 331.24 99.36 C 332.75 98.17 334.59 97.94 336.12 99.19 C 334.47 99.78 332.23 99.86 331.47 101.74 C 330.65 104.19 331.08 106.83 330.98 109.37 L 329.70 109.24 C 329.67 105.33 329.61 101.41 329.89 97.50 Z" />
<path fill="#104154" opacity="1.00" d=" M 348.98 106.99 C 347.47 103.80 348.50 97.73 353.00 98.15 C 356.56 97.74 357.17 101.65 357.47 104.28 C 354.86 104.30 352.25 104.29 349.65 104.35 C 350.28 105.59 350.35 107.59 351.99 108.01 C 353.96 108.48 355.42 106.87 356.98 106.00 C 356.66 110.08 350.38 110.68 348.98 106.99 M 349.64 103.16 C 351.77 103.19 353.89 103.19 356.03 103.17 C 355.39 101.70 355.07 99.64 353.05 99.62 C 350.87 99.21 350.20 101.62 349.64 103.16 Z" />
<path fill="#104154" opacity="1.00" d=" M 361.32 103.60 C 358.21 102.58 360.14 97.87 362.98 98.20 C 365.58 97.66 367.40 99.66 367.83 102.03 C 365.63 100.44 362.82 98.24 360.54 101.18 C 362.90 102.88 366.12 103.28 367.85 105.80 C 367.41 106.81 366.98 107.83 366.57 108.86 C 363.68 110.22 359.72 109.31 359.31 105.70 C 361.40 106.92 363.88 109.50 366.08 106.96 C 365.95 104.53 362.92 104.71 361.32 103.60 Z" />
<path fill="#104154" opacity="1.00" d=" M 383.78 98.66 C 385.53 97.84 388.05 97.81 389.39 99.42 C 390.59 100.73 390.42 102.65 390.74 104.28 C 388.12 104.30 385.51 104.30 382.91 104.40 C 383.42 106.45 384.67 108.05 386.84 108.37 C 387.96 107.54 389.08 106.72 390.25 105.95 C 390.02 110.24 383.41 110.67 382.22 106.77 C 381.77 104.07 381.40 100.62 383.78 98.66 M 382.97 103.18 C 385.09 103.19 387.22 103.19 389.36 103.16 C 388.80 101.66 388.09 99.10 385.93 99.66 C 383.88 99.53 383.69 101.83 382.97 103.18 Z" />
<path fill="#104154" opacity="1.00" d=" M 392.25 98.32 L 393.12 97.93 C 394.98 100.63 395.44 103.98 396.40 107.05 C 398.11 104.09 397.59 99.42 400.95 97.71 C 400.12 101.95 398.43 105.94 396.95 109.97 C 394.16 106.77 393.42 102.30 392.25 98.32 Z" />
<path fill="#104154" opacity="1.00" d=" M 402.84 101.77 C 402.87 100.22 403.90 99.07 404.87 97.97 C 406.86 98.29 409.89 97.87 410.54 100.42 C 411.10 103.31 410.73 106.28 410.82 109.20 C 408.00 109.02 403.06 110.65 402.18 106.82 C 401.70 102.66 406.67 102.65 409.53 102.49 C 409.23 100.57 407.87 99.69 406.09 99.34 C 405.02 100.17 403.95 100.99 402.84 101.77 M 404.41 107.65 C 407.21 109.32 409.59 106.63 409.47 103.86 C 407.22 103.59 402.31 104.39 404.41 107.65 Z" />
<path fill="#104154" opacity="1.00" d=" M 418.36 102.99 C 418.53 101.17 417.84 98.84 419.63 97.62 C 419.96 100.64 419.41 103.79 420.31 106.73 C 421.18 108.80 424.84 108.26 424.95 105.94 C 425.38 103.39 425.18 100.79 425.23 98.23 C 425.57 98.23 426.24 98.24 426.58 98.25 C 426.58 101.89 426.56 105.54 426.58 109.18 C 424.23 109.03 421.50 110.20 419.49 108.56 C 418.00 107.11 418.51 104.84 418.36 102.99 Z" />
<path fill="#104154" opacity="1.00" d=" M 429.84 101.78 C 429.30 97.41 436.40 96.74 437.52 100.48 C 438.05 103.23 437.76 106.07 437.86 108.86 C 435.33 109.04 432.59 110.00 430.19 108.73 C 428.95 107.96 429.06 106.38 429.30 105.14 C 430.56 102.24 434.24 102.86 436.80 102.34 C 436.06 100.78 434.74 99.82 433.15 99.28 C 432.05 100.13 430.97 100.98 429.84 101.78 M 431.36 107.58 C 434.12 109.42 436.63 106.63 436.45 103.85 C 434.27 103.58 429.29 104.43 431.36 107.58 Z" />
<path fill="#104154" opacity="1.00" d=" M 448.61 98.70 C 448.91 98.44 449.51 97.92 449.81 97.66 C 449.98 101.37 450.27 105.13 449.81 108.82 L 448.59 109.80 C 448.43 106.11 448.15 102.37 448.61 98.70 Z" />
<path fill="#104154" opacity="1.00" d=" M 455.38 98.54 C 457.89 97.30 460.62 98.96 461.93 101.15 C 461.84 103.67 462.03 106.32 460.62 108.54 C 459.39 108.96 458.17 109.39 456.96 109.84 C 452.24 108.48 451.68 101.24 455.38 98.54 M 456.19 100.00 C 453.35 101.73 453.88 108.38 457.92 108.09 C 462.31 107.19 460.96 97.73 456.19 100.00 Z" />
<path fill="#104154" opacity="1.00" d=" M 464.95 98.28 C 467.57 98.97 471.27 96.99 472.80 100.07 C 473.25 103.39 473.10 106.78 472.62 110.08 C 470.80 107.01 472.23 103.18 471.05 99.87 C 469.66 99.86 468.29 99.88 466.92 99.91 C 465.91 103.24 467.06 106.97 465.40 110.10 C 464.73 106.19 465.08 102.22 464.95 98.28 Z" />
<path fill="#104154" opacity="1.00" d=" M 480.63 101.39 C 479.61 97.83 486.78 96.71 487.95 100.06 C 488.67 103.14 488.20 106.35 488.30 109.48 C 485.78 108.34 483.02 110.15 480.46 108.75 C 480.14 107.85 479.82 106.94 479.49 106.04 C 480.40 102.63 484.14 102.60 487.02 102.64 C 486.71 101.68 486.40 100.71 486.09 99.75 C 484.04 99.35 482.33 100.47 480.63 101.39 M 481.51 106.12 C 481.17 107.95 483.69 108.63 485.03 107.90 C 486.65 107.27 486.73 105.25 487.32 103.89 C 485.28 104.23 482.01 103.29 481.51 106.12 Z" />
<path fill="#104154" opacity="1.00" d=" M 491.39 98.36 C 493.97 98.95 497.61 96.99 499.16 99.95 C 500.06 103.19 499.48 106.67 499.40 109.99 C 496.33 107.37 500.34 101.34 495.95 99.69 C 490.21 99.85 494.80 107.36 491.60 110.00 C 491.31 106.12 491.46 102.24 491.39 98.36 Z" />
<path fill="#104154" opacity="1.00" d=" M 75.43 105.69 C 81.02 103.17 88.17 105.38 91.23 110.73 C 94.26 115.57 93.27 122.24 89.25 126.23 C 86.28 129.26 84.97 133.81 86.21 137.92 C 87.18 141.79 90.91 144.05 92.26 147.73 C 94.15 152.79 92.43 158.98 88.05 162.20 C 84.73 164.99 80.07 163.83 76.11 163.83 C 68.01 161.49 65.27 150.06 70.92 143.99 C 73.96 140.85 76.17 136.35 74.83 131.92 C 73.99 127.25 69.01 124.79 68.23 120.12 C 66.88 114.41 69.88 107.87 75.43 105.69 Z" />
<path fill="#104154" opacity="1.00" d=" M 17.27 113.17 C 20.12 111.07 24.93 113.45 24.63 117.07 C 25.16 120.98 19.90 123.52 17.03 120.98 C 14.35 119.22 14.62 114.81 17.27 113.17 Z" />
<path fill="#104154" opacity="1.00" d=" M 138.39 113.25 C 141.18 111.05 146.14 113.34 145.85 116.98 C 146.47 120.71 141.75 123.29 138.75 121.33 C 135.76 119.78 135.57 115.05 138.39 113.25 Z" />
<path fill="#104154" opacity="1.00" d=" M 213.57 120.38 C 213.91 120.10 214.58 119.52 214.91 119.24 C 215.08 124.39 214.94 129.54 215.04 134.69 C 212.43 134.49 208.78 135.83 207.25 132.94 C 206.02 130.13 206.49 126.73 208.11 124.15 C 210.06 123.69 212.05 123.63 213.89 124.57 C 213.77 123.17 213.67 121.78 213.57 120.38 M 210.12 125.25 C 207.16 126.64 207.21 131.84 209.97 133.46 C 214.89 134.91 214.95 123.95 210.12 125.25 Z" />
<path fill="#104154" opacity="1.00" d=" M 218.16 120.12 C 219.14 118.69 221.70 120.26 220.54 121.72 C 219.56 123.20 217.01 121.58 218.16 120.12 Z" />
<path fill="#104154" opacity="1.00" d=" M 332.28 119.78 C 332.64 119.79 333.36 119.83 333.72 119.85 C 333.97 124.83 333.74 129.83 333.79 134.82 C 333.40 134.82 332.61 134.83 332.22 134.84 C 332.25 129.82 332.03 124.79 332.28 119.78 Z" />
<path fill="#104154" opacity="1.00" d=" M 415.09 120.10 C 416.08 118.62 418.53 120.30 417.39 121.74 C 416.41 123.27 413.91 121.53 415.09 120.10 Z" />
<path fill="#104154" opacity="1.00" d=" M 456.12 120.14 C 457.11 118.72 459.65 120.30 458.50 121.75 C 457.51 123.21 454.95 121.60 456.12 120.14 Z" />
<path fill="#104154" opacity="1.00" d=" M 408.84 120.65 C 409.35 121.52 409.79 122.43 410.16 123.38 C 411.21 123.78 412.27 124.18 413.33 124.60 C 412.44 124.74 410.67 125.02 409.79 125.16 C 409.79 127.78 409.81 130.40 409.93 133.02 C 410.75 133.24 412.40 133.68 413.23 133.91 C 411.57 135.57 407.92 134.81 408.25 132.06 C 407.55 129.66 409.66 125.50 406.50 124.63 C 407.67 123.56 408.33 122.14 408.84 120.65 Z" />
<path fill="#104154" opacity="1.00" d=" M 449.23 123.30 C 449.42 122.30 449.82 121.40 450.43 120.60 C 450.57 121.36 450.84 122.87 450.98 123.62 C 451.85 123.76 453.58 124.04 454.44 124.17 C 453.23 124.57 452.01 124.94 450.79 125.29 C 450.77 127.90 450.80 130.50 451.05 133.10 C 451.82 133.26 453.37 133.59 454.14 133.76 C 453.09 135.28 450.55 135.00 449.58 133.62 C 449.19 130.89 449.61 128.12 449.34 125.38 C 448.81 125.16 447.74 124.71 447.21 124.48 C 447.90 124.11 448.57 123.72 449.23 123.30 Z" />
<path fill="#104154" opacity="1.00" d=" M 224.20 124.12 C 227.09 123.19 231.08 123.86 231.29 127.59 C 230.06 127.03 229.04 126.22 228.22 125.14 C 226.61 125.09 225.07 125.47 224.09 126.88 C 226.16 128.75 230.92 128.53 230.97 131.96 C 230.50 136.71 222.01 135.62 223.11 130.76 C 224.75 132.73 228.09 135.36 229.73 131.81 C 228.09 130.02 225.41 129.88 223.61 128.32 C 222.66 126.95 223.84 125.47 224.20 124.12 Z" />
<path fill="#104154" opacity="1.00" d=" M 234.57 133.58 C 231.96 130.35 233.18 122.85 238.40 123.68 C 241.66 123.67 242.16 127.30 242.15 129.80 C 239.59 129.81 237.03 129.80 234.48 129.85 C 235.13 131.19 235.44 132.99 237.04 133.59 C 238.93 133.60 240.48 132.36 242.18 131.71 C 241.57 132.67 240.97 133.63 240.38 134.60 C 238.45 134.72 235.86 135.52 234.57 133.58 M 234.53 128.66 C 236.67 128.70 238.81 128.68 240.95 128.62 C 240.25 127.20 239.78 125.23 237.91 125.00 C 235.84 124.97 235.17 127.12 234.53 128.66 Z" />
<path fill="#104154" opacity="1.00" d=" M 244.45 127.24 C 244.90 123.37 250.45 122.31 252.43 125.43 C 253.21 128.43 252.67 131.62 252.83 134.70 C 250.20 134.43 247.25 135.58 244.90 133.98 C 243.54 132.26 244.26 129.32 246.42 128.64 C 248.09 128.16 249.85 128.19 251.57 128.00 C 250.88 126.85 250.63 125.03 248.94 125.05 C 247.21 125.06 245.95 126.59 244.45 127.24 M 248.43 129.57 C 247.40 129.82 246.53 130.34 245.80 131.14 C 245.60 134.69 251.20 134.11 251.36 130.95 C 251.31 129.17 249.69 129.42 248.43 129.57 Z" />
<path fill="#104154" opacity="1.00" d=" M 256.26 124.24 C 259.05 123.08 263.78 123.78 263.11 127.77 C 262.00 126.86 261.00 125.81 259.77 125.07 C 258.61 125.29 257.47 125.58 256.35 125.94 C 257.61 128.53 260.84 128.55 262.80 130.32 C 263.82 131.57 262.49 133.14 262.37 134.51 C 259.29 135.58 255.11 134.87 255.04 130.89 C 256.88 132.37 260.30 135.52 261.69 131.93 C 260.74 129.64 257.14 130.15 255.76 128.11 C 254.73 126.88 255.97 125.49 256.26 124.24 Z" />
<path fill="#104154" opacity="1.00" d=" M 281.72 123.62 C 283.87 124.97 286.51 122.74 288.54 124.58 C 290.66 126.60 290.22 130.00 289.69 132.60 C 288.55 135.33 285.26 135.25 282.96 134.20 C 282.98 135.81 282.99 137.41 283.01 139.01 L 281.70 139.01 C 281.70 133.88 281.67 128.75 281.72 123.62 M 284.20 125.75 C 282.70 127.94 282.39 132.63 285.46 133.58 C 290.75 133.89 289.30 122.45 284.20 125.75 Z" />
<path fill="#104154" opacity="1.00" d=" M 293.10 124.28 C 295.24 124.31 297.69 123.11 299.47 124.87 C 298.02 125.29 296.56 125.68 295.10 126.08 C 293.86 128.99 295.92 133.19 293.33 135.33 C 293.12 131.65 293.23 127.96 293.10 124.28 Z" />
<path fill="#104154" opacity="1.00" d=" M 310.60 124.11 C 310.93 123.93 311.61 123.57 311.94 123.39 C 313.08 126.41 314.04 129.50 315.04 132.57 C 316.37 129.43 316.35 125.39 319.22 123.09 C 318.84 127.19 317.16 131.02 315.65 134.80 C 315.35 134.82 314.75 134.86 314.45 134.88 C 312.91 131.39 311.88 127.70 310.60 124.11 Z" />
<path fill="#104154" opacity="1.00" d=" M 337.58 125.49 C 338.65 123.20 341.74 123.32 343.69 124.27 C 345.39 125.51 345.25 127.86 345.76 129.70 C 343.09 129.80 340.42 129.81 337.75 129.96 C 338.47 131.13 338.73 132.76 340.05 133.46 C 342.07 133.92 343.70 132.36 345.47 131.73 C 344.68 133.56 343.15 135.28 340.95 134.96 C 336.36 134.89 335.68 128.61 337.58 125.49 M 337.91 128.61 C 340.06 128.67 342.20 128.71 344.36 128.68 C 343.61 127.31 343.10 124.81 341.02 125.12 C 338.96 124.82 338.61 127.26 337.91 128.61 Z" />
<path fill="#104154" opacity="1.00" d=" M 348.36 124.26 C 350.82 123.98 353.32 123.52 355.76 124.25 C 356.82 127.06 356.70 130.09 356.58 133.04 C 356.64 134.04 356.24 134.83 355.37 135.38 C 355.12 132.61 355.42 129.79 354.89 127.05 C 354.52 124.95 351.34 124.47 350.39 126.38 C 349.34 129.06 349.93 132.05 349.78 134.86 C 349.44 134.84 348.76 134.79 348.42 134.76 C 348.43 131.26 348.44 127.76 348.36 124.26 Z" />
<path fill="#104154" opacity="1.00" d=" M 361.26 123.93 C 363.02 123.89 365.06 123.25 366.60 124.44 C 367.74 125.29 367.77 126.87 368.22 128.10 C 366.57 126.95 365.24 124.70 362.93 125.14 C 360.07 126.82 360.09 131.98 363.02 133.59 C 365.19 133.83 366.56 131.83 368.24 130.82 C 368.04 134.08 364.99 135.96 361.94 134.83 C 358.30 132.36 358.92 127.10 361.26 123.93 Z" />
<path fill="#104154" opacity="1.00" d=" M 372.34 124.19 C 374.31 123.18 377.18 123.47 378.41 125.51 C 379.07 126.82 378.92 128.37 379.15 129.80 C 376.58 129.81 374.01 129.80 371.45 129.85 C 371.73 130.51 372.31 131.82 372.60 132.48 C 374.36 134.92 377.06 132.44 379.08 131.72 C 378.52 132.65 377.98 133.60 377.46 134.55 C 375.28 134.86 372.28 135.47 371.12 133.00 C 369.81 130.27 369.81 126.26 372.34 124.19 M 371.45 128.63 C 373.57 128.67 375.69 128.70 377.82 128.63 C 377.24 127.06 376.32 124.32 374.09 125.19 C 372.35 125.42 372.19 127.43 371.45 128.63 Z" />
<path fill="#104154" opacity="1.00" d=" M 386.69 125.60 C 387.89 123.20 391.34 123.14 393.30 124.58 C 394.67 125.94 394.46 128.01 394.75 129.77 C 392.21 129.80 389.68 129.80 387.15 129.82 C 387.56 131.85 388.57 133.46 390.75 133.79 C 392.02 132.99 393.34 132.26 394.74 131.70 C 393.66 134.85 390.41 135.43 387.54 134.53 C 385.80 131.95 385.26 128.42 386.69 125.60 M 387.13 128.62 C 389.25 128.68 391.39 128.69 393.53 128.65 C 392.82 127.13 392.16 125.01 390.12 125.00 C 388.23 125.21 387.71 127.15 387.13 128.62 Z" />
<path fill="#104154" opacity="1.00" d=" M 398.32 124.13 C 401.17 123.14 405.11 123.94 405.27 127.59 C 403.56 126.23 399.58 123.24 398.62 126.88 C 400.14 129.18 405.12 128.50 404.94 131.93 C 404.56 136.75 395.99 135.62 397.08 130.73 C 398.59 132.19 400.67 134.80 402.94 133.00 C 404.59 131.36 402.07 130.52 400.91 130.08 C 399.19 129.53 397.72 128.50 396.70 127.01 C 397.24 126.05 397.78 125.09 398.32 124.13 Z" />
<path fill="#104154" opacity="1.00" d=" M 415.51 123.47 C 415.88 123.58 416.62 123.80 416.99 123.91 C 416.94 127.59 417.25 131.30 416.75 134.96 L 415.72 135.08 C 415.06 131.25 415.51 127.33 415.51 123.47 Z" />
<path fill="#104154" opacity="1.00" d=" M 420.75 123.31 C 421.15 123.55 421.95 124.03 422.35 124.28 C 424.26 123.40 426.20 123.93 428.00 124.76 C 429.98 123.77 433.29 122.84 434.53 125.37 C 435.14 128.49 434.72 131.71 434.77 134.87 C 434.43 134.84 433.76 134.78 433.42 134.74 C 433.40 132.19 433.60 129.62 433.23 127.09 C 433.21 124.53 428.72 124.52 428.65 127.02 C 428.04 129.81 428.40 132.69 428.13 135.51 C 425.44 132.54 428.75 127.44 425.09 124.88 C 424.44 125.09 423.16 125.50 422.51 125.70 C 421.88 128.89 421.99 132.16 421.82 135.39 C 421.51 135.14 420.89 134.65 420.58 134.40 C 420.21 130.72 420.30 126.98 420.75 123.31 Z" />
<path fill="#104154" opacity="1.00" d=" M 437.46 127.25 C 437.96 123.44 443.46 122.21 445.43 125.44 C 446.24 128.38 445.65 131.56 445.86 134.59 C 443.02 134.31 437.55 136.36 437.38 131.99 C 437.07 128.05 442.02 128.08 444.73 128.01 C 444.08 126.37 443.04 125.08 441.21 124.89 C 440.03 125.79 438.80 126.64 437.46 127.25 M 439.15 132.93 C 441.83 134.88 444.63 132.40 444.80 129.54 C 442.51 129.40 438.12 129.41 439.15 132.93 Z" />
<path fill="#104154" opacity="1.00" d=" M 457.24 122.93 C 458.69 126.94 457.89 131.35 457.75 135.51 C 457.04 134.82 456.69 134.00 456.70 133.04 C 456.65 129.67 456.40 126.23 457.24 122.93 Z" />
<path fill="#104154" opacity="1.00" d=" M 463.07 123.89 C 465.01 123.77 467.40 123.43 468.85 125.07 C 470.93 127.79 470.21 131.72 468.49 134.45 C 466.63 134.63 464.28 135.69 462.80 134.04 C 460.08 131.29 460.88 126.73 463.07 123.89 M 465.26 125.09 C 461.99 125.73 462.95 129.67 462.73 132.06 C 464.15 133.17 466.06 134.40 467.66 132.75 C 469.14 130.37 469.15 124.95 465.26 125.09 Z" />
<path fill="#104154" opacity="1.00" d=" M 218.64 129.00 C 218.84 127.05 218.07 124.64 219.84 123.20 C 220.09 127.30 220.13 131.42 219.75 135.51 C 218.04 133.76 218.84 131.17 218.64 129.00 Z" />
<path fill="#104154" opacity="1.00" d=" M 266.22 132.72 C 265.11 129.89 265.09 125.73 268.00 123.95 C 269.49 123.55 271.33 123.38 272.62 124.41 C 274.35 125.58 274.15 127.91 274.59 129.72 C 271.93 129.81 269.28 129.80 266.63 129.86 C 267.27 131.98 268.44 133.74 270.88 133.68 C 271.94 132.89 273.07 132.21 274.26 131.63 C 273.73 132.64 273.19 133.64 272.63 134.64 C 270.37 134.89 267.25 135.40 266.22 132.72 M 266.67 128.66 C 268.81 128.69 270.95 128.68 273.09 128.62 C 272.69 127.82 271.88 126.22 271.48 125.42 C 268.98 124.10 267.28 126.49 266.67 128.66 Z" />
<path fill="#104154" opacity="1.00" d=" M 302.25 124.16 C 304.10 123.36 306.65 123.32 308.02 125.03 C 309.06 126.39 308.87 128.21 309.17 129.80 C 306.60 129.81 304.03 129.80 301.46 129.85 C 302.00 131.28 302.36 133.01 304.02 133.56 C 305.88 133.60 307.42 132.33 309.11 131.71 C 308.53 132.66 307.96 133.60 307.39 134.55 C 305.20 134.90 302.20 135.43 301.07 132.94 C 299.83 130.20 299.88 126.32 302.25 124.16 M 301.13 128.36 C 303.32 128.72 305.54 128.72 307.76 128.66 C 307.36 127.65 306.96 126.64 306.54 125.63 C 305.90 125.43 304.61 125.03 303.97 124.83 C 302.96 125.96 302.01 127.14 301.13 128.36 Z" />
<path fill="#104154" opacity="1.00" d=" M 320.84 127.07 C 321.68 123.72 325.67 122.58 328.37 124.59 C 330.03 127.73 329.08 131.45 329.30 134.85 C 326.63 134.03 323.50 135.87 321.19 133.83 C 320.31 132.40 321.01 130.75 321.26 129.26 C 323.41 128.40 325.70 128.12 328.00 128.03 C 327.30 126.92 326.79 124.58 325.01 125.10 C 323.55 125.62 322.25 126.47 320.84 127.07 M 322.44 131.46 C 322.02 133.17 324.23 134.08 325.58 133.44 C 327.67 133.35 327.32 130.83 327.96 129.44 C 326.15 129.93 322.88 128.84 322.44 131.46 Z" />
<path fill="#104154" opacity="1.00" d=" M 472.96 123.87 C 475.65 124.27 479.80 122.53 481.01 125.97 C 481.61 128.86 481.23 131.85 481.31 134.79 C 480.90 134.79 480.09 134.79 479.69 134.79 C 479.27 131.66 480.93 127.46 478.06 125.24 C 477.27 125.35 475.69 125.56 474.90 125.66 C 474.52 128.57 474.71 131.51 474.42 134.43 C 474.11 134.66 473.48 135.12 473.16 135.35 C 472.92 131.53 473.02 127.69 472.96 123.87 Z" />
<path fill="#104154" opacity="1.00" d=" M 42.38 137.37 C 46.85 134.31 53.61 138.63 52.51 144.00 C 52.08 148.74 46.09 151.47 42.22 148.74 C 38.14 146.33 38.19 139.66 42.38 137.37 Z" />
<path fill="#104154" opacity="1.00" d=" M 111.38 137.41 C 115.50 134.56 121.73 137.98 121.62 142.94 C 121.98 147.79 116.12 151.52 111.89 149.07 C 107.30 147.03 107.03 139.86 111.38 137.41 Z" />
</g>
<g id="#ff4338ff">
<path fill="#ff4338" opacity="1.00" d=" M 41.48 35.63 C 47.07 33.56 54.06 35.81 56.85 41.22 C 59.66 46.12 58.56 52.56 54.56 56.47 C 50.27 60.75 50.03 68.30 54.24 72.72 C 57.37 75.89 59.27 80.49 58.13 84.95 C 57.59 88.27 55.04 90.60 53.17 93.20 C 49.96 97.74 50.76 104.40 54.70 108.26 C 58.33 111.87 59.54 117.67 57.34 122.35 C 54.95 128.12 47.77 131.18 41.93 129.05 C 35.84 127.19 32.09 120.15 33.83 114.03 C 34.65 109.73 39.04 107.37 40.14 103.18 C 41.64 98.89 40.03 94.14 36.94 90.98 C 33.92 87.86 32.71 83.23 33.85 79.03 C 34.85 74.57 39.51 72.08 40.36 67.54 C 41.73 62.87 39.21 58.30 36.09 54.99 C 30.81 48.86 33.83 38.20 41.48 35.63 Z" />
<path fill="#ff4338" opacity="1.00" d=" M 110.40 35.66 C 116.19 33.49 123.52 35.94 126.16 41.70 C 128.75 46.56 127.44 52.72 123.60 56.52 C 119.30 60.78 119.10 68.28 123.25 72.71 C 126.41 75.87 128.33 80.43 127.21 84.91 C 126.63 89.33 122.27 91.77 120.90 95.85 C 119.28 100.10 120.66 104.99 123.75 108.21 C 127.02 111.55 128.47 116.62 126.86 121.10 C 124.95 127.88 116.67 131.57 110.26 128.80 C 102.72 126.06 99.88 115.42 105.29 109.40 C 108.16 106.32 110.50 102.27 109.60 97.90 C 109.13 92.72 103.57 90.02 102.79 84.97 C 101.84 81.03 103.04 76.76 105.81 73.83 C 108.72 70.73 110.60 66.37 109.44 62.10 C 108.62 57.68 104.09 55.25 103.02 50.95 C 101.03 44.92 104.48 37.87 110.40 35.66 Z" />
<path fill="#ff4338" opacity="1.00" d=" M 76.38 70.43 C 82.98 67.95 91.02 72.24 92.55 79.13 C 94.65 86.11 89.30 93.97 82.08 94.66 C 75.85 95.66 69.41 91.16 68.24 84.94 C 66.78 78.94 70.52 72.33 76.38 70.43 Z" />
</g>
</svg>
