<?xml version="1.0" encoding="UTF-8" ?>
<!DOCTYPE svg PUBLIC "-//W3C//DTD SVG 1.1//EN" "http://www.w3.org/Graphics/SVG/1.1/DTD/svg11.dtd">
<svg width="2058pt" height="366pt" viewBox="0 0 2058 366" version="1.1" xmlns="http://www.w3.org/2000/svg">
<g id="#ffffffff">
</g>
<g id="#000000ff">
<path fill="#000000" opacity="1.00" d=" M 1398.92 17.78 C 1401.12 16.09 1403.38 14.50 1405.60 12.81 C 1405.79 24.91 1405.21 37.00 1405.23 49.10 C 1404.95 49.70 1404.41 50.92 1404.13 51.52 C 1403.74 51.49 1402.95 51.42 1402.55 51.39 L 1402.46 52.31 C 1401.19 52.69 1399.85 53.05 1399.12 54.23 C 1397.18 55.53 1395.21 56.75 1393.24 57.97 C 1393.13 60.48 1394.23 62.70 1395.34 64.88 C 1398.94 73.93 1401.20 83.40 1403.20 92.91 C 1403.42 95.27 1403.56 97.66 1404.16 99.98 C 1404.43 102.64 1404.54 105.33 1405.15 107.95 C 1405.57 115.31 1405.65 122.68 1405.17 130.03 C 1403.81 138.39 1402.99 146.93 1399.80 154.86 C 1399.30 156.26 1398.80 157.66 1398.33 159.07 C 1396.78 162.37 1395.43 165.79 1393.49 168.89 L 1393.64 169.57 L 1392.52 169.70 C 1392.55 170.05 1392.60 170.73 1392.63 171.07 C 1392.29 171.56 1391.61 172.55 1391.27 173.04 C 1390.41 174.34 1389.55 175.63 1388.69 176.92 C 1387.92 177.98 1387.14 179.04 1386.42 180.11 C 1385.05 181.83 1383.60 183.47 1382.12 185.08 C 1381.44 185.77 1380.78 186.47 1380.13 187.16 C 1378.42 188.75 1376.79 190.43 1374.86 191.74 C 1374.40 192.21 1373.48 193.13 1373.02 193.60 C 1372.67 193.52 1371.96 193.38 1371.60 193.30 L 1371.48 194.78 C 1371.02 194.68 1370.09 194.47 1369.63 194.36 L 1369.66 195.61 L 1368.45 195.46 L 1368.31 196.66 C 1367.85 196.52 1366.92 196.23 1366.46 196.08 L 1366.66 197.41 C 1365.23 197.47 1363.82 197.54 1362.43 197.61 L 1362.66 198.36 C 1361.07 198.56 1359.50 198.81 1358.02 199.31 C 1354.84 199.51 1351.66 199.43 1348.49 199.39 L 1348.49 198.82 C 1345.68 198.57 1343.01 197.69 1340.25 197.25 L 1340.59 196.69 C 1338.77 196.58 1337.19 195.79 1335.94 194.48 C 1335.60 194.57 1334.92 194.73 1334.58 194.81 L 1334.42 193.33 C 1334.07 193.40 1333.36 193.53 1333.01 193.60 C 1331.89 192.68 1330.77 191.80 1329.54 191.08 L 1329.54 190.28 C 1329.22 190.30 1328.57 190.32 1328.25 190.33 C 1326.25 188.16 1324.05 186.20 1321.92 184.18 C 1319.57 181.62 1316.99 179.25 1315.01 176.38 C 1314.25 176.28 1313.51 176.18 1312.79 176.08 C 1312.10 177.71 1311.43 179.34 1310.73 180.96 C 1310.49 181.45 1310.02 182.43 1309.78 182.92 C 1308.67 185.29 1307.42 187.60 1306.23 189.93 C 1304.88 192.29 1303.47 194.61 1302.13 196.98 C 1301.44 197.98 1300.81 199.01 1300.17 200.03 C 1298.75 202.01 1297.36 204.01 1295.99 206.01 C 1294.97 207.33 1293.99 208.68 1293.03 210.03 C 1292.15 210.82 1291.30 211.61 1290.45 212.40 C 1290.36 208.74 1290.33 205.09 1290.36 201.44 L 1289.67 201.55 C 1289.58 199.19 1289.42 196.83 1289.34 194.47 L 1288.70 194.54 C 1288.60 191.30 1287.85 188.16 1287.12 185.02 C 1286.36 182.68 1285.74 180.29 1285.21 177.90 C 1284.91 177.15 1284.33 175.65 1284.04 174.89 C 1281.50 178.16 1279.36 181.72 1276.77 184.94 C 1275.94 185.99 1275.12 187.04 1274.33 188.10 C 1270.59 192.67 1266.51 197.02 1261.87 200.68 C 1260.78 201.52 1259.74 202.41 1258.83 203.42 C 1258.61 203.43 1258.18 203.43 1257.96 203.44 C 1256.82 204.35 1255.65 205.19 1254.38 205.86 L 1254.40 206.84 C 1254.06 206.72 1253.40 206.48 1253.06 206.37 C 1251.76 207.10 1250.44 207.76 1249.13 208.41 C 1243.42 210.44 1237.28 209.49 1231.36 209.45 L 1231.64 208.84 C 1230.35 208.49 1229.09 208.08 1227.86 207.62 C 1227.55 207.64 1226.95 207.67 1226.65 207.69 L 1226.46 206.36 C 1226.08 206.42 1225.33 206.55 1224.95 206.61 C 1223.76 205.72 1222.49 204.95 1221.24 204.22 L 1221.42 203.21 C 1220.96 203.37 1220.03 203.69 1219.56 203.85 L 1219.58 202.93 C 1213.06 198.21 1207.99 191.80 1203.81 185.00 C 1202.89 183.32 1202.01 181.62 1201.23 179.88 C 1200.64 178.91 1200.05 177.95 1199.46 177.00 C 1199.54 176.63 1199.70 175.91 1199.78 175.55 L 1198.67 175.54 C 1198.60 174.79 1198.45 173.30 1198.38 172.55 L 1197.81 172.53 C 1197.49 171.26 1197.06 170.03 1196.51 168.84 C 1196.57 168.54 1196.70 167.93 1196.76 167.62 L 1195.85 167.54 C 1195.47 164.81 1194.68 162.17 1194.22 159.46 L 1193.67 159.48 C 1193.55 157.48 1193.40 155.47 1193.32 153.47 L 1192.63 153.51 C 1192.51 151.17 1192.37 148.83 1192.31 146.49 L 1191.64 146.52 C 1191.48 136.53 1191.43 126.53 1191.68 116.54 L 1192.33 116.51 C 1192.39 113.83 1192.54 111.16 1192.64 108.48 L 1193.32 108.56 C 1193.38 106.19 1193.54 103.83 1193.64 101.47 L 1194.33 101.56 C 1194.38 99.85 1194.50 98.14 1194.60 96.43 L 1195.33 96.52 C 1195.45 94.51 1195.60 92.50 1195.71 90.49 L 1196.24 90.58 C 1196.75 87.87 1197.54 85.23 1197.82 82.48 L 1198.23 82.57 C 1198.55 80.31 1199.23 78.12 1199.83 75.92 C 1200.18 74.62 1200.52 73.32 1200.87 72.01 C 1201.20 71.00 1201.52 69.99 1201.83 68.97 C 1202.31 67.21 1202.71 65.41 1203.55 63.76 C 1202.07 60.06 1198.58 57.76 1195.72 55.19 C 1195.38 54.98 1194.69 54.55 1194.35 54.34 L 1194.38 53.97 C 1192.88 52.79 1191.49 51.49 1190.15 50.15 C 1189.97 38.09 1190.49 26.05 1190.74 14.00 C 1193.77 15.26 1196.30 17.37 1198.89 19.33 C 1200.61 20.54 1202.37 21.70 1204.20 22.76 C 1204.47 23.02 1204.99 23.54 1205.26 23.80 C 1206.58 24.59 1208.00 25.25 1209.48 25.77 L 1209.35 26.28 C 1211.05 27.12 1212.78 27.93 1214.55 28.65 L 1214.59 29.63 C 1214.93 29.57 1215.62 29.44 1215.96 29.38 C 1217.59 30.65 1219.56 31.35 1221.59 31.72 L 1221.39 32.46 C 1222.21 32.48 1223.83 32.54 1224.65 32.56 L 1224.24 33.44 C 1224.91 33.55 1226.23 33.77 1226.90 33.88 C 1228.11 34.22 1229.35 34.53 1230.62 34.79 L 1230.40 35.39 C 1231.85 35.44 1233.31 35.48 1234.78 35.52 L 1234.18 36.32 C 1236.29 36.43 1238.40 36.58 1240.53 36.69 L 1240.46 37.31 C 1251.45 37.52 1262.44 37.39 1273.44 37.30 L 1273.50 36.71 C 1277.27 36.65 1281.03 36.38 1284.81 36.38 L 1284.22 35.64 C 1287.69 35.64 1291.17 35.43 1294.66 35.42 C 1294.63 35.25 1294.56 34.91 1294.52 34.74 C 1301.18 34.76 1307.83 34.28 1314.49 34.30 L 1314.50 33.71 C 1318.97 33.79 1323.43 33.51 1327.91 33.51 L 1327.26 32.68 C 1339.07 32.70 1350.88 32.72 1362.68 32.44 L 1362.41 31.68 C 1366.17 31.62 1369.84 30.76 1373.56 30.26 L 1373.36 29.46 C 1374.21 29.45 1375.89 29.43 1376.73 29.42 L 1376.37 28.62 C 1378.10 28.23 1379.83 27.78 1381.59 27.38 L 1381.55 26.35 C 1381.91 26.43 1382.63 26.58 1382.98 26.66 C 1384.58 25.43 1386.48 24.76 1388.44 24.29 L 1388.37 23.78 C 1390.12 22.94 1391.85 22.06 1393.64 21.24 L 1393.61 20.25 C 1394.07 20.39 1394.97 20.69 1395.43 20.84 L 1395.24 19.82 C 1396.46 19.17 1397.70 18.49 1398.92 17.78 M 1286.46 68.74 C 1282.77 69.51 1278.99 69.59 1275.24 69.56 L 1275.70 70.39 C 1272.95 70.46 1270.20 70.60 1267.47 70.65 L 1267.47 71.33 C 1264.64 71.52 1261.73 71.29 1259.03 72.23 C 1257.48 72.39 1255.97 72.51 1254.46 72.60 C 1254.52 73.30 1254.61 74.01 1254.72 74.72 C 1258.71 79.62 1261.96 85.07 1265.72 90.15 C 1266.39 91.15 1267.09 92.15 1267.78 93.16 C 1269.62 95.83 1271.39 98.56 1273.55 101.01 C 1273.54 101.32 1273.52 101.95 1273.50 102.27 L 1274.26 102.35 C 1274.51 102.74 1275.01 103.52 1275.26 103.91 C 1278.34 108.56 1281.32 113.27 1284.25 118.02 C 1285.18 119.73 1286.18 121.41 1287.30 123.02 C 1287.81 124.12 1288.31 125.23 1288.82 126.35 L 1289.19 126.42 C 1289.78 127.76 1290.55 129.01 1291.39 130.22 L 1291.38 130.97 C 1291.69 131.49 1292.33 132.55 1292.64 133.07 C 1293.22 134.06 1293.83 135.04 1294.46 136.02 C 1294.47 136.27 1294.49 136.77 1294.50 137.03 C 1295.97 139.39 1297.06 141.95 1297.99 144.57 C 1299.11 141.63 1300.52 138.81 1301.86 135.96 C 1302.49 134.60 1303.11 133.24 1303.74 131.86 C 1305.92 127.28 1308.03 122.66 1310.38 118.15 C 1310.83 117.08 1311.31 116.02 1311.78 114.95 C 1312.36 113.98 1312.96 113.02 1313.58 112.06 C 1313.56 111.80 1313.52 111.28 1313.50 111.02 C 1314.20 110.04 1314.92 109.06 1315.66 108.08 C 1315.60 107.73 1315.48 107.02 1315.42 106.67 L 1316.64 106.63 L 1316.36 105.41 L 1317.52 105.31 C 1317.49 104.97 1317.42 104.28 1317.39 103.94 C 1318.01 102.97 1318.64 102.00 1319.28 101.03 C 1319.59 100.52 1320.20 99.50 1320.50 98.99 C 1320.52 98.76 1320.55 98.30 1320.57 98.07 C 1321.48 96.75 1322.37 95.40 1323.25 94.04 C 1326.03 88.75 1329.36 83.78 1332.69 78.83 C 1333.38 77.85 1334.10 76.87 1334.80 75.89 C 1335.01 75.61 1335.44 75.05 1335.65 74.77 C 1336.70 73.38 1337.78 72.00 1338.83 70.60 L 1339.43 70.62 C 1339.47 70.05 1339.53 68.92 1339.56 68.36 C 1335.86 68.41 1332.15 68.27 1328.46 68.35 L 1328.52 67.56 C 1326.90 67.53 1325.39 67.86 1323.99 68.52 C 1319.98 66.78 1315.28 68.03 1311.00 67.75 C 1308.99 67.98 1306.99 68.18 1304.99 68.26 C 1298.81 68.45 1292.61 68.20 1286.46 68.74 M 1370.12 78.56 C 1369.12 79.78 1368.07 80.94 1367.01 82.10 C 1366.20 82.97 1365.39 83.84 1364.61 84.72 C 1364.31 84.98 1363.71 85.50 1363.41 85.77 L 1363.71 86.56 L 1362.55 86.49 L 1362.52 87.57 L 1361.19 87.51 C 1361.32 89.44 1361.41 91.43 1362.55 93.08 C 1362.54 93.40 1362.51 94.03 1362.50 94.35 L 1363.73 94.62 C 1363.67 94.93 1363.56 95.56 1363.50 95.87 C 1364.01 97.04 1364.48 98.24 1364.91 99.46 L 1365.47 99.46 C 1365.50 100.22 1365.56 101.73 1365.59 102.49 L 1366.22 102.47 C 1368.40 110.28 1367.93 118.47 1367.35 126.47 L 1366.77 126.47 C 1366.51 127.67 1366.24 128.86 1365.96 130.06 C 1364.62 132.99 1363.03 135.80 1361.22 138.46 L 1360.75 138.37 C 1360.40 138.86 1359.71 139.85 1359.36 140.34 C 1359.09 140.57 1358.54 141.03 1358.27 141.26 C 1357.96 141.51 1357.34 142.02 1357.04 142.27 C 1351.12 144.07 1344.08 144.36 1339.46 139.56 L 1338.89 140.19 C 1338.65 139.89 1338.19 139.31 1337.96 139.02 C 1335.89 136.84 1333.33 135.05 1331.87 132.38 C 1331.63 133.02 1331.13 134.30 1330.88 134.94 C 1330.17 136.27 1329.53 137.61 1328.87 138.95 C 1327.87 141.70 1325.88 144.18 1325.54 147.11 C 1327.04 150.74 1330.36 153.15 1332.85 156.09 C 1334.34 157.45 1335.89 158.78 1337.59 159.91 L 1337.61 160.79 C 1338.04 160.68 1338.91 160.45 1339.35 160.33 L 1339.39 161.55 L 1340.61 161.52 L 1340.64 162.82 C 1341.11 162.62 1342.03 162.24 1342.49 162.05 L 1342.30 163.38 C 1343.00 163.44 1344.40 163.57 1345.10 163.63 C 1346.34 164.22 1347.61 164.78 1348.88 165.36 C 1351.76 165.43 1354.64 165.42 1357.54 165.33 L 1357.68 164.32 C 1357.97 164.36 1358.55 164.44 1358.84 164.49 C 1360.04 163.98 1361.28 163.53 1362.56 163.13 L 1362.43 162.23 C 1362.79 162.27 1363.51 162.34 1363.88 162.37 C 1364.51 161.39 1365.37 160.65 1366.45 160.16 L 1366.30 159.35 L 1367.15 159.62 C 1367.50 159.25 1368.19 158.51 1368.53 158.14 L 1368.47 157.42 L 1369.18 157.46 C 1370.01 156.26 1370.89 155.10 1371.78 153.93 C 1372.61 152.67 1373.46 151.40 1374.29 150.13 C 1375.55 147.78 1376.77 145.40 1377.71 142.90 C 1378.16 141.62 1378.62 140.33 1379.12 139.05 C 1380.68 134.83 1381.22 130.36 1382.26 126.01 C 1382.79 117.67 1382.98 109.17 1380.85 101.02 C 1380.63 99.97 1380.42 98.91 1380.23 97.86 C 1379.45 95.89 1378.76 93.88 1378.15 91.85 C 1376.40 87.21 1373.85 82.94 1371.93 78.38 C 1371.30 78.44 1370.70 78.49 1370.12 78.56 M 1223.79 84.14 C 1223.48 85.41 1223.17 86.68 1222.85 87.94 C 1222.48 88.97 1222.10 90.00 1221.71 91.02 C 1221.63 91.65 1221.47 92.92 1221.39 93.55 L 1220.64 93.49 C 1220.55 94.85 1220.48 96.21 1220.41 97.56 L 1219.57 97.48 C 1219.54 98.24 1219.49 99.77 1219.46 100.53 L 1218.65 100.56 C 1218.55 102.20 1218.41 103.84 1218.34 105.49 L 1217.74 105.46 C 1217.09 108.78 1216.30 112.08 1216.23 115.49 L 1215.66 115.51 C 1215.52 117.68 1215.35 119.84 1215.15 121.99 C 1214.04 128.56 1214.20 135.43 1215.03 142.03 C 1215.53 145.46 1216.13 148.91 1217.42 152.15 C 1217.42 152.35 1217.41 152.74 1217.41 152.94 C 1218.08 154.30 1218.77 155.68 1219.49 157.04 C 1219.51 157.25 1219.55 157.69 1219.58 157.91 C 1219.90 158.50 1220.56 159.70 1220.89 160.30 L 1221.23 160.43 C 1222.36 162.21 1223.58 163.92 1224.80 165.66 L 1225.26 165.40 C 1225.52 165.73 1226.06 166.39 1226.33 166.71 C 1226.69 167.20 1227.40 168.17 1227.76 168.65 L 1228.76 168.39 L 1228.59 169.77 C 1228.93 169.68 1229.60 169.50 1229.93 169.41 C 1231.15 170.76 1232.77 171.50 1234.54 171.83 L 1234.28 172.45 C 1238.72 172.72 1243.19 172.77 1247.64 172.39 L 1247.58 171.19 C 1247.91 171.26 1248.59 171.41 1248.93 171.49 C 1250.07 170.63 1251.27 169.82 1252.57 169.16 L 1252.60 168.86 C 1253.64 168.36 1254.48 167.61 1255.12 166.63 C 1255.45 166.63 1256.10 166.64 1256.43 166.64 L 1256.35 165.78 C 1258.94 163.32 1261.50 160.79 1263.69 157.95 C 1264.90 156.24 1266.17 154.59 1267.52 152.98 C 1267.49 152.72 1267.44 152.21 1267.42 151.96 C 1268.19 150.96 1268.99 149.96 1269.79 148.97 L 1269.41 148.15 C 1269.75 147.51 1270.44 146.23 1270.79 145.58 L 1269.38 145.39 C 1269.41 145.06 1269.47 144.42 1269.50 144.10 C 1269.15 143.50 1268.44 142.30 1268.09 141.70 L 1267.67 141.58 C 1267.21 140.49 1266.76 139.41 1266.33 138.33 L 1265.40 138.32 C 1265.45 138.01 1265.54 137.37 1265.59 137.05 C 1265.16 136.48 1264.30 135.35 1263.87 134.78 C 1262.38 136.68 1261.18 138.78 1260.14 140.95 C 1259.33 142.27 1258.55 143.59 1257.76 144.90 C 1256.36 146.79 1254.92 148.65 1253.36 150.40 C 1253.10 150.63 1252.59 151.11 1252.33 151.34 C 1251.40 151.83 1250.47 152.30 1249.56 152.78 L 1249.61 153.44 C 1245.87 153.79 1242.11 153.79 1238.38 153.46 L 1238.37 152.91 C 1237.15 152.05 1235.98 151.14 1234.81 150.26 C 1233.46 148.58 1232.22 146.83 1231.09 145.01 C 1225.39 133.44 1227.12 120.08 1229.85 107.95 C 1230.93 104.17 1232.03 100.39 1233.43 96.70 C 1234.20 94.96 1233.27 93.25 1232.40 91.78 C 1230.21 89.41 1227.97 87.08 1225.89 84.61 C 1225.17 84.45 1224.47 84.30 1223.79 84.14 Z" />
<path fill="#000000" opacity="1.00" d=" M 1577.50 258.19 C 1577.96 258.28 1578.89 258.44 1579.35 258.53 L 1579.45 257.65 C 1582.43 257.66 1585.47 257.72 1588.35 258.64 C 1588.88 276.11 1588.21 293.60 1588.69 311.08 C 1589.32 313.10 1589.94 315.14 1590.61 317.17 C 1591.91 319.62 1593.54 321.93 1595.86 323.54 C 1599.37 323.75 1603.89 324.36 1605.93 320.72 L 1606.22 320.60 C 1606.54 320.19 1607.19 319.37 1607.51 318.96 C 1607.51 318.74 1607.50 318.31 1607.49 318.10 C 1608.13 316.75 1608.80 315.40 1609.44 314.03 C 1609.54 313.01 1609.68 311.99 1609.84 310.97 C 1610.84 307.05 1610.27 302.97 1610.41 298.98 C 1610.53 285.55 1610.18 272.12 1610.60 258.70 C 1611.19 258.46 1612.36 257.98 1612.95 257.75 C 1615.14 257.74 1617.34 257.73 1619.57 257.67 L 1619.65 258.50 C 1620.09 258.45 1620.96 258.33 1621.40 258.27 C 1622.05 269.81 1621.51 281.39 1621.69 292.95 C 1621.47 301.99 1622.49 311.18 1620.22 320.04 C 1619.72 321.35 1619.26 322.67 1618.80 323.99 C 1617.40 327.83 1615.05 331.26 1612.15 334.11 C 1611.10 334.94 1610.04 335.79 1609.06 336.65 C 1608.70 336.56 1607.98 336.38 1607.62 336.28 L 1607.60 337.44 C 1602.82 338.75 1597.56 339.60 1592.85 337.61 C 1592.51 337.69 1591.82 337.84 1591.47 337.92 L 1591.58 336.90 C 1589.69 336.40 1588.13 335.26 1586.56 334.21 L 1586.65 333.70 C 1586.33 333.48 1585.67 333.05 1585.34 332.83 C 1584.08 331.18 1582.82 329.54 1581.54 327.93 C 1581.55 327.71 1581.59 327.25 1581.61 327.02 C 1580.83 325.67 1580.09 324.31 1579.37 322.96 C 1579.40 322.76 1579.46 322.35 1579.49 322.14 C 1578.66 320.69 1578.36 319.05 1578.28 317.42 L 1577.67 317.52 C 1576.85 306.04 1577.38 294.53 1577.24 283.04 C 1577.36 274.76 1576.95 266.46 1577.50 258.19 Z" />
<path fill="#000000" opacity="1.00" d=" M 703.86 271.35 C 707.06 271.33 710.25 271.32 713.46 271.44 C 714.11 288.60 713.57 305.80 713.74 322.98 C 713.70 327.87 713.89 332.78 713.55 337.67 C 710.21 337.77 706.86 337.75 703.53 337.75 C 703.18 336.18 702.75 334.60 702.79 332.99 C 702.81 313.27 702.78 293.55 702.80 273.83 C 703.07 273.21 703.60 271.97 703.86 271.35 Z" />
<path fill="#000000" opacity="1.00" d=" M 967.73 271.47 C 970.96 271.32 974.19 271.36 977.43 271.30 C 978.12 272.76 978.66 274.30 978.50 275.95 C 978.36 296.47 978.68 316.99 978.33 337.51 C 974.77 337.84 971.19 337.76 967.62 337.67 C 966.75 323.50 967.47 309.26 967.24 295.07 C 967.48 287.21 966.69 279.28 967.73 271.47 Z" />
<path fill="#000000" opacity="1.00" d=" M 1217.58 271.49 C 1220.89 271.32 1224.21 271.34 1227.54 271.32 C 1228.04 272.81 1228.50 274.35 1228.38 275.96 C 1228.36 292.97 1228.38 309.99 1228.37 327.00 C 1228.22 330.58 1228.91 334.30 1227.58 337.74 C 1224.22 337.75 1220.86 337.79 1217.52 337.60 C 1217.37 315.57 1217.24 293.52 1217.58 271.49 Z" />
<path fill="#000000" opacity="1.00" d=" M 1293.36 271.38 C 1303.63 271.35 1313.90 271.30 1324.17 271.40 C 1324.43 272.03 1324.95 273.29 1325.20 273.92 C 1325.19 277.77 1325.62 281.74 1324.29 285.44 C 1317.38 285.49 1310.48 285.46 1303.57 285.46 C 1303.53 289.48 1303.51 293.50 1303.59 297.52 C 1308.86 297.49 1314.13 297.51 1319.41 297.51 C 1321.39 301.86 1320.16 306.81 1320.33 311.44 C 1314.94 311.79 1309.53 311.65 1304.14 311.56 L 1304.73 312.63 L 1303.52 312.34 C 1303.56 316.08 1303.53 319.83 1303.53 323.58 C 1310.44 323.57 1317.35 323.56 1324.27 323.60 C 1325.57 327.31 1325.24 331.26 1325.21 335.13 C 1324.99 335.77 1324.55 337.05 1324.34 337.70 C 1313.98 337.79 1303.62 337.74 1293.26 337.73 L 1293.66 336.53 L 1292.58 336.50 C 1292.62 315.18 1292.56 293.86 1292.61 272.55 L 1293.70 272.57 L 1293.36 271.38 Z" />
<path fill="#000000" opacity="1.00" d=" M 1687.17 309.97 C 1687.38 297.12 1686.73 284.23 1687.53 271.40 C 1690.88 271.33 1694.25 271.33 1697.63 271.42 C 1697.59 271.94 1697.52 272.98 1697.49 273.51 L 1698.37 273.40 C 1698.27 294.14 1698.24 314.89 1698.39 335.63 L 1697.51 335.59 C 1697.56 336.11 1697.66 337.16 1697.71 337.69 C 1694.33 337.77 1690.97 337.75 1687.62 337.72 C 1686.62 328.52 1687.43 319.21 1687.17 309.97 Z" />
<path fill="#000000" opacity="1.00" d=" M 1758.86 273.95 C 1759.10 273.31 1759.56 272.02 1759.79 271.38 C 1770.05 271.30 1780.32 271.37 1790.59 271.35 L 1790.40 272.50 L 1791.42 272.57 C 1791.43 276.15 1791.42 279.72 1791.44 283.30 C 1791.11 283.84 1790.45 284.92 1790.12 285.46 C 1783.53 285.46 1776.95 285.50 1770.38 285.43 C 1770.35 288.51 1770.01 291.57 1769.49 294.60 L 1770.34 294.33 C 1770.34 295.13 1770.36 296.73 1770.37 297.53 C 1775.52 297.48 1780.68 297.54 1785.84 297.48 C 1787.10 302.04 1786.37 306.84 1786.35 311.50 C 1781.05 311.77 1775.75 311.62 1770.46 311.60 C 1770.43 312.37 1770.36 313.90 1770.33 314.66 L 1769.67 314.32 C 1769.68 316.10 1769.68 317.89 1769.68 319.68 L 1770.36 319.35 C 1770.30 320.76 1770.27 322.17 1770.27 323.58 C 1776.88 323.57 1783.50 323.57 1790.12 323.58 C 1790.45 324.12 1791.11 325.21 1791.45 325.76 C 1791.41 329.67 1791.47 333.60 1791.32 337.51 C 1786.00 337.93 1780.66 337.72 1775.34 337.70 L 1775.00 339.54 L 1774.66 337.70 C 1769.69 337.77 1764.73 337.78 1759.78 337.69 C 1759.55 337.04 1759.09 335.73 1758.86 335.08 C 1758.86 325.05 1758.83 315.03 1758.87 305.00 C 1758.85 303.66 1758.85 302.33 1758.87 301.00 C 1758.87 294.66 1758.83 288.33 1758.88 282.00 C 1758.84 279.31 1758.84 276.63 1758.86 273.95 Z" />
<path fill="#000000" opacity="1.00" d=" M 1894.48 273.46 C 1894.44 272.95 1894.37 271.93 1894.33 271.42 C 1897.67 271.32 1901.03 271.31 1904.39 271.44 C 1904.88 282.98 1904.49 294.53 1904.62 306.08 C 1904.49 316.59 1904.86 327.12 1904.40 337.63 C 1901.14 337.79 1897.89 337.76 1894.65 337.71 C 1894.40 337.07 1893.91 335.79 1893.66 335.15 C 1893.65 314.56 1893.75 293.96 1893.60 273.37 L 1894.48 273.46 Z" />
<path fill="#000000" opacity="1.00" d=" M 1914.63 271.52 C 1926.22 271.18 1937.83 271.37 1949.43 271.42 C 1949.83 276.05 1949.87 280.73 1949.35 285.36 C 1945.41 285.54 1941.47 285.44 1937.55 285.48 C 1937.37 302.82 1937.72 320.17 1937.37 337.51 C 1933.81 337.85 1930.24 337.84 1926.71 337.52 C 1926.29 320.17 1926.69 302.81 1926.51 285.46 C 1922.81 285.48 1919.12 285.47 1915.44 285.47 L 1915.68 284.29 L 1914.52 284.65 C 1914.41 280.27 1914.37 275.89 1914.63 271.52 Z" />
</g>
<g id="#131514ff">
<path fill="#131514" opacity="1.00" d=" M 232.66 53.97 C 232.46 52.16 234.60 51.59 236.01 51.78 C 244.35 51.76 252.70 51.79 261.04 51.77 C 262.44 51.65 263.73 52.26 264.96 52.84 C 264.82 62.77 264.90 72.69 264.91 82.62 C 264.47 82.94 263.60 83.58 263.16 83.90 C 253.77 83.76 244.38 83.96 235.00 83.82 C 233.39 83.95 232.38 82.39 232.64 80.91 C 232.65 71.93 232.60 62.95 232.66 53.97 Z" />
<path fill="#131514" opacity="1.00" d=" M 272.72 54.74 C 272.58 52.92 274.28 51.63 276.00 51.81 C 284.67 51.71 293.34 51.73 302.01 51.82 C 303.63 51.68 305.00 53.33 304.75 54.91 C 304.78 100.94 304.73 146.98 304.77 193.01 C 305.03 194.76 304.14 197.21 301.99 196.95 C 293.29 196.95 284.60 196.97 275.91 196.93 C 274.46 197.20 273.59 195.93 272.59 195.16 C 272.84 148.36 272.59 101.54 272.72 54.74 Z" />
<path fill="#131514" opacity="1.00" d=" M 313.42 54.14 C 313.30 52.72 314.61 51.61 316.02 51.82 C 325.40 51.67 334.79 51.83 344.18 51.77 C 344.58 52.11 345.37 52.79 345.77 53.13 C 345.71 62.44 345.81 71.75 345.73 81.05 C 346.06 82.69 344.67 84.08 343.05 83.82 C 334.02 83.87 325.00 83.87 315.98 83.81 C 314.40 84.06 313.15 82.48 313.42 81.00 C 313.45 72.05 313.42 63.09 313.42 54.14 Z" />
</g>
<g id="#fefefeff">
</g>
<g id="#fff7c0ff">
<path fill="#fff7c0" opacity="1.00" d=" M 231.47 93.14 C 231.91 90.67 234.61 89.34 236.94 89.55 C 245.31 89.75 253.69 89.61 262.06 89.75 C 264.77 89.65 266.01 92.39 267.35 94.25 C 266.83 96.82 266.48 99.43 266.47 102.06 C 266.43 133.60 266.72 165.16 266.39 196.70 C 265.18 197.57 263.98 198.43 262.77 199.29 C 252.62 198.11 242.38 198.71 232.19 198.39 C 231.31 196.04 230.49 193.58 230.88 191.03 C 231.60 183.70 230.87 176.35 231.11 169.01 C 231.58 150.67 230.62 132.32 231.06 113.98 C 230.71 107.05 230.23 100.01 231.47 93.14 M 232.63 98.00 C 232.79 130.72 232.54 163.46 232.76 196.18 C 235.15 196.71 237.58 197.02 240.03 196.96 C 248.09 196.87 256.14 196.96 264.20 196.85 C 264.47 194.91 264.70 192.96 264.73 191.00 C 264.69 164.02 264.72 137.04 264.72 110.06 C 264.67 103.96 265.08 97.83 264.29 91.75 C 254.06 91.54 243.82 91.67 233.59 91.68 C 233.06 93.75 232.59 95.85 232.63 98.00 Z" />
</g>
<g id="#e3bb3fff">
<path fill="#e3bb3f" opacity="1.00" d=" M 232.63 98.00 C 232.59 95.85 233.06 93.75 233.59 91.68 C 243.82 91.67 254.06 91.54 264.29 91.75 C 265.08 97.83 264.67 103.96 264.72 110.06 C 264.72 137.04 264.69 164.02 264.73 191.00 C 264.70 192.96 264.47 194.91 264.20 196.85 C 256.14 196.96 248.09 196.87 240.03 196.96 C 237.58 197.02 235.15 196.71 232.76 196.18 C 232.54 163.46 232.79 130.72 232.63 98.00 M 234.56 96.97 C 234.46 129.55 234.49 162.15 234.55 194.74 C 240.29 196.01 246.20 195.32 252.02 195.52 C 255.59 195.64 259.15 195.33 262.66 194.64 C 263.82 188.83 263.29 182.90 263.37 177.03 C 263.42 151.37 263.30 125.70 263.38 100.03 C 263.29 97.92 263.28 95.62 261.99 93.84 C 255.04 92.97 247.99 93.70 241.00 93.42 C 238.52 93.33 234.20 93.43 234.56 96.97 Z" />
</g>
<g id="#fbba00ff">
<path fill="#fbba00" opacity="1.00" d=" M 313.56 92.79 C 314.09 92.48 315.15 91.87 315.68 91.56 C 323.78 91.62 331.89 91.57 339.99 91.54 C 341.89 91.48 343.76 91.88 345.55 92.49 C 345.52 127.11 345.66 161.74 345.48 196.36 C 343.62 196.58 341.78 196.87 339.96 197.26 C 338.33 197.26 336.70 197.23 335.08 197.15 C 333.69 196.92 332.30 196.88 330.91 197.03 C 327.64 196.67 324.35 196.59 321.07 196.82 C 319.74 197.02 318.40 197.20 317.07 197.37 C 315.91 196.96 314.75 196.57 313.59 196.18 C 313.50 161.72 313.54 127.25 313.56 92.79 Z" />
</g>
<g id="#fdb900ff">
<path fill="#fdb900" opacity="1.00" d=" M 234.56 96.97 C 234.20 93.43 238.52 93.33 241.00 93.42 C 247.99 93.70 255.04 92.97 261.99 93.84 C 263.28 95.62 263.29 97.92 263.38 100.03 C 263.30 125.70 263.42 151.37 263.37 177.03 C 263.29 182.90 263.82 188.83 262.66 194.64 C 259.15 195.33 255.59 195.64 252.02 195.52 C 246.20 195.32 240.29 196.01 234.55 194.74 C 234.49 162.15 234.46 129.55 234.56 96.97 Z" />
</g>
<g id="#737373ff">
<path fill="#737373" opacity="1.00" d=" M 1338.89 140.19 L 1339.46 139.56 C 1344.08 144.36 1351.12 144.07 1357.04 142.27 C 1351.93 146.75 1343.10 145.27 1338.89 140.19 Z" />
</g>
<g id="#141414ff">
<path fill="#141414" opacity="1.00" d=" M 5.08 219.14 C 6.09 217.24 7.49 214.49 10.12 215.09 C 13.40 215.43 15.23 220.20 12.23 222.18 C 9.50 224.87 5.97 222.07 5.08 219.14 Z" />
<path fill="#141414" opacity="1.00" d=" M 457.35 279.42 C 459.92 278.49 462.39 281.79 461.14 284.06 C 460.19 286.78 455.67 286.59 454.87 283.85 C 454.03 282.14 455.46 279.70 457.35 279.42 Z" />
</g>
<g id="#0f0f0fff">
<path fill="#0f0f0f" opacity="1.00" d=" M 361.44 215.45 C 364.92 213.50 369.18 218.49 366.40 221.55 C 364.51 224.63 359.72 223.08 359.09 219.86 C 358.73 217.99 359.85 216.32 361.44 215.45 Z" />
<path fill="#0f0f0f" opacity="1.00" d=" M 135.67 225.56 C 145.68 236.22 156.58 245.96 167.43 255.75 C 167.14 247.48 167.76 239.17 166.87 230.93 C 166.83 228.53 164.31 227.93 162.43 227.52 L 162.70 226.35 C 166.71 227.08 170.77 226.61 174.80 226.77 C 172.72 227.83 170.99 229.55 171.00 232.03 C 170.46 244.02 170.37 256.03 170.33 268.04 C 159.98 257.60 149.01 247.82 138.32 237.74 C 138.61 245.18 138.64 252.63 138.85 260.08 C 138.65 261.95 139.78 263.50 140.85 264.90 C 142.21 265.16 143.57 265.47 144.91 265.83 C 143.40 267.66 140.95 266.43 139.01 266.57 L 139.54 267.41 C 136.57 267.67 133.74 266.56 130.76 266.62 C 131.62 265.50 132.92 265.02 134.23 264.65 C 134.72 263.14 135.15 261.59 135.21 260.00 C 135.88 248.53 135.63 237.04 135.67 225.56 Z" />
<path fill="#0f0f0f" opacity="1.00" d=" M 544.22 226.18 C 556.77 227.66 569.56 227.49 582.13 226.25 C 581.54 229.90 583.18 234.34 580.83 237.47 C 580.11 235.20 580.68 231.93 578.08 230.76 C 574.55 229.15 570.50 230.03 566.75 229.79 C 566.64 239.52 566.62 249.25 566.68 258.99 C 566.60 260.99 567.13 262.94 567.76 264.82 C 569.37 265.24 571.59 264.90 572.36 266.80 C 566.43 266.57 560.50 266.60 554.57 266.72 C 555.63 265.47 557.24 265.06 558.68 264.39 C 560.09 262.62 559.86 260.15 559.93 258.01 C 559.86 248.60 560.00 239.18 559.77 229.77 C 555.90 230.03 551.68 229.16 548.10 230.96 C 545.64 232.12 545.92 235.19 545.17 237.39 C 544.91 237.04 544.39 236.35 544.12 236.00 C 544.01 232.73 544.23 229.45 544.22 226.18 Z" />
<path fill="#0f0f0f" opacity="1.00" d=" M 2.28 226.40 C 7.10 227.03 11.98 226.98 16.80 226.41 L 17.03 227.41 C 15.84 228.11 13.70 228.31 13.54 230.07 C 12.46 236.30 13.06 242.66 12.90 248.96 C 13.04 254.18 12.64 259.52 13.96 264.63 C 15.32 265.13 16.77 265.57 17.75 266.71 C 12.33 266.61 6.91 266.61 1.49 266.69 C 2.52 265.59 3.94 265.09 5.34 264.67 C 6.88 260.26 6.33 255.51 6.46 250.94 C 6.33 244.24 6.78 237.50 6.04 230.82 C 5.95 228.69 3.74 227.99 2.06 227.45 L 2.28 226.40 Z" />
<path fill="#0f0f0f" opacity="1.00" d=" M 52.03 226.29 C 64.63 227.53 77.40 227.53 89.99 226.25 C 89.82 229.79 89.81 233.32 89.84 236.86 C 89.46 236.86 88.70 236.84 88.32 236.84 C 87.97 234.75 88.42 231.94 86.06 230.92 C 82.55 229.16 78.40 230.03 74.62 229.74 C 74.38 239.50 74.47 249.27 74.49 259.03 C 74.62 260.81 74.35 262.85 75.49 264.38 C 77.11 265.19 79.09 265.25 80.39 266.66 C 74.46 266.75 68.53 266.42 62.60 266.82 C 63.48 265.40 65.15 265.06 66.52 264.32 C 67.87 262.92 67.58 260.75 67.71 258.97 C 67.67 249.23 67.78 239.49 67.53 229.75 C 63.50 229.99 59.10 229.15 55.41 231.18 C 53.54 232.67 53.66 235.34 52.87 237.41 C 50.99 234.05 52.49 229.94 52.03 226.29 Z" />
<path fill="#0f0f0f" opacity="1.00" d=" M 215.02 226.57 C 220.21 226.75 225.43 227.17 230.59 226.33 L 230.91 227.47 C 229.05 227.80 227.18 228.81 227.02 230.89 C 226.50 235.55 226.91 240.26 226.79 244.94 C 226.82 250.08 226.37 255.54 228.72 260.30 C 232.17 266.09 240.86 266.58 246.07 263.01 C 250.36 260.21 250.57 254.56 250.81 249.96 C 250.73 243.45 251.15 236.90 250.42 230.42 C 250.39 228.34 248.33 227.97 246.74 227.52 L 246.78 226.37 C 250.76 226.97 254.78 226.88 258.78 226.50 C 257.41 227.84 255.08 228.71 255.00 230.93 C 254.11 238.96 255.53 247.17 254.01 255.13 C 252.86 261.51 247.46 266.68 241.03 267.53 C 235.16 268.14 228.33 267.50 224.19 262.80 C 221.81 260.54 220.82 257.28 220.34 254.14 C 219.67 246.39 220.66 238.56 219.77 230.83 C 219.72 228.21 216.52 228.05 215.02 226.57 Z" />
<path fill="#0f0f0f" opacity="1.00" d=" M 282.91 288.13 C 288.63 288.65 294.36 287.81 300.07 288.32 C 304.43 288.75 309.05 292.18 308.60 296.98 C 308.63 300.96 305.22 303.51 302.29 305.58 C 306.35 311.53 310.40 318.31 317.55 320.86 C 313.47 320.97 308.65 321.69 305.44 318.56 C 302.16 315.16 299.74 311.05 297.28 307.05 C 295.67 307.00 294.06 306.95 292.45 306.89 C 292.61 310.79 292.14 314.78 293.07 318.61 C 294.34 319.59 295.79 320.32 297.16 321.14 C 292.46 320.67 287.74 320.80 283.03 320.88 C 284.57 319.86 287.17 319.37 287.10 317.07 C 287.41 309.02 287.30 300.95 287.17 292.90 C 287.44 290.26 284.51 289.54 282.91 288.13 M 292.51 289.91 C 292.45 294.94 292.46 299.96 292.45 304.99 C 295.67 304.92 299.79 305.93 302.00 302.86 C 303.78 299.72 303.42 295.66 301.47 292.69 C 299.29 290.05 295.60 290.17 292.51 289.91 Z" />
</g>
<g id="#121212ff">
<path fill="#121212" opacity="1.00" d=" M 26.25 230.16 C 29.49 226.13 35.08 225.33 39.93 225.93 C 42.43 226.16 45.66 226.75 46.53 229.52 C 46.86 232.38 46.30 235.28 45.92 238.12 C 44.71 235.42 44.24 232.18 41.86 230.17 C 38.60 226.38 30.97 227.02 29.39 232.12 C 27.94 236.34 31.17 240.36 34.73 242.24 C 38.60 244.20 42.93 245.67 45.97 248.94 C 49.01 252.12 49.39 257.39 47.20 261.14 C 42.58 268.33 32.17 269.29 24.92 265.93 C 20.57 263.68 22.89 258.16 23.40 254.45 C 23.70 254.56 24.29 254.76 24.58 254.87 C 24.55 258.88 26.33 263.30 30.26 264.92 C 34.70 266.50 40.87 265.45 42.67 260.54 C 44.30 256.42 40.79 252.44 37.25 250.81 C 32.44 248.70 27.08 246.49 24.53 241.55 C 23.20 237.82 23.17 233.06 26.25 230.16 Z" />
<path fill="#121212" opacity="1.00" d=" M 260.48 226.33 C 265.47 227.07 270.55 227.01 275.55 226.36 L 275.73 227.48 C 273.97 227.88 271.87 228.83 272.00 230.97 C 271.34 240.28 271.75 249.64 271.76 258.97 C 271.55 260.79 272.41 262.42 273.44 263.85 C 271.29 264.27 269.17 264.79 267.04 265.29 C 266.37 264.09 265.70 262.88 265.03 261.68 C 265.16 251.78 265.31 241.85 264.93 231.95 C 265.09 229.38 262.94 227.62 260.47 227.67 L 260.48 226.33 Z" />
<path fill="#121212" opacity="1.00" d=" M 355.11 226.51 C 360.24 226.75 365.41 227.11 370.53 226.36 L 370.50 227.57 C 366.52 227.69 366.64 232.06 366.65 234.96 C 366.73 244.27 366.16 253.64 367.04 262.92 C 367.08 265.28 370.46 264.73 370.96 266.78 C 366.30 266.69 361.64 266.43 356.99 266.80 C 356.49 266.60 355.51 266.20 355.01 266.01 C 356.34 265.52 357.68 265.08 359.04 264.67 C 360.49 258.54 360.01 252.20 360.09 245.96 C 360.02 240.77 360.37 235.52 359.42 230.40 C 358.97 228.32 356.40 227.91 355.11 226.51 Z" />
<path fill="#121212" opacity="1.00" d=" M 205.38 279.43 C 209.43 278.16 211.27 285.15 206.98 285.95 C 202.68 287.23 201.04 280.14 205.38 279.43 Z" />
<path fill="#121212" opacity="1.00" d=" M 320.67 293.50 C 322.38 289.09 327.56 287.07 332.01 287.42 C 334.46 287.68 337.51 287.91 338.88 290.30 C 339.12 292.70 338.87 295.13 338.52 297.51 C 336.86 295.61 336.94 292.69 334.91 291.06 C 332.90 288.96 329.53 288.64 327.03 290.01 C 324.43 291.38 323.87 295.22 325.53 297.50 C 328.71 302.65 336.09 302.45 339.37 307.53 C 340.75 310.24 340.82 313.72 339.45 316.46 C 337.01 320.12 332.41 322.04 328.07 321.71 C 325.02 321.63 321.17 321.51 319.42 318.57 C 318.70 315.88 319.41 313.01 320.26 310.43 C 321.32 313.28 321.43 316.97 324.27 318.79 C 327.16 320.75 330.79 320.00 333.86 318.90 C 335.62 316.46 336.91 312.97 334.51 310.44 C 330.93 306.79 325.16 306.12 321.82 302.13 C 320.15 299.64 319.82 296.34 320.67 293.50 Z" />
</g>
<g id="#111111ff">
<path fill="#111111" opacity="1.00" d=" M 107.54 226.01 C 107.77 226.00 108.21 225.99 108.44 225.98 C 110.63 231.39 112.08 237.07 114.51 242.39 C 117.67 249.31 120.02 256.60 123.66 263.30 C 124.63 265.30 127.45 264.89 128.57 266.80 C 123.18 266.61 117.79 266.44 112.40 266.76 C 113.39 265.67 114.71 265.02 115.99 264.35 C 114.63 259.93 112.60 255.76 111.16 251.37 C 110.21 251.76 109.26 252.13 108.30 252.49 C 105.74 251.26 102.81 251.88 100.07 251.71 C 98.41 255.95 96.20 260.12 95.91 264.76 C 96.70 264.91 98.27 265.22 99.06 265.38 C 99.23 265.74 99.57 266.47 99.73 266.83 C 95.54 266.58 91.34 266.53 87.14 266.76 C 86.85 266.52 86.26 266.05 85.96 265.81 C 88.69 265.32 91.21 263.99 92.25 261.27 C 97.52 249.60 102.50 237.78 107.54 226.01 M 105.54 237.31 C 103.94 241.38 102.16 245.38 100.58 249.46 C 103.89 249.35 107.20 249.36 110.51 249.45 C 108.81 245.42 107.14 241.38 105.54 237.31 Z" />
<path fill="#111111" opacity="1.00" d=" M 336.00 227.12 C 340.63 226.98 345.32 227.05 349.89 226.13 C 349.78 229.88 349.84 233.62 349.67 237.36 C 347.62 236.78 348.15 234.58 347.94 232.96 C 344.88 228.47 338.95 230.18 334.38 229.72 C 334.23 239.51 334.22 249.29 334.27 259.08 C 334.32 260.90 334.28 262.84 335.20 264.49 C 336.92 265.09 338.71 265.48 340.45 266.07 C 338.45 267.28 336.15 266.64 333.98 266.63 C 330.08 266.42 326.18 266.81 322.27 266.83 C 323.04 265.25 324.77 265.12 326.28 264.79 C 327.08 263.35 327.74 261.78 327.64 260.09 C 327.62 249.98 327.72 239.86 327.51 229.75 C 323.82 229.96 319.99 229.41 316.42 230.58 C 313.47 231.67 313.90 235.38 312.12 237.52 C 311.75 233.77 311.94 230.00 312.00 226.25 C 319.95 227.37 328.00 227.10 336.00 227.12 Z" />
<path fill="#111111" opacity="1.00" d=" M 464.52 226.38 C 471.98 227.68 479.62 225.46 487.03 227.25 C 491.75 228.46 495.91 232.98 495.02 238.11 C 494.79 242.69 490.78 245.61 487.27 247.87 C 491.11 253.24 494.71 258.94 499.73 263.30 C 501.57 265.14 504.45 264.91 506.43 266.53 C 501.13 267.07 494.72 267.50 490.74 263.23 C 487.03 259.25 484.14 254.55 481.62 249.74 C 479.58 249.70 477.54 249.68 475.51 249.64 C 475.84 253.50 474.69 257.74 476.54 261.30 C 476.33 261.65 475.92 262.36 475.72 262.71 C 476.59 264.98 478.94 265.34 480.96 266.05 C 480.47 266.24 479.49 266.63 478.99 266.82 C 474.16 266.35 469.32 266.34 464.49 266.90 C 464.62 266.51 464.88 265.73 465.00 265.34 C 465.78 265.25 467.33 265.06 468.10 264.96 C 469.88 259.80 468.97 254.28 469.18 248.94 C 468.98 243.00 469.56 237.00 468.83 231.10 C 468.60 228.76 466.21 228.01 464.29 227.52 L 464.52 226.38 M 475.57 228.78 C 475.50 234.93 475.57 241.07 475.49 247.22 C 479.31 247.20 484.42 248.58 486.87 244.68 C 489.54 240.11 488.80 232.95 483.89 230.14 C 481.40 228.63 478.35 228.92 475.57 228.78 Z" />
<path fill="#111111" opacity="1.00" d=" M 427.81 293.06 C 430.93 287.12 439.40 285.84 444.88 289.10 C 447.00 291.27 445.99 295.01 444.96 297.54 C 444.07 295.34 443.81 292.72 441.90 291.10 C 439.31 288.19 433.89 288.66 432.00 292.09 C 431.36 294.09 431.45 296.50 432.92 298.13 C 436.11 302.29 442.03 302.58 445.47 306.44 C 447.92 309.06 448.47 313.44 446.38 316.44 C 444.09 319.76 440.11 321.85 436.06 321.71 C 432.74 321.66 428.51 321.78 426.43 318.65 C 425.60 315.94 426.39 312.99 427.22 310.35 C 428.15 313.31 428.66 316.78 431.25 318.84 C 434.08 320.50 437.85 320.44 440.66 318.73 C 443.24 316.58 443.63 312.25 441.09 309.92 C 437.67 307.11 433.09 306.12 429.82 303.11 C 427.10 300.64 426.51 296.39 427.81 293.06 Z" />
<path fill="#111111" opacity="1.00" d=" M 163.24 287.36 C 171.50 295.96 180.14 304.22 189.31 311.83 C 188.87 304.61 189.88 297.26 188.35 290.14 C 187.40 289.85 185.50 289.27 184.55 288.98 C 187.86 287.44 191.71 288.67 195.24 288.19 C 194.27 289.01 193.29 289.82 192.31 290.61 C 191.13 301.04 191.68 311.58 191.38 322.05 C 183.12 313.44 174.04 305.65 165.46 297.36 C 165.92 304.24 165.47 311.16 166.09 318.02 C 167.37 319.32 169.18 319.91 170.69 320.90 C 166.94 320.96 163.19 320.79 159.44 321.00 C 160.49 319.76 162.49 318.97 162.45 317.10 C 163.63 307.23 162.84 297.27 163.24 287.36 Z" />
</g>
<g id="#101010ff">
<path fill="#101010" opacity="1.00" d=" M 378.59 235.41 C 382.79 229.09 390.53 225.63 398.01 225.79 C 402.79 225.87 407.97 225.99 411.94 229.03 C 411.91 232.22 411.94 235.42 411.66 238.60 C 409.51 237.29 409.99 234.32 408.49 232.50 C 404.56 227.38 396.90 227.06 391.29 229.25 C 384.65 232.20 382.41 240.27 382.71 246.97 C 382.55 253.86 385.70 261.80 392.70 264.18 C 397.66 265.79 404.07 266.04 408.04 262.10 C 410.17 260.13 409.94 256.86 411.84 254.73 C 411.59 258.32 413.49 263.64 409.45 265.67 C 403.80 268.34 397.18 268.08 391.18 266.86 C 384.23 265.30 377.68 260.21 375.99 253.07 C 375.13 247.16 374.97 240.51 378.59 235.41 Z" />
<path fill="#101010" opacity="1.00" d=" M 433.83 239.70 C 436.11 234.97 437.34 229.72 440.36 225.36 C 444.01 236.62 448.66 247.52 453.37 258.37 C 454.45 261.62 455.95 265.50 460.00 265.61 C 459.97 265.95 459.90 266.63 459.87 266.97 C 455.94 266.52 451.97 266.44 448.03 266.69 C 446.76 266.88 445.54 266.68 444.47 265.99 C 445.36 265.63 447.16 264.91 448.06 264.55 C 447.00 260.06 444.92 255.92 443.21 251.67 C 439.46 251.77 435.70 251.73 431.95 251.74 C 430.63 255.96 428.04 260.13 428.33 264.63 C 429.03 264.84 430.42 265.28 431.12 265.49 C 431.19 266.03 431.28 266.56 431.36 267.11 C 429.75 266.88 428.15 266.65 426.55 266.44 C 426.52 266.74 426.44 267.36 426.40 267.67 L 426.33 266.50 C 423.58 266.08 420.08 267.96 417.85 265.81 C 419.73 265.15 422.21 265.17 423.22 263.11 C 427.41 255.62 430.13 247.43 433.83 239.70 M 437.39 237.27 C 436.02 241.39 434.44 245.45 432.70 249.43 C 435.94 249.39 439.18 249.37 442.43 249.47 C 440.97 245.31 439.44 241.17 437.39 237.27 Z" />
<path fill="#101010" opacity="1.00" d=" M 508.79 226.92 C 510.82 226.40 512.89 226.71 514.95 226.78 C 522.11 227.07 529.27 226.35 536.43 226.82 C 536.58 229.93 536.14 233.03 535.82 236.12 C 535.48 236.17 534.80 236.27 534.46 236.33 C 534.36 235.17 534.27 234.01 534.20 232.85 C 531.15 228.47 525.43 229.75 520.88 229.59 C 520.85 234.48 520.85 239.37 520.87 244.25 C 525.68 244.24 530.58 244.78 535.28 243.50 C 534.99 245.80 534.78 248.13 534.12 250.37 C 533.06 249.37 532.62 247.37 530.90 247.33 C 527.58 246.92 524.22 247.13 520.89 247.09 C 521.04 252.01 520.39 257.04 521.37 261.89 C 521.63 263.57 523.64 263.57 524.94 263.61 C 528.34 263.57 532.27 264.27 535.11 261.91 C 537.40 260.19 537.64 257.00 539.08 254.68 C 539.01 258.49 540.26 263.34 537.54 266.42 C 529.44 267.31 521.18 266.06 513.04 266.75 C 511.68 267.04 510.43 266.80 509.44 265.83 C 510.85 265.42 512.28 265.03 513.71 264.66 C 514.70 260.17 514.46 255.55 514.51 250.99 C 514.46 244.68 514.65 238.37 514.28 232.07 C 514.28 230.73 513.68 229.51 513.18 228.31 C 511.68 227.94 510.22 227.48 508.79 226.92 Z" />
<path fill="#101010" opacity="1.00" d=" M 180.26 226.37 C 186.83 227.48 193.52 225.90 200.07 227.05 C 204.19 227.85 208.73 231.32 207.95 236.01 C 208.20 240.10 204.75 243.11 201.36 244.70 C 206.92 245.41 212.42 250.10 211.83 256.09 C 211.55 262.93 204.28 267.31 197.95 267.12 C 192.39 266.85 186.83 266.44 181.26 266.71 L 180.06 265.84 C 181.39 265.49 182.73 265.17 184.07 264.89 C 185.77 259.76 185.03 254.29 185.19 248.99 C 185.06 243.04 185.49 237.05 184.84 231.12 C 184.67 228.71 182.30 227.78 180.21 227.57 L 180.26 226.37 M 191.57 228.64 C 191.36 233.93 191.55 239.23 191.49 244.52 C 194.87 244.38 199.69 245.23 201.24 241.27 C 202.29 237.56 201.94 232.74 198.65 230.22 C 196.65 228.60 193.97 228.78 191.57 228.64 M 191.50 246.68 C 191.77 252.09 190.88 257.62 191.95 262.95 C 193.88 265.35 197.91 265.45 200.69 264.54 C 206.57 261.90 206.73 252.90 201.90 249.16 C 199.08 246.63 195.06 246.70 191.50 246.68 Z" />
<path fill="#101010" opacity="1.00" d=" M 214.71 288.14 C 219.32 288.31 223.93 288.40 228.54 288.14 C 227.53 288.92 226.47 289.63 225.49 290.45 C 225.71 293.37 227.21 296.00 228.27 298.69 C 230.48 303.62 232.50 308.64 234.67 313.59 C 238.02 306.01 240.79 298.16 243.27 290.24 C 242.30 289.60 241.35 288.95 240.41 288.28 C 243.72 288.34 247.04 288.31 250.36 288.13 C 245.28 291.38 244.34 297.68 241.81 302.71 C 238.65 309.17 236.58 316.13 232.98 322.39 C 228.58 312.09 223.84 301.95 219.23 291.75 C 218.31 289.96 216.20 289.34 214.71 288.14 Z" />
</g>
<g id="#080808ff">
<path fill="#080808" opacity="1.00" d=" M 288.90 253.59 C 289.94 257.75 289.18 262.19 288.39 266.35 C 282.65 267.20 276.84 266.43 271.07 266.55 C 267.32 266.44 263.57 266.88 259.84 266.58 C 260.99 265.53 262.49 265.14 263.97 264.75 C 264.32 263.73 264.67 262.70 265.03 261.68 C 265.70 262.88 266.37 264.09 267.04 265.29 C 269.17 264.79 271.29 264.27 273.44 263.85 C 277.27 263.40 281.79 264.64 284.99 261.87 C 287.23 259.67 287.55 256.29 288.90 253.59 Z" />
</g>
<g id="#767676ff">
<path fill="#767676" opacity="1.00" d=" M 921.72 261.12 C 923.30 258.13 926.81 257.07 929.92 256.46 C 938.27 255.20 946.28 258.82 953.32 262.93 C 953.78 268.08 952.06 273.24 949.34 277.57 C 948.98 277.52 948.27 277.43 947.91 277.39 C 943.05 274.72 937.76 271.70 932.00 272.62 C 928.79 272.91 926.86 276.19 926.74 279.15 C 926.72 282.04 929.11 284.06 930.59 286.30 C 924.18 283.98 924.57 274.05 930.67 271.67 C 937.35 269.66 943.34 274.30 949.42 276.26 C 950.63 272.34 952.82 268.38 952.24 264.16 C 948.01 260.14 941.92 258.97 936.46 257.47 C 931.20 256.06 926.21 258.74 921.72 261.12 Z" />
<path fill="#767676" opacity="1.00" d=" M 1382.60 255.94 C 1383.97 256.99 1385.37 258.17 1385.78 259.95 C 1388.26 267.57 1390.68 275.21 1393.05 282.86 C 1394.23 286.70 1395.81 290.45 1396.23 294.48 C 1390.84 282.44 1388.73 269.16 1383.12 257.22 C 1380.54 262.29 1379.46 267.93 1377.16 273.11 C 1378.28 267.22 1379.97 261.35 1382.60 255.94 Z" />
</g>
<g id="#010101ff">
<path fill="#010101" opacity="1.00" d=" M 921.72 261.12 C 926.21 258.74 931.20 256.06 936.46 257.47 C 941.92 258.97 948.01 260.14 952.24 264.16 C 952.82 268.38 950.63 272.34 949.42 276.26 C 943.34 274.30 937.35 269.66 930.67 271.67 C 924.57 274.05 924.18 283.98 930.59 286.30 C 931.56 286.84 932.57 287.29 933.61 287.77 L 933.73 288.51 C 934.04 288.50 934.65 288.50 934.95 288.49 C 936.71 289.48 938.54 290.40 940.53 290.90 L 940.29 291.65 L 941.10 291.61 C 941.70 291.87 942.89 292.39 943.48 292.65 L 943.61 293.67 C 944.06 293.58 944.95 293.41 945.39 293.32 L 945.38 294.18 C 948.73 296.06 951.17 299.10 953.55 302.05 C 953.53 302.27 953.48 302.71 953.45 302.93 C 954.11 304.23 954.75 305.54 955.42 306.85 C 955.76 313.25 956.63 320.05 953.92 326.07 C 952.77 328.82 950.96 331.17 949.15 333.51 L 948.31 333.39 L 948.47 334.27 C 946.87 335.28 945.28 336.34 943.48 336.95 L 943.66 337.65 C 943.27 337.65 942.47 337.65 942.08 337.64 C 936.35 337.75 930.62 337.57 924.94 336.83 C 923.59 336.66 922.32 336.23 921.09 335.70 C 920.12 335.22 919.15 334.76 918.19 334.31 L 918.45 333.28 C 918.05 333.40 917.24 333.63 916.84 333.75 C 913.64 331.67 914.21 327.85 915.70 324.88 C 916.95 322.17 917.29 317.33 921.53 318.34 L 921.23 319.47 C 922.31 319.86 923.41 320.24 924.52 320.62 L 924.46 321.20 C 926.04 321.68 927.59 322.31 929.10 323.05 C 933.29 323.74 938.89 324.84 941.92 320.98 C 945.09 317.33 944.11 311.76 941.04 308.36 C 940.82 308.38 940.38 308.41 940.15 308.42 C 938.81 307.32 937.41 306.31 936.05 305.27 C 935.70 305.37 934.99 305.57 934.63 305.67 L 934.40 304.78 C 932.09 303.95 929.85 302.94 927.56 302.07 L 927.67 301.29 L 926.48 301.59 L 926.33 300.43 C 925.91 300.52 925.06 300.70 924.63 300.79 L 924.58 299.89 C 920.11 297.37 917.24 292.86 915.70 288.08 C 915.51 286.38 915.31 284.69 915.10 283.01 C 914.57 281.03 914.59 278.98 915.09 277.01 C 915.20 271.34 917.38 265.99 920.87 261.58 C 921.08 261.46 921.51 261.24 921.72 261.12 Z" />
<path fill="#010101" opacity="1.00" d=" M 634.45 259.21 C 634.74 257.94 635.59 257.28 637.01 257.25 C 639.33 264.29 642.04 271.23 643.85 278.43 L 644.48 278.46 C 644.51 279.21 644.57 280.71 644.60 281.47 L 645.19 281.49 C 645.52 282.65 645.89 283.81 646.30 284.96 C 646.42 285.47 646.65 286.47 646.77 286.97 C 647.31 288.28 647.80 289.62 648.35 290.95 C 648.45 291.46 648.67 292.49 648.78 293.00 C 649.16 293.99 649.54 294.99 649.92 295.99 C 650.23 297.01 650.54 298.03 650.86 299.06 C 651.17 300.05 651.48 301.04 651.78 302.05 C 652.65 304.81 653.72 307.51 654.92 310.16 C 656.42 301.89 659.82 294.09 662.25 286.06 C 662.52 285.06 662.81 284.05 663.12 283.06 C 663.45 282.05 663.80 281.05 664.17 280.05 C 664.48 279.03 664.82 278.02 665.17 277.02 C 665.47 276.00 665.79 274.99 666.12 273.98 C 666.49 272.97 666.88 271.97 667.29 270.97 C 667.37 270.35 667.54 269.11 667.62 268.48 L 668.42 268.48 C 668.45 267.73 668.52 266.23 668.55 265.48 L 669.34 265.50 C 669.42 264.85 669.57 263.56 669.64 262.91 C 670.53 260.69 670.94 258.08 673.30 256.85 L 673.61 258.01 C 674.09 258.99 674.55 259.99 675.00 261.01 C 678.10 274.76 681.74 288.38 685.07 302.08 C 685.41 303.39 685.74 304.71 686.15 306.01 C 686.33 307.03 686.52 308.05 686.71 309.08 C 687.21 310.72 687.64 312.39 688.21 314.02 C 688.36 315.20 688.51 316.38 688.65 317.57 L 689.35 317.53 C 689.42 318.88 689.50 320.23 689.59 321.59 L 690.35 321.47 C 690.43 322.82 690.51 324.17 690.60 325.53 L 691.38 325.49 C 691.44 326.85 691.51 328.22 691.59 329.58 L 692.27 329.51 C 692.41 330.68 692.57 331.84 692.75 333.01 C 693.25 334.49 693.53 336.03 693.61 337.61 C 689.66 337.82 685.71 337.78 681.77 337.64 C 679.69 328.79 677.97 319.86 675.78 311.04 C 675.61 310.00 675.44 308.96 675.29 307.93 C 674.72 306.00 674.31 304.04 673.85 302.09 C 673.55 300.72 673.22 299.35 672.80 298.02 C 672.59 296.50 672.42 294.98 672.29 293.45 C 671.91 293.44 671.14 293.42 670.75 293.41 C 670.46 294.60 670.16 295.79 669.84 296.97 C 669.48 297.94 669.12 298.92 668.77 299.90 C 667.62 303.30 666.40 306.67 665.26 310.08 C 664.56 312.08 663.88 314.09 663.21 316.10 C 661.82 320.13 660.44 324.18 659.11 328.23 L 658.81 328.81 C 657.72 332.62 656.62 336.55 654.04 339.65 C 653.70 338.76 653.36 337.88 653.01 337.01 C 652.56 336.07 652.12 335.13 651.70 334.19 C 650.75 330.70 649.39 327.35 648.29 323.92 C 647.61 321.91 646.93 319.92 646.31 317.91 C 645.76 316.60 645.24 315.28 644.68 313.99 C 644.61 313.36 644.47 312.12 644.40 311.49 L 643.63 311.49 C 643.56 310.86 643.42 309.61 643.35 308.99 C 642.73 307.69 642.16 306.37 641.58 305.07 C 641.51 304.43 641.38 303.16 641.32 302.52 L 640.75 302.50 C 639.66 299.17 639.05 295.59 637.00 292.68 C 636.15 297.19 634.90 301.62 634.16 306.15 L 633.81 306.78 C 632.76 312.90 631.20 318.91 629.85 324.96 C 629.12 329.21 627.97 333.36 627.12 337.58 C 623.18 337.83 619.23 337.79 615.29 337.63 C 615.40 335.74 615.58 333.85 616.12 332.03 C 617.08 328.21 618.38 324.45 618.80 320.51 L 619.42 320.57 C 619.49 319.23 619.57 317.89 619.66 316.55 L 620.25 316.53 C 620.69 314.14 621.33 311.80 621.72 309.41 L 622.19 309.47 C 623.20 302.54 625.57 295.90 626.98 289.04 C 629.60 279.13 631.89 269.14 634.45 259.21 Z" />
<path fill="#010101" opacity="1.00" d=" M 1168.57 258.75 C 1169.16 258.49 1170.34 257.98 1170.93 257.72 C 1182.14 257.71 1193.34 257.80 1204.55 257.67 L 1204.73 257.98 C 1205.88 258.24 1206.50 258.94 1206.59 260.08 C 1206.95 264.22 1206.82 268.41 1206.35 272.54 C 1197.70 272.82 1189.04 272.77 1180.40 272.57 C 1178.80 278.39 1180.21 284.64 1179.67 290.63 C 1185.99 290.68 1192.32 290.73 1198.65 290.61 L 1198.54 291.56 C 1199.01 291.50 1199.96 291.37 1200.43 291.30 C 1200.86 296.03 1200.76 300.79 1200.52 305.54 C 1196.37 305.73 1192.22 305.72 1188.08 305.56 L 1188.93 306.38 L 1186.08 306.37 L 1186.91 305.58 C 1185.73 305.59 1183.37 305.62 1182.18 305.63 L 1182.79 306.47 C 1182.02 306.43 1180.47 306.34 1179.70 306.30 C 1179.55 316.73 1180.10 327.18 1179.41 337.59 C 1177.02 337.72 1174.62 337.75 1172.25 337.72 L 1172.38 339.38 C 1171.50 338.03 1170.20 337.35 1168.50 337.35 C 1168.09 321.24 1168.44 305.10 1168.32 288.98 C 1168.47 278.90 1168.00 268.81 1168.57 258.75 Z" />
<path fill="#010101" opacity="1.00" d=" M 1377.16 273.11 C 1379.46 267.93 1380.54 262.29 1383.12 257.22 C 1388.73 269.16 1390.84 282.44 1396.23 294.48 C 1398.41 300.53 1400.02 306.77 1402.18 312.84 C 1402.47 313.90 1402.79 314.96 1403.14 316.02 C 1403.42 317.02 1403.72 318.02 1404.06 319.02 C 1405.10 322.32 1406.12 325.63 1407.25 328.90 C 1407.52 329.92 1407.82 330.93 1408.14 331.94 C 1408.50 332.95 1408.90 333.95 1409.33 334.95 C 1409.36 335.62 1409.41 336.97 1409.44 337.64 C 1408.65 337.66 1407.08 337.70 1406.29 337.72 L 1406.41 339.18 C 1404.46 336.45 1400.47 338.21 1397.59 337.74 C 1396.51 334.88 1395.72 331.93 1394.84 329.02 C 1394.22 326.67 1393.52 324.34 1392.70 322.06 C 1392.59 321.40 1392.36 320.07 1392.25 319.41 C 1386.39 319.25 1380.53 319.35 1374.68 319.32 C 1372.84 325.42 1371.18 331.57 1369.29 337.65 C 1365.24 337.79 1361.19 337.81 1357.15 337.62 C 1357.33 335.76 1357.62 333.91 1358.16 332.12 C 1358.90 330.06 1359.59 327.99 1360.39 325.95 C 1360.45 325.34 1360.57 324.12 1360.63 323.51 L 1361.40 323.54 C 1361.44 322.78 1361.52 321.27 1361.56 320.51 L 1362.40 320.55 C 1362.44 319.78 1362.50 318.24 1362.54 317.48 L 1363.18 317.54 C 1363.90 313.22 1365.82 309.23 1366.92 305.00 C 1367.23 304.01 1367.54 303.02 1367.86 302.04 C 1368.19 301.02 1368.54 300.00 1368.89 298.99 C 1369.19 297.98 1369.49 296.97 1369.80 295.96 C 1372.30 288.37 1374.52 280.67 1377.16 273.11 M 1382.55 289.40 C 1381.24 295.36 1378.75 301.07 1378.21 307.18 C 1381.73 307.19 1385.29 307.19 1388.80 306.64 C 1388.24 304.23 1387.77 301.74 1386.34 299.68 L 1386.24 299.01 L 1385.88 298.30 C 1385.95 295.29 1384.93 292.44 1384.12 289.59 C 1383.73 289.54 1382.94 289.45 1382.55 289.40 Z" />
<path fill="#010101" opacity="1.00" d=" M 739.79 270.55 C 740.27 270.46 741.24 270.30 741.72 270.22 L 741.39 271.46 L 742.24 271.50 C 742.68 273.04 743.20 274.57 743.68 276.10 C 744.20 277.40 744.71 278.71 745.28 280.01 C 745.39 280.52 745.60 281.55 745.71 282.07 C 746.09 283.07 746.45 284.08 746.82 285.10 C 747.29 286.36 747.74 287.63 748.23 288.90 C 750.33 295.78 753.12 302.44 754.94 309.41 C 755.23 309.41 755.80 309.42 756.09 309.43 C 756.49 307.56 757.06 305.75 757.69 303.95 C 758.19 302.63 758.65 301.29 759.15 299.98 C 759.45 298.98 759.77 297.98 760.12 297.00 C 760.46 296.00 760.82 295.01 761.19 294.03 C 761.52 293.05 761.87 292.08 762.23 291.11 C 762.88 289.10 763.56 287.11 764.29 285.13 C 764.75 283.70 765.27 282.30 765.75 280.88 C 766.10 279.91 766.46 278.94 766.82 277.97 C 767.13 276.95 767.43 275.93 767.73 274.90 C 768.29 273.59 768.84 272.27 769.46 270.97 L 769.48 270.17 C 769.94 270.25 770.85 270.40 771.30 270.48 C 771.46 271.13 771.77 272.44 771.93 273.09 C 772.26 274.39 772.56 275.71 772.87 277.03 C 776.86 292.86 781.05 308.66 784.73 324.56 L 785.20 324.55 C 785.38 326.07 785.58 327.61 786.20 329.04 C 786.36 330.19 786.50 331.35 786.65 332.52 L 787.37 332.48 C 787.46 334.21 787.55 335.95 787.64 337.69 C 784.02 337.78 780.41 337.76 776.80 337.72 C 775.44 331.85 774.11 325.98 772.78 320.10 C 772.50 318.72 772.23 317.35 771.92 315.98 C 771.58 314.66 771.26 313.34 770.91 312.02 C 770.58 310.34 770.26 308.66 769.76 307.03 C 769.68 306.33 769.52 304.93 769.43 304.22 C 769.05 304.30 768.27 304.44 767.88 304.51 C 767.50 306.41 766.94 308.27 766.34 310.12 C 765.59 312.10 764.90 314.10 764.25 316.11 C 763.89 317.10 763.55 318.09 763.24 319.08 C 762.88 320.06 762.54 321.04 762.22 322.04 C 761.86 323.04 761.52 324.06 761.21 325.08 C 760.85 326.05 760.51 327.02 760.18 328.00 C 759.82 328.99 759.48 329.99 759.15 331.00 C 758.69 332.32 758.29 333.65 757.86 334.98 C 757.35 336.21 756.82 337.43 756.32 338.66 C 755.91 338.65 755.09 338.64 754.68 338.64 C 751.72 331.21 749.57 323.50 746.84 316.00 C 746.53 314.99 746.22 313.99 745.91 313.00 C 745.50 312.00 745.10 311.01 744.69 310.02 C 744.57 309.52 744.34 308.51 744.22 308.01 C 743.85 306.82 743.51 305.63 743.20 304.43 C 742.80 304.41 741.98 304.37 741.57 304.35 C 741.48 305.73 741.41 307.11 741.35 308.50 L 740.72 308.49 C 740.43 312.92 738.53 317.06 738.26 321.50 L 737.68 321.51 C 737.56 322.70 737.43 323.89 737.29 325.09 C 736.75 326.70 736.42 328.35 736.14 330.02 C 735.46 332.52 734.83 335.04 734.14 337.54 C 732.86 337.62 731.58 337.70 730.31 337.77 L 730.44 338.87 C 728.54 336.98 725.64 338.00 723.27 337.63 C 723.59 333.94 724.73 330.42 725.61 326.85 C 728.16 316.92 730.49 306.93 733.17 297.03 C 733.46 295.69 733.75 294.35 734.12 293.03 C 734.43 291.71 734.77 290.39 735.16 289.09 C 735.47 287.75 735.78 286.42 736.13 285.09 C 736.48 283.75 736.85 282.42 737.30 281.12 C 737.44 279.94 737.57 278.76 737.70 277.59 L 738.24 277.54 C 738.59 275.17 739.26 272.87 739.79 270.55 Z" />
<path fill="#010101" opacity="1.00" d=" M 991.43 270.25 C 991.92 270.24 992.91 270.22 993.40 270.21 L 993.46 271.10 C 994.79 272.67 996.11 274.27 997.38 275.91 C 999.74 279.51 1002.55 282.80 1004.89 286.43 L 1005.31 286.36 C 1005.53 286.73 1005.96 287.48 1006.18 287.85 C 1006.73 288.72 1007.28 289.60 1007.83 290.49 L 1008.24 290.58 C 1011.61 295.47 1015.52 299.99 1018.55 305.12 C 1019.09 294.73 1018.66 284.33 1018.80 273.93 C 1019.03 273.29 1019.48 272.01 1019.70 271.37 C 1022.97 271.33 1026.25 271.33 1029.53 271.43 C 1029.91 293.64 1029.69 315.87 1029.64 338.09 C 1028.79 337.83 1027.95 337.57 1027.13 337.32 C 1025.87 335.12 1024.45 333.04 1022.96 331.02 C 1020.30 327.90 1018.25 324.33 1015.71 321.13 C 1013.95 318.83 1012.29 316.46 1010.65 314.08 C 1008.90 311.67 1007.08 309.30 1005.32 306.91 C 1005.01 306.47 1004.38 305.58 1004.07 305.14 C 1003.70 304.43 1002.97 303.02 1002.61 302.31 C 1001.96 312.91 1002.54 323.54 1002.29 334.16 C 1002.15 335.38 1001.89 336.59 1001.50 337.77 C 998.21 337.76 994.93 337.78 991.65 337.65 C 991.01 315.20 991.46 292.71 991.43 270.25 Z" />
<path fill="#010101" opacity="1.00" d=" M 1058.87 272.00 C 1059.56 271.39 1060.31 270.80 1061.04 270.20 C 1061.67 271.85 1062.29 273.50 1062.85 275.18 C 1065.00 281.76 1066.99 288.40 1069.16 294.98 C 1069.44 295.98 1069.75 296.98 1070.08 297.98 C 1071.26 302.02 1072.69 305.98 1073.96 310.00 C 1074.25 311.15 1074.54 312.31 1074.81 313.48 L 1075.45 313.50 C 1075.48 314.24 1075.54 315.74 1075.57 316.49 L 1076.40 316.51 C 1076.45 317.14 1076.56 318.41 1076.61 319.05 C 1077.16 320.36 1077.70 321.69 1078.28 323.01 C 1078.37 323.52 1078.56 324.56 1078.66 325.08 C 1080.19 329.15 1081.79 333.28 1081.97 337.68 C 1078.22 337.78 1074.48 337.80 1070.75 337.63 C 1070.62 336.97 1070.38 335.64 1070.26 334.98 C 1069.87 333.96 1069.52 332.94 1069.19 331.92 C 1068.37 329.04 1067.57 326.16 1066.60 323.33 C 1062.28 323.47 1057.97 323.37 1053.66 323.46 C 1053.60 324.23 1053.49 325.75 1053.43 326.51 L 1052.63 326.47 C 1052.54 327.81 1052.45 329.16 1052.38 330.51 L 1051.55 330.46 C 1051.52 331.23 1051.48 332.78 1051.46 333.55 L 1050.70 333.57 C 1050.55 334.89 1050.40 336.22 1050.27 337.55 C 1046.32 337.85 1042.37 337.80 1038.44 337.64 C 1040.12 330.00 1042.93 322.64 1045.18 315.15 C 1045.47 314.10 1045.78 313.05 1046.11 312.01 C 1046.45 311.00 1046.81 310.00 1047.19 309.00 C 1047.33 308.50 1047.60 307.48 1047.74 306.97 C 1048.10 305.81 1048.44 304.63 1048.77 303.46 L 1049.13 303.43 C 1049.71 300.06 1051.17 296.92 1051.86 293.57 L 1052.39 293.56 C 1052.46 292.92 1052.61 291.65 1052.69 291.01 C 1053.10 289.86 1053.49 288.70 1053.86 287.54 L 1054.19 287.46 C 1054.43 286.29 1054.71 285.13 1055.03 283.98 C 1056.32 279.99 1057.76 276.05 1058.87 272.00 M 1060.29 300.70 C 1058.58 304.50 1057.64 308.58 1056.40 312.55 C 1058.93 312.82 1061.48 312.90 1064.03 312.85 C 1063.63 311.75 1063.21 310.66 1062.78 309.58 C 1062.66 308.71 1062.46 307.86 1062.19 307.04 C 1061.98 304.80 1061.39 302.64 1060.29 300.70 Z" />
<path fill="#010101" opacity="1.00" d=" M 1090.83 270.07 C 1094.35 270.68 1095.53 274.67 1097.68 277.06 C 1098.88 278.67 1100.14 280.24 1101.36 281.85 C 1102.31 283.24 1103.33 284.58 1104.37 285.92 C 1104.86 286.63 1105.37 287.33 1105.89 288.04 C 1107.13 289.76 1108.42 291.45 1109.70 293.16 C 1111.08 295.04 1112.58 296.86 1113.81 298.87 C 1115.19 301.33 1116.77 303.69 1118.50 305.94 C 1120.23 294.60 1118.49 283.06 1119.49 271.66 C 1122.82 271.70 1126.15 271.73 1129.48 271.62 C 1129.75 293.70 1129.54 315.79 1129.59 337.88 C 1128.68 337.75 1127.77 337.62 1126.89 337.50 C 1126.34 336.45 1125.79 335.42 1125.26 334.39 L 1124.41 334.49 L 1124.71 333.34 L 1123.97 333.29 C 1122.80 331.05 1121.21 329.08 1119.60 327.16 C 1115.21 321.00 1110.88 314.79 1106.25 308.82 C 1105.70 307.97 1105.18 307.12 1104.68 306.27 C 1103.78 304.78 1102.78 303.35 1101.75 301.96 C 1100.91 313.89 1101.81 325.88 1101.22 337.83 C 1098.03 337.69 1094.83 337.75 1091.65 337.70 C 1091.41 337.07 1090.94 335.82 1090.70 335.19 C 1090.81 313.48 1090.57 291.78 1090.83 270.07 Z" />
<path fill="#010101" opacity="1.00" d=" M 1517.40 270.55 C 1521.57 270.03 1525.71 270.65 1529.75 271.76 L 1529.35 272.29 C 1531.42 272.52 1533.34 273.38 1535.03 274.62 C 1535.38 274.53 1536.07 274.35 1536.42 274.26 L 1536.21 275.67 L 1537.37 275.24 C 1538.20 276.67 1538.57 278.26 1538.53 279.92 C 1537.57 281.91 1536.88 284.02 1536.35 286.17 C 1535.82 288.47 1534.17 290.62 1531.77 288.60 C 1531.48 288.62 1530.91 288.68 1530.63 288.70 L 1530.58 287.60 C 1529.77 287.55 1528.15 287.46 1527.35 287.41 L 1527.79 286.48 C 1524.64 286.23 1521.50 286.08 1518.36 286.18 C 1517.06 288.70 1516.89 292.14 1519.58 293.84 L 1519.63 294.20 C 1521.12 294.89 1522.61 295.63 1523.98 296.61 C 1524.33 296.54 1525.05 296.40 1525.41 296.33 L 1525.50 297.27 C 1527.13 297.72 1528.71 298.41 1529.99 299.59 C 1530.36 299.52 1531.08 299.37 1531.44 299.30 L 1531.28 300.16 C 1534.17 301.75 1536.42 304.23 1538.27 306.94 C 1538.86 308.65 1539.49 310.36 1540.19 312.06 C 1540.63 315.73 1540.63 319.44 1540.36 323.12 C 1539.67 325.11 1539.01 327.09 1538.31 329.07 C 1537.26 330.57 1536.21 332.07 1535.21 333.60 L 1534.83 333.48 C 1534.51 333.83 1533.87 334.52 1533.55 334.87 L 1533.48 335.51 L 1532.28 335.38 L 1532.40 336.67 C 1531.94 336.56 1531.02 336.33 1530.56 336.22 L 1530.58 337.35 C 1526.23 338.70 1521.45 339.12 1517.05 337.82 C 1516.36 337.72 1514.98 337.53 1514.30 337.43 L 1514.52 336.23 C 1514.14 336.33 1513.38 336.53 1513.01 336.63 C 1511.61 335.65 1510.11 334.88 1508.58 334.22 L 1508.52 333.31 C 1508.04 333.35 1507.06 333.43 1506.58 333.47 C 1506.21 330.59 1505.86 327.47 1507.50 324.89 C 1507.51 324.70 1507.53 324.33 1507.53 324.15 C 1508.07 322.91 1508.56 321.66 1508.99 320.38 C 1510.86 320.12 1512.73 320.43 1514.27 321.62 C 1515.45 322.28 1516.67 322.88 1517.92 323.50 C 1520.93 323.76 1523.98 323.81 1527.01 323.42 C 1527.81 322.36 1528.65 321.31 1529.50 320.27 C 1529.47 319.44 1529.41 317.77 1529.38 316.94 C 1529.05 316.42 1528.38 315.37 1528.05 314.85 C 1527.58 314.50 1526.64 313.80 1526.17 313.45 L 1525.46 313.45 L 1525.42 312.28 C 1524.96 312.40 1524.05 312.64 1523.60 312.76 L 1523.58 311.68 C 1521.84 311.36 1520.18 310.76 1518.92 309.52 C 1518.55 309.60 1517.81 309.78 1517.44 309.87 L 1517.48 308.92 C 1515.76 308.29 1514.22 307.34 1512.79 306.25 C 1512.44 306.01 1511.73 305.51 1511.38 305.27 L 1511.61 304.52 L 1510.50 304.50 L 1510.56 303.37 L 1509.37 303.37 C 1509.43 302.95 1509.55 302.11 1509.61 301.69 L 1508.30 301.39 C 1508.37 300.96 1508.49 300.09 1508.55 299.65 L 1507.64 299.60 C 1505.83 294.08 1506.31 288.24 1506.69 282.55 L 1507.23 282.50 C 1508.24 278.26 1510.72 274.15 1514.75 272.17 L 1514.33 271.59 C 1515.15 271.55 1516.80 271.46 1517.62 271.42 L 1517.40 270.55 Z" />
<path fill="#010101" opacity="1.00" d=" M 1635.67 270.21 C 1636.42 270.35 1637.19 270.50 1637.98 270.66 C 1640.15 274.24 1642.73 277.56 1645.34 280.84 C 1646.13 282.02 1646.93 283.18 1647.75 284.38 L 1648.14 284.64 C 1648.94 285.79 1649.79 286.91 1650.65 288.05 C 1651.68 289.49 1652.75 290.92 1653.78 292.37 L 1654.57 292.48 L 1654.29 293.67 L 1655.55 293.60 C 1655.52 293.94 1655.46 294.61 1655.42 294.95 C 1656.72 296.44 1658.00 297.95 1659.34 299.42 L 1659.64 300.27 C 1660.42 301.36 1661.18 302.47 1661.96 303.60 C 1662.33 303.66 1663.09 303.76 1663.47 303.81 C 1663.50 293.02 1663.10 282.21 1663.68 271.43 C 1666.98 271.32 1670.29 271.34 1673.61 271.33 L 1673.38 272.49 L 1674.38 272.57 C 1674.38 294.27 1674.34 315.97 1674.40 337.67 C 1673.54 337.67 1672.70 337.66 1671.89 337.66 C 1670.86 336.09 1669.79 334.56 1668.74 333.02 C 1665.08 328.46 1661.99 323.48 1658.31 318.93 C 1657.55 317.79 1656.83 316.66 1656.14 315.52 L 1655.85 315.42 C 1654.83 313.93 1653.76 312.50 1652.69 311.08 C 1651.14 309.07 1649.69 306.99 1648.24 304.93 C 1647.85 304.32 1647.07 303.10 1646.68 302.48 C 1646.26 314.18 1646.87 325.89 1646.36 337.58 C 1643.04 337.79 1639.72 337.75 1636.42 337.76 C 1635.83 336.24 1635.45 334.66 1635.60 333.04 C 1635.68 312.09 1635.53 291.15 1635.67 270.21 Z" />
<path fill="#010101" opacity="1.00" d=" M 813.46 271.14 C 814.39 271.26 815.33 271.39 816.28 271.52 C 816.39 272.15 816.61 273.41 816.72 274.04 C 817.09 275.04 817.46 276.04 817.82 277.06 C 818.27 278.37 818.69 279.69 819.16 281.00 C 820.23 285.07 821.74 289.00 822.87 293.06 C 825.33 300.69 827.70 308.37 830.13 316.02 C 830.43 317.00 830.76 317.99 831.11 318.97 C 831.41 319.99 831.73 321.01 832.06 322.02 C 833.08 325.15 834.25 328.24 834.84 331.49 L 835.21 331.48 C 835.56 332.66 835.95 333.83 836.38 335.00 C 836.41 335.67 836.45 337.00 836.48 337.67 C 832.81 337.79 829.14 337.74 825.49 337.77 C 824.03 334.18 823.01 330.43 822.20 326.65 L 821.75 326.20 C 821.64 325.51 821.43 324.12 821.32 323.43 C 816.93 323.40 812.55 323.44 808.17 323.38 L 808.73 324.50 L 807.68 324.48 C 807.58 325.14 807.39 326.44 807.29 327.10 C 806.85 328.37 806.47 329.67 806.10 330.97 C 805.44 333.20 804.81 335.44 804.21 337.69 C 800.51 337.77 796.82 337.78 793.13 337.69 C 793.29 335.80 793.53 333.91 794.11 332.09 C 794.46 331.09 794.83 330.09 795.20 329.09 C 797.69 320.68 800.46 312.36 803.05 303.98 C 804.10 300.66 805.12 297.33 806.19 294.03 C 806.48 293.02 806.79 292.02 807.13 291.03 C 807.44 290.00 807.78 288.97 808.13 287.95 C 808.43 286.96 808.75 285.98 809.09 285.01 C 809.96 281.84 811.23 278.79 811.85 275.56 L 812.19 275.52 C 812.54 274.31 812.94 273.11 813.37 271.93 L 813.46 271.14 M 813.65 302.49 C 812.63 305.87 811.66 309.27 811.02 312.74 C 813.34 312.91 815.68 313.15 818.01 312.86 C 818.13 308.77 816.19 304.96 815.26 301.05 C 814.71 301.53 814.17 302.01 813.65 302.49 Z" />
<path fill="#010101" opacity="1.00" d=" M 1241.51 269.70 C 1243.59 271.14 1245.23 273.11 1246.71 275.15 C 1247.38 276.15 1248.09 277.15 1248.80 278.16 C 1252.10 282.30 1255.02 286.74 1258.32 290.89 C 1259.08 291.96 1259.85 293.03 1260.62 294.12 C 1261.84 295.73 1263.10 297.31 1264.33 298.93 C 1265.06 300.16 1265.79 301.40 1266.61 302.61 C 1267.39 303.64 1268.36 304.47 1269.35 305.33 C 1269.73 294.15 1269.09 282.95 1269.69 271.77 C 1273.01 271.77 1276.33 271.77 1279.67 271.62 C 1279.99 287.73 1279.72 303.85 1279.81 319.96 C 1279.60 326.29 1280.27 332.68 1279.35 338.97 C 1278.57 338.35 1277.81 337.73 1277.07 337.11 C 1275.07 334.00 1272.92 330.99 1270.63 328.11 C 1269.81 326.94 1268.99 325.78 1268.21 324.60 L 1267.45 324.53 L 1267.65 323.38 L 1266.45 323.25 C 1266.50 322.84 1266.59 322.01 1266.63 321.60 L 1265.81 321.44 C 1264.97 320.26 1264.09 319.12 1263.24 317.97 C 1260.34 313.86 1257.31 309.85 1254.41 305.75 C 1253.71 304.78 1253.07 303.83 1252.38 302.88 C 1252.15 313.63 1252.30 324.39 1252.29 335.15 C 1252.05 335.78 1251.57 337.06 1251.33 337.70 C 1248.04 337.76 1244.76 337.78 1241.49 337.62 C 1241.03 324.75 1241.41 311.85 1241.28 298.97 C 1241.40 289.21 1241.02 279.44 1241.51 269.70 Z" />
<path fill="#010101" opacity="1.00" d=" M 1496.24 271.32 C 1496.56 272.09 1496.89 272.85 1497.25 273.62 C 1497.24 277.25 1497.25 280.88 1497.19 284.51 C 1497.05 284.51 1496.75 284.52 1496.61 284.53 C 1492.59 284.67 1488.57 284.68 1484.57 284.69 C 1484.04 295.77 1484.43 306.87 1484.32 317.96 C 1484.16 324.50 1484.86 331.11 1483.68 337.59 C 1480.64 337.55 1477.62 337.51 1474.60 337.46 C 1473.40 319.87 1475.04 302.16 1473.73 284.58 C 1470.15 284.64 1466.58 284.66 1463.01 284.57 C 1462.68 284.56 1462.01 284.54 1461.68 284.53 C 1461.80 280.35 1460.96 276.02 1462.22 271.96 L 1462.43 271.37 C 1473.70 271.30 1484.97 271.39 1496.24 271.32 Z" />
<path fill="#010101" opacity="1.00" d=" M 1707.17 271.37 C 1710.81 271.33 1714.46 271.28 1718.12 271.48 C 1718.40 272.67 1718.73 273.85 1719.10 275.04 C 1719.41 276.31 1719.78 277.60 1720.19 278.87 C 1720.77 281.08 1721.41 283.28 1721.79 285.55 L 1722.21 285.47 C 1722.61 287.85 1723.34 290.17 1723.78 292.55 L 1724.18 292.46 C 1724.71 296.23 1726.30 299.76 1726.81 303.54 L 1727.42 303.49 C 1727.48 304.82 1727.57 306.15 1727.68 307.49 C 1728.10 307.53 1728.94 307.60 1729.36 307.64 C 1729.46 306.97 1729.66 305.64 1729.76 304.98 C 1730.30 303.36 1730.75 301.71 1731.29 300.09 C 1731.50 299.04 1731.76 298.01 1732.05 296.98 C 1734.71 288.47 1736.40 279.65 1739.56 271.31 C 1743.25 271.37 1746.96 271.30 1750.67 271.48 C 1750.19 275.99 1747.83 280.02 1747.17 284.49 L 1746.52 284.39 C 1746.50 285.17 1746.45 286.73 1746.43 287.51 L 1745.58 287.45 C 1745.53 288.09 1745.42 289.37 1745.36 290.01 C 1744.91 291.00 1744.48 291.99 1744.09 293.00 C 1743.77 294.01 1743.49 295.04 1743.24 296.07 C 1741.99 299.67 1740.92 303.33 1739.69 306.93 C 1737.34 314.24 1735.20 321.63 1732.71 328.90 C 1732.59 329.43 1732.35 330.48 1732.23 331.00 C 1731.83 332.00 1731.46 333.00 1731.12 334.00 C 1730.76 335.17 1730.44 336.34 1730.17 337.53 L 1729.36 337.38 L 1729.25 338.95 C 1726.92 337.78 1726.52 335.20 1725.63 333.05 C 1725.57 332.41 1725.45 331.11 1725.38 330.47 L 1724.58 330.53 C 1724.55 329.75 1724.49 328.20 1724.46 327.42 L 1723.58 327.55 C 1723.56 326.77 1723.51 325.22 1723.48 324.45 L 1722.84 324.47 C 1722.22 321.23 1720.93 318.17 1720.10 314.98 C 1719.74 313.99 1719.40 313.01 1719.10 312.02 C 1718.73 311.01 1718.40 309.99 1718.10 308.98 C 1717.77 307.97 1717.47 306.96 1717.21 305.94 C 1713.95 296.08 1711.02 286.11 1707.76 276.25 C 1707.26 274.67 1707.27 273.00 1707.17 271.37 Z" />
<path fill="#010101" opacity="1.00" d=" M 1803.41 271.32 C 1810.83 271.41 1818.27 271.22 1825.70 271.51 L 1825.50 272.25 C 1827.14 272.43 1828.65 273.14 1830.02 274.09 C 1834.47 277.76 1836.24 283.47 1837.29 288.94 C 1837.42 291.63 1837.44 294.34 1837.30 297.04 C 1836.57 299.72 1835.89 302.42 1834.88 305.02 C 1834.03 306.44 1833.20 307.87 1832.43 309.32 C 1831.41 310.19 1830.40 311.05 1829.38 311.89 L 1829.64 312.75 C 1829.36 312.72 1828.79 312.66 1828.50 312.63 C 1829.65 314.94 1830.49 317.40 1831.25 319.88 C 1832.23 322.87 1833.25 325.86 1834.25 328.85 C 1834.54 329.86 1834.87 330.88 1835.23 331.90 C 1835.59 332.92 1835.99 333.93 1836.43 334.95 C 1836.42 335.88 1836.44 336.81 1836.49 337.74 C 1832.75 337.76 1829.02 337.74 1825.30 337.73 L 1825.62 336.53 L 1824.81 336.50 C 1824.47 335.30 1824.12 334.12 1823.76 332.95 C 1823.67 332.33 1823.49 331.08 1823.40 330.46 L 1822.83 330.44 C 1822.32 328.12 1821.61 325.85 1821.16 323.53 L 1820.52 323.55 C 1820.50 322.78 1820.45 321.22 1820.43 320.44 L 1819.55 320.61 C 1819.52 319.83 1819.47 318.26 1819.44 317.47 L 1818.46 317.47 C 1818.51 316.97 1818.63 315.95 1818.68 315.44 C 1816.90 315.40 1815.14 315.39 1813.40 315.39 C 1813.38 322.76 1813.53 330.14 1813.31 337.52 C 1809.78 337.85 1806.23 337.84 1802.71 337.55 C 1802.49 319.70 1802.67 301.84 1802.62 283.98 C 1802.85 279.77 1801.93 275.38 1803.41 271.32 M 1813.44 285.48 C 1813.40 290.50 1813.37 295.53 1813.47 300.55 C 1816.83 300.57 1820.20 300.56 1823.59 300.47 L 1823.38 299.16 L 1824.61 299.79 L 1824.42 298.49 L 1825.34 298.42 C 1826.49 295.36 1827.33 291.86 1825.60 288.83 C 1825.62 288.53 1825.67 287.94 1825.69 287.65 L 1824.85 287.68 C 1824.61 287.25 1824.12 286.39 1823.88 285.96 C 1820.47 285.05 1816.90 285.57 1813.44 285.48 Z" />
<path fill="#010101" opacity="1.00" d=" M 845.63 271.41 C 853.30 271.32 860.98 271.24 868.65 271.56 L 868.41 272.23 C 870.26 272.81 871.98 273.72 873.66 274.69 L 873.51 275.12 C 876.47 277.69 877.79 281.44 879.19 284.98 C 879.92 289.99 879.96 295.07 879.31 300.09 C 878.62 301.78 877.96 303.49 877.36 305.21 C 876.03 308.14 873.66 310.32 871.66 312.76 C 872.39 316.57 874.04 320.13 875.19 323.83 C 875.81 325.88 876.49 327.91 877.17 329.94 C 877.50 330.92 877.85 331.90 878.22 332.88 C 878.65 334.44 879.05 335.99 879.49 337.56 C 875.62 337.84 871.74 337.79 867.88 337.65 C 867.23 335.43 866.55 333.22 865.86 331.01 C 865.36 329.29 864.82 327.59 864.30 325.89 C 863.43 323.47 862.64 321.03 862.18 318.51 L 861.58 318.51 C 861.53 317.74 861.42 316.18 861.36 315.40 C 859.20 315.40 857.03 315.47 854.91 315.74 L 857.06 317.18 L 855.67 317.31 C 856.05 319.47 854.91 322.29 856.63 324.00 L 855.92 324.82 C 855.45 329.08 855.98 333.40 855.52 337.67 C 852.19 337.77 848.86 337.79 845.54 337.67 C 844.98 320.79 845.44 303.89 845.29 287.00 C 845.39 281.80 845.00 276.58 845.63 271.41 M 856.27 289.45 L 855.69 289.49 C 855.75 292.50 855.75 295.52 855.67 298.54 L 856.52 298.68 C 856.43 299.15 856.26 300.10 856.17 300.57 C 859.31 300.55 862.45 300.55 865.60 300.55 C 869.05 297.68 870.29 292.81 868.47 288.68 C 867.65 287.72 866.84 286.76 866.06 285.79 C 862.81 285.31 859.53 285.47 856.27 285.44 C 856.26 286.78 856.26 288.11 856.27 289.45 Z" />
<path fill="#010101" opacity="1.00" d=" M 1419.82 271.40 C 1427.41 271.33 1435.01 271.22 1442.61 271.57 L 1442.52 272.93 C 1442.91 272.79 1443.67 272.52 1444.05 272.38 C 1447.01 274.66 1449.81 277.25 1451.42 280.70 C 1453.84 286.52 1453.89 292.89 1453.32 299.07 C 1451.79 303.86 1450.03 309.31 1445.44 312.02 C 1446.99 320.80 1451.63 328.84 1452.92 337.69 C 1449.17 337.78 1445.44 337.77 1441.71 337.66 C 1441.20 335.93 1440.64 334.21 1440.23 332.47 L 1439.85 332.43 C 1439.38 329.91 1438.60 327.47 1437.80 325.05 C 1437.42 324.03 1437.03 323.02 1436.65 322.02 C 1436.58 321.39 1436.44 320.15 1436.37 319.53 L 1435.60 319.55 C 1435.48 318.19 1435.38 316.85 1435.29 315.50 C 1433.39 315.43 1431.50 315.40 1429.64 315.41 C 1429.59 322.81 1429.89 330.23 1429.45 337.63 C 1426.20 337.79 1422.95 337.78 1419.72 337.71 C 1419.47 337.09 1418.98 335.85 1418.74 335.22 C 1418.76 314.79 1418.71 294.36 1418.77 273.92 C 1419.03 273.29 1419.56 272.03 1419.82 271.40 M 1430.66 286.54 L 1429.61 286.34 C 1429.68 290.77 1429.67 295.20 1429.61 299.63 L 1430.69 299.45 L 1430.13 300.61 C 1433.31 300.55 1436.49 300.55 1439.69 300.53 L 1439.41 299.38 C 1439.79 299.40 1440.57 299.44 1440.95 299.46 C 1441.29 298.84 1441.98 297.61 1442.32 296.99 C 1443.09 293.53 1443.01 289.85 1441.17 286.73 C 1437.79 284.76 1433.82 285.64 1430.14 285.42 L 1430.66 286.54 Z" />
<path fill="#010101" opacity="1.00" d=" M 1854.85 273.13 C 1863.22 269.16 1872.60 272.08 1880.03 276.69 C 1879.60 280.99 1878.12 285.08 1876.61 289.09 C 1871.63 287.30 1866.80 285.01 1861.52 284.27 C 1860.39 286.02 1858.59 287.69 1858.83 289.96 C 1858.98 293.45 1862.36 295.39 1865.19 296.68 C 1869.12 298.37 1872.83 300.50 1876.48 302.74 C 1882.26 307.61 1883.06 315.97 1882.22 323.03 C 1881.74 324.34 1881.35 325.67 1880.96 327.01 C 1879.92 329.29 1878.66 331.45 1877.24 333.51 L 1876.29 333.43 L 1876.47 334.74 C 1876.04 334.70 1875.18 334.61 1874.75 334.57 C 1874.66 335.06 1874.50 336.04 1874.41 336.53 C 1873.92 336.48 1872.93 336.38 1872.44 336.33 L 1872.58 337.24 C 1871.35 337.59 1870.15 337.96 1868.99 338.37 C 1866.00 338.59 1863.01 338.58 1860.05 338.31 C 1858.77 337.93 1857.50 337.59 1856.25 337.28 L 1856.66 336.53 C 1855.88 336.50 1854.31 336.45 1853.53 336.43 L 1853.59 335.35 L 1852.38 335.59 L 1852.37 334.40 C 1851.93 334.50 1851.04 334.72 1850.59 334.82 L 1850.50 333.37 C 1850.06 333.39 1849.19 333.42 1848.75 333.44 C 1848.32 331.98 1847.87 330.53 1847.52 329.08 C 1848.16 327.78 1848.75 326.44 1849.36 325.12 C 1849.79 323.53 1850.31 321.97 1850.80 320.39 C 1852.05 320.33 1853.33 320.30 1854.64 320.28 L 1854.57 321.72 C 1854.91 321.64 1855.60 321.50 1855.94 321.42 C 1857.19 322.18 1858.51 322.86 1859.87 323.51 C 1860.59 323.53 1862.04 323.56 1862.76 323.58 L 1862.24 324.41 C 1863.36 324.41 1865.58 324.39 1866.70 324.38 L 1866.52 323.21 C 1866.92 323.36 1867.72 323.65 1868.12 323.80 C 1869.12 322.86 1870.12 321.86 1870.98 320.75 L 1871.47 320.49 C 1871.43 319.62 1871.35 317.88 1871.31 317.01 C 1870.98 316.41 1870.33 315.20 1870.01 314.60 C 1869.65 314.59 1868.95 314.56 1868.60 314.55 L 1868.57 313.44 L 1867.43 313.52 L 1867.39 312.36 C 1866.93 312.46 1866.02 312.67 1865.56 312.77 L 1865.44 311.30 C 1865.09 311.36 1864.39 311.48 1864.04 311.54 C 1862.27 310.54 1860.44 309.70 1858.50 309.20 L 1858.61 308.79 C 1856.92 307.91 1855.37 306.78 1854.04 305.44 C 1853.82 305.41 1853.37 305.35 1853.14 305.33 C 1851.54 303.00 1850.16 300.55 1849.05 297.98 C 1847.98 292.75 1848.06 287.27 1849.05 282.04 C 1849.62 280.67 1850.21 279.30 1850.81 277.92 C 1851.08 277.44 1851.64 276.48 1851.92 276.00 C 1852.87 275.03 1853.80 274.02 1854.85 273.13 Z" />
<path fill="#010101" opacity="1.00" d=" M 1955.22 271.46 C 1959.21 271.30 1963.21 271.30 1967.23 271.45 C 1967.47 272.06 1967.96 273.27 1968.21 273.87 C 1968.70 275.28 1969.25 276.69 1969.80 278.11 C 1970.49 279.74 1971.15 281.39 1971.79 283.06 C 1972.25 284.32 1972.75 285.61 1973.28 286.87 C 1974.21 289.22 1975.09 291.57 1975.97 293.96 C 1977.01 291.32 1978.08 288.69 1979.20 286.08 C 1979.98 284.02 1980.81 281.98 1981.60 279.92 C 1982.20 278.57 1982.81 277.22 1983.49 275.90 C 1983.50 275.70 1983.50 275.32 1983.51 275.12 C 1984.00 273.93 1984.48 272.73 1984.95 271.53 C 1988.94 271.25 1992.95 271.30 1996.96 271.43 C 1996.68 272.98 1996.32 274.50 1995.88 276.00 C 1994.55 278.62 1993.39 281.32 1992.33 284.06 C 1991.44 286.09 1990.51 288.10 1989.49 290.06 C 1989.49 290.27 1989.49 290.70 1989.49 290.91 C 1988.46 292.95 1987.49 295.01 1986.43 297.02 C 1986.49 297.35 1986.60 298.01 1986.66 298.34 L 1985.37 298.64 C 1985.41 298.97 1985.50 299.62 1985.54 299.95 C 1984.49 301.69 1983.66 303.55 1983.15 305.51 L 1982.32 305.64 C 1982.35 305.95 1982.40 306.56 1982.43 306.87 C 1981.77 308.15 1981.49 309.51 1981.57 310.94 C 1981.50 319.82 1981.78 328.71 1981.41 337.58 C 1978.02 337.80 1974.63 337.77 1971.26 337.71 L 1971.20 337.07 C 1969.83 327.61 1971.24 317.91 1970.48 308.38 C 1969.82 306.40 1968.87 304.54 1968.17 302.60 L 1967.35 302.32 C 1967.41 302.00 1967.53 301.36 1967.59 301.04 C 1966.48 299.03 1965.52 296.96 1964.51 294.92 C 1964.51 294.70 1964.53 294.27 1964.53 294.05 C 1963.48 292.01 1962.52 289.94 1961.46 287.92 C 1961.51 287.59 1961.61 286.92 1961.67 286.59 L 1960.85 286.45 C 1960.24 284.60 1959.48 282.82 1958.68 281.07 C 1958.21 280.01 1957.76 278.96 1957.35 277.90 C 1956.28 275.89 1955.34 273.76 1955.22 271.46 Z" />
</g>
<g id="#838383ff">
<path fill="#838383" opacity="1.00" d=" M 1119.56 270.74 C 1122.82 270.47 1126.51 269.85 1129.48 271.62 C 1126.15 271.73 1122.82 271.70 1119.49 271.66 C 1118.49 283.06 1120.23 294.60 1118.50 305.94 C 1116.77 303.69 1115.19 301.33 1113.81 298.87 C 1115.37 300.19 1116.71 301.74 1118.01 303.34 C 1118.04 294.22 1118.02 285.11 1117.98 275.99 C 1118.10 274.20 1117.90 271.92 1119.56 270.74 Z" />
<path fill="#838383" opacity="1.00" d=" M 1854.85 273.13 C 1857.21 270.16 1861.42 269.45 1865.01 269.76 C 1869.97 270.54 1874.84 272.31 1879.06 275.06 C 1880.62 276.06 1880.91 278.10 1880.50 279.79 C 1879.70 283.18 1878.38 286.42 1877.35 289.74 C 1872.24 289.88 1868.11 285.80 1862.95 286.26 C 1859.39 285.81 1858.49 291.00 1861.11 292.79 C 1866.26 296.91 1873.50 297.94 1877.82 303.25 L 1876.48 302.74 C 1872.83 300.50 1869.12 298.37 1865.19 296.68 C 1862.36 295.39 1858.98 293.45 1858.83 289.96 C 1858.59 287.69 1860.39 286.02 1861.52 284.27 C 1866.80 285.01 1871.63 287.30 1876.61 289.09 C 1878.12 285.08 1879.60 280.99 1880.03 276.69 C 1872.60 272.08 1863.22 269.16 1854.85 273.13 Z" />
</g>
<g id="#7a7a7aff">
<path fill="#7a7a7a" opacity="1.00" d=" M 1268.40 274.92 C 1268.28 273.20 1268.83 270.51 1271.05 270.62 C 1273.89 270.62 1277.17 269.84 1279.67 271.62 C 1276.33 271.77 1273.01 271.77 1269.69 271.77 C 1269.09 282.95 1269.73 294.15 1269.35 305.33 C 1268.36 304.47 1267.39 303.64 1266.61 302.61 L 1268.46 302.52 C 1268.36 293.32 1268.40 284.12 1268.40 274.92 Z" />
</g>
<g id="#131313ff">
<path fill="#131313" opacity="1.00" d=" M 349.05 279.98 C 350.27 279.02 351.91 279.62 353.33 279.57 C 353.63 281.01 355.14 282.50 354.21 283.97 C 353.52 285.96 351.13 286.35 349.40 285.64 C 347.32 284.52 347.17 281.34 349.05 279.98 Z" />
</g>
<g id="#0a0a0aff">
<path fill="#0a0a0a" opacity="1.00" d=" M 131.72 283.97 C 132.81 282.59 133.68 280.23 135.90 281.13 C 136.66 282.06 138.30 283.52 136.95 284.72 C 135.85 287.17 132.96 285.40 131.72 283.97 Z" />
<path fill="#0a0a0a" opacity="1.00" d=" M 362.36 288.05 C 372.69 288.84 383.10 288.69 393.44 288.06 C 393.32 291.21 393.30 294.37 393.04 297.51 C 392.22 295.67 391.55 293.78 390.89 291.88 C 387.62 290.70 384.11 290.79 380.68 290.77 C 380.67 299.51 380.49 308.26 380.75 316.99 C 380.64 319.55 383.75 319.76 385.45 320.72 C 380.48 320.95 375.50 320.87 370.54 320.77 C 372.26 319.72 374.98 319.33 375.08 316.83 C 375.37 308.17 375.03 299.48 375.16 290.81 C 371.59 290.96 367.68 290.30 364.45 292.17 C 363.93 293.77 363.62 295.42 363.21 297.05 C 361.07 294.63 362.72 290.98 362.36 288.05 Z" />
<path fill="#0a0a0a" opacity="1.00" d=" M 397.09 288.55 C 404.31 288.22 411.60 288.24 418.83 288.37 C 420.20 290.89 418.83 293.93 418.21 296.50 C 417.30 294.89 417.83 292.04 415.63 291.40 C 412.82 290.27 409.69 290.76 406.74 290.60 C 406.70 294.68 406.72 298.75 406.76 302.84 C 410.64 302.78 414.55 302.92 418.39 302.24 C 418.13 304.08 417.87 305.93 417.62 307.78 C 416.97 306.85 416.34 305.91 415.72 304.96 C 412.72 304.84 409.71 304.82 406.72 304.84 C 406.78 308.90 406.54 312.98 406.95 317.03 C 408.67 319.55 412.38 318.11 414.98 318.35 C 419.01 318.43 419.75 313.91 421.71 311.37 C 421.44 314.36 423.00 318.93 419.96 320.82 C 412.48 321.14 404.98 320.44 397.50 321.05 C 398.73 320.19 399.99 319.35 401.22 318.49 C 401.49 309.09 402.00 299.59 400.93 290.23 C 399.63 289.69 398.35 289.16 397.09 288.55 Z" />
</g>
<g id="#070707ff">
<path fill="#070707" opacity="1.00" d=" M 140.05 284.82 C 138.68 283.71 140.20 282.03 141.12 281.24 C 142.67 280.34 143.82 282.06 144.83 282.94 C 144.67 283.58 144.35 284.86 144.19 285.49 C 142.86 285.57 140.74 286.56 140.05 284.82 Z" />
</g>
<g id="#888888ff">
<path fill="#888888" opacity="1.00" d=" M 1484.57 284.69 C 1488.57 284.68 1492.59 284.67 1496.61 284.53 C 1496.62 286.78 1494.32 286.07 1493.00 286.31 C 1490.46 286.36 1487.91 286.31 1485.40 286.33 C 1485.41 301.90 1485.35 317.46 1485.42 333.03 C 1485.33 334.77 1485.57 336.85 1484.09 338.12 C 1480.88 338.80 1477.58 338.36 1474.35 338.37 C 1472.83 334.42 1473.38 330.14 1473.34 326.01 C 1473.31 312.77 1473.39 299.53 1473.28 286.29 C 1469.91 286.29 1466.55 286.29 1463.19 286.31 C 1463.15 285.88 1463.05 285.00 1463.01 284.57 C 1466.58 284.66 1470.15 284.64 1473.73 284.58 C 1475.04 302.16 1473.40 319.87 1474.60 337.46 C 1477.62 337.51 1480.64 337.55 1483.68 337.59 C 1484.86 331.11 1484.16 324.50 1484.32 317.96 C 1484.43 306.87 1484.04 295.77 1484.57 284.69 Z" />
</g>
<g id="#fdfdfdff">
</g>
<g id="#0b0b0bff">
<path fill="#0b0b0b" opacity="1.00" d=" M 119.38 288.21 C 123.76 288.46 128.16 288.11 132.53 288.41 C 130.90 289.48 128.85 290.51 129.10 292.83 C 128.93 300.14 128.31 307.64 130.06 314.82 C 132.04 320.10 139.14 320.63 143.63 318.59 C 147.17 316.76 148.37 312.64 148.37 308.92 C 148.43 302.88 148.67 296.80 148.12 290.77 C 147.15 289.68 145.80 289.04 144.64 288.19 C 148.08 288.32 151.53 288.37 154.97 288.20 C 153.95 289.11 152.91 290.01 151.87 290.91 C 151.45 297.22 151.95 303.56 151.43 309.87 C 150.87 316.06 145.62 321.94 139.10 321.60 C 133.22 322.33 126.32 319.99 124.29 313.92 C 122.60 306.37 124.39 298.51 123.08 290.93 C 122.01 289.81 120.60 289.13 119.38 288.21 Z" />
<path fill="#0b0b0b" opacity="1.00" d=" M 344.62 288.43 C 349.00 288.14 353.40 288.47 357.79 288.18 C 356.14 289.43 353.57 290.38 353.93 292.93 C 353.75 300.67 353.70 308.43 353.97 316.16 C 353.68 318.75 356.03 319.95 357.92 321.02 C 353.53 320.81 349.12 320.72 344.73 321.07 C 346.40 319.72 348.82 318.56 348.34 315.98 C 348.53 307.98 348.69 299.94 348.22 291.94 C 348.31 289.94 345.78 289.55 344.62 288.43 Z" />
</g>
<g id="#0d0d0dff">
<path fill="#0d0d0d" opacity="1.00" d=" M 199.59 288.16 C 203.96 288.40 208.33 288.33 212.70 288.19 C 211.50 289.40 209.17 289.95 209.09 291.95 C 208.61 297.63 208.94 303.34 208.83 309.04 C 208.90 312.25 208.59 315.56 209.52 318.68 C 210.54 319.57 211.77 320.16 212.91 320.88 C 208.51 320.86 204.10 320.71 199.71 321.06 C 201.07 319.88 203.43 319.17 203.26 316.98 C 203.67 308.68 203.67 300.32 203.24 292.02 C 203.29 289.94 200.84 289.38 199.59 288.16 Z" />
<path fill="#0d0d0d" opacity="1.00" d=" M 451.84 288.25 C 456.11 288.35 460.40 288.11 464.66 288.50 C 463.30 289.55 460.87 289.92 460.97 292.10 C 460.66 300.39 460.67 308.73 461.03 317.02 C 460.93 319.30 463.38 319.85 464.93 320.81 C 460.49 320.91 456.05 320.73 451.62 321.02 C 452.76 320.21 453.90 319.42 455.06 318.65 C 455.70 310.11 455.53 301.51 455.27 292.96 C 455.66 290.56 453.24 289.64 451.84 288.25 Z" />
</g>
<g id="#0c0c0cff">
<path fill="#0c0c0c" opacity="1.00" d=" M 253.48 288.45 C 260.63 288.25 267.81 288.27 274.97 288.33 C 276.70 290.38 275.27 293.87 274.82 296.35 C 273.83 294.74 273.97 292.00 271.80 291.35 C 269.04 290.30 266.00 290.75 263.12 290.62 C 263.03 294.66 263.07 298.70 263.13 302.73 C 267.03 302.83 270.96 302.98 274.80 302.18 C 274.55 303.90 274.33 305.62 274.15 307.35 C 273.37 306.54 272.59 305.72 271.82 304.91 C 268.91 304.85 266.01 304.83 263.11 304.84 C 263.14 309.31 262.83 313.82 263.66 318.24 C 266.70 318.35 269.82 318.77 272.83 318.09 C 275.79 317.03 276.47 313.57 278.19 311.29 C 278.29 314.29 277.99 317.27 277.74 320.26 C 269.87 321.81 261.68 320.21 253.69 321.03 C 254.87 320.31 256.06 319.60 257.26 318.91 C 258.28 312.33 257.80 305.65 257.91 299.02 C 257.80 296.21 258.01 293.31 257.26 290.58 C 256.06 289.77 254.73 289.16 253.48 288.45 Z" />
</g>
<g id="#8a8a8aff">
<path fill="#8a8a8a" opacity="1.00" d=" M 1382.55 289.40 C 1382.94 289.45 1383.73 289.54 1384.12 289.59 C 1384.93 292.44 1385.95 295.29 1385.88 298.30 C 1384.63 295.92 1383.88 293.33 1383.16 290.76 C 1381.87 295.76 1380.35 300.70 1378.92 305.66 C 1381.69 305.67 1384.49 305.69 1387.28 305.72 C 1386.92 303.71 1386.61 301.70 1386.34 299.68 C 1387.77 301.74 1388.24 304.23 1388.80 306.64 C 1385.29 307.19 1381.73 307.19 1378.21 307.18 C 1378.75 301.07 1381.24 295.36 1382.55 289.40 Z" />
</g>
<g id="#777777ff">
<path fill="#777777" opacity="1.00" d=" M 813.65 302.49 C 814.17 302.01 814.71 301.53 815.26 301.05 C 816.19 304.96 818.13 308.77 818.01 312.86 C 815.68 313.15 813.34 312.91 811.02 312.74 C 811.66 309.27 812.63 305.87 813.65 302.49 M 812.18 312.44 C 813.90 312.13 815.64 311.83 817.38 311.52 C 816.43 308.64 815.61 305.73 814.85 302.80 C 813.64 305.92 812.74 309.15 812.18 312.44 Z" />
</g>
<g id="#6e6e6eff">
<path fill="#6e6e6e" opacity="1.00" d=" M 1060.29 300.70 C 1061.39 302.64 1061.98 304.80 1062.19 307.04 C 1061.61 305.51 1060.98 304.00 1060.41 302.49 C 1059.42 305.74 1058.49 309.01 1057.63 312.29 C 1059.43 312.31 1061.25 312.32 1063.07 312.34 C 1063.00 311.65 1062.86 310.27 1062.78 309.58 C 1063.21 310.66 1063.63 311.75 1064.03 312.85 C 1061.48 312.90 1058.93 312.82 1056.40 312.55 C 1057.64 308.58 1058.58 304.50 1060.29 300.70 Z" />
</g>
<g id="#909090ff">
<path fill="#909090" opacity="1.00" d=" M 1101.75 301.96 C 1102.78 303.35 1103.78 304.78 1104.68 306.27 L 1102.35 306.19 C 1102.51 314.77 1102.31 323.36 1102.46 331.94 C 1102.37 333.93 1102.77 336.26 1101.22 337.83 C 1101.81 325.88 1100.91 313.89 1101.75 301.96 Z" />
</g>
<g id="#f9f9f9ff">
</g>
<g id="#fbfbfbff">
</g>
<g id="#414141ff">
<path fill="#414141" opacity="1.00" d=" M 924.94 336.83 C 930.62 337.57 936.35 337.75 942.08 337.64 C 936.24 341.29 929.14 338.61 923.09 337.00 L 924.94 336.83 Z" />
</g>
</svg>
