<?xml version="1.0" encoding="UTF-8" ?>
<!DOCTYPE svg PUBLIC "-//W3C//DTD SVG 1.1//EN" "http://www.w3.org/Graphics/SVG/1.1/DTD/svg11.dtd">
<svg width="1273pt" height="355pt" viewBox="0 0 1273 355" version="1.1" xmlns="http://www.w3.org/2000/svg">
<g id="#ffffffff">
</g>
<g id="#131514ff">
<path fill="#131514" opacity="1.00" d=" M 235.73 50.07 C 236.58 48.49 238.49 48.85 239.96 48.76 C 247.97 48.79 255.99 48.78 264.00 48.76 C 265.45 48.60 266.76 49.20 267.97 49.93 C 267.78 59.30 267.93 68.68 267.89 78.05 C 268.20 79.39 267.15 80.17 266.31 80.96 C 256.85 80.69 247.39 80.98 237.93 80.83 C 236.44 80.98 235.39 79.33 235.62 77.98 C 235.72 68.68 235.50 59.36 235.73 50.07 Z" />
<path fill="#131514" opacity="1.00" d=" M 275.70 52.03 C 275.46 50.11 277.16 48.55 279.04 48.81 C 287.68 48.72 296.33 48.73 304.97 48.81 C 306.63 48.66 308.01 50.33 307.76 51.93 C 307.75 98.27 307.77 144.62 307.75 190.96 C 307.88 192.44 306.67 194.16 305.06 193.96 C 296.37 193.94 287.67 193.97 278.98 193.94 C 277.47 194.25 276.56 193.02 275.60 192.14 C 275.82 145.44 275.63 98.73 275.70 52.03 Z" />
<path fill="#131514" opacity="1.00" d=" M 316.49 50.17 C 316.87 49.86 317.65 49.22 318.04 48.91 C 327.01 48.56 336.02 48.87 345.00 48.76 C 346.44 48.57 347.68 49.20 348.83 49.99 C 348.59 59.64 348.92 69.30 348.68 78.95 C 348.76 80.29 347.15 80.93 346.03 80.82 C 337.02 80.87 328.00 80.87 318.99 80.82 C 317.44 81.09 316.15 79.52 316.40 78.05 C 316.52 68.76 316.32 59.46 316.49 50.17 Z" />
</g>
<g id="#feb801ff">
<path fill="#feb801" opacity="1.00" d=" M 235.57 90.80 C 235.91 90.24 236.57 89.13 236.91 88.58 C 246.84 88.51 256.77 88.59 266.70 88.53 L 266.63 88.88 C 266.35 90.25 266.16 91.63 266.06 93.02 C 266.24 117.68 266.07 142.35 266.14 167.02 C 266.02 175.56 266.34 184.11 265.86 192.64 C 255.98 192.72 246.09 192.41 236.22 192.81 L 235.60 192.84 C 235.56 158.82 235.60 124.81 235.57 90.80 Z" />
</g>
<g id="#e7b228ff">
<path fill="#e7b228" opacity="1.00" d=" M 316.54 90.90 C 316.26 88.98 318.42 88.22 319.96 88.49 C 329.04 88.60 338.13 88.32 347.21 88.60 C 349.25 89.63 348.45 92.14 348.69 93.98 C 348.58 127.11 348.79 160.24 348.58 193.37 C 347.09 193.85 345.57 194.34 343.99 194.28 C 336.65 194.28 329.30 194.22 321.95 194.28 C 320.08 194.38 318.26 193.92 316.50 193.34 C 316.51 159.19 316.41 125.04 316.54 90.90 M 318.22 91.03 C 318.17 123.68 318.19 156.34 318.21 188.99 C 318.21 190.35 318.20 192.69 320.16 192.58 C 326.43 192.89 332.73 192.49 339.01 192.65 C 341.41 192.53 343.95 193.01 346.25 192.22 C 347.15 189.96 346.96 187.46 347.02 185.08 C 346.70 153.78 347.23 122.47 346.70 91.18 C 337.24 90.47 327.67 90.32 318.22 91.03 Z" />
</g>
<g id="#ebb627ff">
<path fill="#ebb627" opacity="1.00" d=" M 266.06 93.02 C 266.16 91.63 266.35 90.25 266.63 88.88 C 267.98 90.67 267.67 92.97 267.73 95.05 C 267.61 127.36 267.78 159.67 267.64 191.98 C 267.92 194.51 264.69 194.31 263.02 194.30 C 254.69 194.07 246.32 194.61 238.01 194.02 C 237.56 193.72 236.66 193.11 236.22 192.81 C 246.09 192.41 255.98 192.72 265.86 192.64 C 266.34 184.11 266.02 175.56 266.14 167.02 C 266.07 142.35 266.24 117.68 266.06 93.02 Z" />
</g>
<g id="#fffcbeff">
<path fill="#fffcbe" opacity="1.00" d=" M 268.50 89.66 C 268.92 91.07 269.38 92.51 269.39 94.01 C 269.30 125.67 269.37 157.35 269.36 189.01 C 269.35 190.48 268.92 191.89 268.53 193.29 C 267.72 188.56 267.86 183.75 267.86 178.98 C 267.79 155.64 267.78 132.30 267.90 108.97 C 268.04 102.53 267.14 96.02 268.50 89.66 Z" />
</g>
<g id="#fbba00ff">
<path fill="#fbba00" opacity="1.00" d=" M 318.22 91.03 C 327.67 90.32 337.24 90.47 346.70 91.18 C 347.23 122.47 346.70 153.78 347.02 185.08 C 346.96 187.46 347.15 189.96 346.25 192.22 C 343.95 193.01 341.41 192.53 339.01 192.65 C 332.73 192.49 326.43 192.89 320.16 192.58 C 318.20 192.69 318.21 190.35 318.21 188.99 C 318.19 156.34 318.17 123.68 318.22 91.03 Z" />
</g>
<g id="#000000ff">
<path fill="#000000" opacity="1.00" d=" M 962.61 103.64 L 962.56 102.43 C 964.20 102.39 965.85 102.37 967.51 102.35 L 967.39 103.59 L 968.56 103.51 C 968.55 104.51 968.55 106.50 968.55 107.50 L 967.45 107.39 L 967.57 108.61 L 966.31 108.37 L 966.47 109.80 C 964.46 109.65 962.99 108.25 961.47 107.11 C 961.43 106.21 961.37 104.40 961.34 103.49 L 962.61 103.64 Z" />
<path fill="#000000" opacity="1.00" d=" M 1124.73 108.65 C 1123.11 106.74 1123.40 104.38 1124.71 102.40 C 1126.28 102.36 1127.88 102.34 1129.48 102.34 L 1129.40 103.61 L 1130.69 103.52 C 1130.61 105.15 1130.53 106.79 1130.44 108.42 C 1128.52 108.54 1126.62 108.62 1124.73 108.65 Z" />
</g>
<g id="#868686ff">
<path fill="#868686" opacity="1.00" d=" M 1029.70 110.33 C 1031.49 110.47 1033.11 111.32 1033.89 113.03 C 1038.46 121.38 1042.00 130.25 1046.37 138.70 C 1047.48 140.48 1047.74 142.57 1047.85 144.64 C 1045.48 145.55 1043.00 147.47 1040.36 146.47 C 1038.88 144.29 1038.18 141.71 1037.25 139.29 C 1033.36 139.29 1029.48 139.31 1025.60 139.24 C 1024.43 141.48 1023.59 143.88 1023.01 146.33 C 1019.82 147.32 1016.91 145.67 1014.18 144.23 C 1014.86 140.67 1016.86 137.62 1018.40 134.40 C 1022.27 126.43 1025.89 118.33 1029.70 110.33 M 1017.15 140.29 C 1016.52 141.53 1016.23 142.84 1016.28 144.24 C 1018.01 144.47 1019.75 144.69 1021.50 144.92 C 1022.55 142.59 1023.19 140.07 1024.43 137.83 C 1028.81 137.44 1033.23 137.82 1037.63 137.59 C 1039.06 139.80 1040.15 142.21 1040.91 144.73 C 1042.77 144.55 1047.45 145.26 1046.31 142.04 C 1041.81 133.34 1037.98 124.32 1033.69 115.52 C 1033.04 114.06 1031.93 112.88 1030.88 111.73 C 1026.01 121.11 1021.94 130.88 1017.15 140.29 Z" />
</g>
<g id="#858585ff">
<path fill="#858585" opacity="1.00" d=" M 1207.69 110.65 C 1208.57 110.63 1209.46 110.60 1210.36 110.58 C 1215.16 115.62 1220.15 120.55 1224.40 126.08 L 1223.01 125.76 C 1218.10 121.60 1214.54 116.08 1209.59 111.95 C 1209.02 122.89 1209.52 133.87 1209.28 144.82 C 1210.98 144.70 1212.69 144.57 1214.41 144.43 C 1214.45 138.38 1214.31 132.34 1214.14 126.30 C 1214.78 126.33 1216.06 126.39 1216.70 126.42 C 1222.26 133.04 1227.65 139.99 1234.53 145.30 C 1234.48 134.36 1234.62 123.41 1234.47 112.47 C 1232.82 112.77 1230.72 112.16 1229.61 113.75 C 1229.33 119.52 1229.78 125.30 1229.71 131.07 C 1227.75 130.67 1225.46 130.39 1224.90 128.10 C 1226.10 128.25 1227.31 128.40 1228.53 128.55 C 1227.26 123.45 1227.57 118.13 1227.77 112.93 C 1229.59 109.64 1233.97 110.40 1236.52 112.39 C 1236.27 123.58 1236.52 134.79 1236.40 145.98 C 1236.42 148.21 1233.63 147.23 1232.73 146.19 C 1228.02 141.57 1223.46 136.77 1219.30 131.64 C 1218.29 130.33 1216.97 129.32 1215.62 128.43 C 1215.40 134.30 1216.31 140.30 1215.14 146.10 C 1212.84 146.98 1210.13 146.89 1207.85 146.05 C 1207.24 134.27 1207.67 122.44 1207.69 110.65 Z" />
<path fill="#858585" opacity="1.00" d=" M 1058.53 116.73 C 1062.84 113.18 1071.00 117.74 1069.25 123.46 C 1067.63 126.59 1063.66 129.18 1060.11 128.02 C 1057.11 125.21 1059.25 120.39 1058.53 116.73 M 1060.30 117.12 C 1060.23 120.35 1060.27 123.59 1060.39 126.82 C 1063.60 126.81 1068.42 125.09 1067.75 121.06 C 1067.42 117.48 1063.08 117.22 1060.30 117.12 Z" />
</g>
<g id="#6d6d6dff">
<path fill="#6d6d6d" opacity="1.00" d=" M 1054.80 111.68 C 1059.81 110.80 1065.36 109.34 1070.13 111.95 C 1074.19 113.97 1077.92 118.67 1076.17 123.41 C 1075.43 124.99 1074.92 127.24 1072.88 127.53 C 1074.06 124.87 1075.05 121.94 1074.60 118.99 C 1073.96 115.76 1070.99 113.52 1067.93 112.79 C 1063.91 111.54 1059.73 112.75 1055.64 112.59 L 1054.80 111.68 Z" />
</g>
<g id="#070707ff">
<path fill="#070707" opacity="1.00" d=" M 1185.35 111.36 C 1186.39 111.46 1187.43 111.55 1188.50 111.65 C 1188.45 112.11 1188.36 113.03 1188.31 113.49 L 1189.62 113.58 C 1189.55 114.06 1189.41 115.02 1189.34 115.51 L 1190.26 115.51 C 1190.50 116.09 1190.97 117.24 1191.21 117.82 C 1191.49 118.31 1192.04 119.28 1192.32 119.77 C 1192.94 121.11 1193.68 122.39 1194.40 123.70 C 1194.91 124.91 1195.42 126.12 1195.75 127.41 L 1196.67 127.59 C 1196.57 128.07 1196.38 129.03 1196.28 129.51 L 1197.26 129.52 C 1197.64 130.86 1198.09 132.18 1198.54 133.51 C 1199.22 134.63 1199.86 135.79 1200.52 136.95 C 1200.47 137.33 1200.38 138.09 1200.33 138.47 L 1201.18 138.57 C 1201.51 139.16 1202.16 140.32 1202.48 140.91 C 1202.52 142.03 1202.61 143.16 1202.71 144.28 C 1202.06 144.56 1200.75 145.12 1200.10 145.40 C 1199.17 145.50 1197.32 145.69 1196.40 145.79 L 1196.60 144.50 L 1195.71 144.42 C 1195.11 142.71 1194.56 140.97 1194.42 139.15 C 1190.77 136.73 1186.15 137.93 1182.06 137.86 C 1181.65 138.23 1180.83 138.96 1180.42 139.32 C 1180.24 139.48 1179.87 139.81 1179.69 139.97 C 1179.59 140.48 1179.40 141.51 1179.30 142.02 C 1178.67 143.09 1178.35 144.26 1178.33 145.53 C 1176.56 145.38 1174.12 146.35 1173.01 144.50 C 1172.62 144.53 1171.82 144.60 1171.42 144.63 C 1171.44 143.28 1171.43 141.93 1171.48 140.58 L 1172.64 140.50 C 1172.58 140.02 1172.47 139.05 1172.41 138.57 L 1173.30 138.51 C 1173.62 137.90 1174.24 136.68 1174.56 136.07 C 1174.50 135.69 1174.38 134.93 1174.33 134.56 L 1175.64 134.45 C 1175.56 133.96 1175.41 132.97 1175.33 132.48 L 1176.31 132.51 C 1176.66 131.13 1177.07 129.77 1177.48 128.41 L 1178.22 128.40 C 1178.52 127.30 1178.88 126.22 1179.28 125.15 C 1179.88 124.03 1180.50 122.89 1180.77 121.62 L 1181.64 121.46 C 1181.58 120.97 1181.46 120.00 1181.40 119.51 L 1182.70 119.56 C 1182.61 119.07 1182.44 118.09 1182.36 117.60 L 1183.67 117.42 C 1183.57 116.94 1183.39 115.99 1183.29 115.51 L 1184.70 115.48 C 1184.60 115.00 1184.39 114.05 1184.29 113.57 L 1185.54 113.37 C 1185.49 112.86 1185.40 111.86 1185.35 111.36 M 1184.45 129.48 L 1183.47 129.60 C 1183.48 130.57 1183.51 132.49 1183.52 133.45 C 1185.91 133.46 1188.31 133.48 1190.72 133.51 C 1190.83 131.82 1190.43 130.33 1189.54 129.04 C 1189.45 127.88 1189.39 126.71 1189.36 125.55 C 1188.71 125.57 1188.08 125.60 1187.47 125.63 L 1187.62 124.33 L 1185.66 124.57 C 1185.28 126.21 1184.84 127.84 1184.45 129.48 Z" />
<path fill="#070707" opacity="1.00" d=" M 976.48 111.15 C 978.28 111.17 979.40 112.40 980.34 113.75 C 980.79 114.55 981.24 115.35 981.71 116.16 C 982.76 117.50 983.77 118.88 984.69 120.33 C 985.29 121.14 985.90 121.95 986.52 122.75 L 986.59 123.21 C 987.34 124.27 988.08 125.34 988.78 126.45 L 989.31 126.54 C 989.74 127.53 990.18 128.52 990.64 129.51 L 991.60 129.53 C 991.57 130.08 991.50 131.17 991.47 131.72 C 994.64 132.46 995.85 130.03 996.72 127.54 L 997.34 127.50 C 997.77 126.59 998.21 125.70 998.69 124.81 C 998.98 124.54 999.56 124.00 999.85 123.74 C 1000.07 123.19 1000.50 122.09 1000.72 121.54 L 1001.27 121.48 C 1001.91 120.44 1002.58 119.39 1003.21 118.33 C 1003.46 118.04 1003.95 117.44 1004.20 117.15 C 1005.33 115.78 1006.33 114.28 1006.91 112.59 C 1008.09 112.50 1009.27 112.42 1010.47 112.35 C 1010.20 122.93 1010.62 133.53 1010.29 144.11 C 1010.11 144.50 1009.75 145.28 1009.57 145.68 C 1007.55 145.62 1005.55 145.59 1003.56 145.58 C 1002.36 140.88 1003.71 136.13 1003.51 131.37 C 1002.44 131.40 1001.38 131.42 1000.34 131.45 C 1000.41 131.93 1000.54 132.88 1000.61 133.36 L 999.37 133.59 C 999.44 134.06 999.58 135.01 999.65 135.48 L 998.73 135.49 C 998.42 136.10 997.79 137.32 997.48 137.94 C 997.49 138.30 997.52 139.04 997.54 139.40 L 996.31 139.35 L 996.64 140.56 L 995.76 140.60 C 995.40 141.67 994.97 142.72 994.48 143.73 C 993.73 143.67 992.23 143.54 991.48 143.47 C 991.48 143.08 991.48 142.30 991.48 141.91 C 991.16 141.33 990.54 140.18 990.22 139.60 L 989.73 139.51 C 989.47 138.94 988.95 137.81 988.70 137.24 C 987.84 135.69 986.99 134.14 986.34 132.50 L 985.29 132.51 C 985.37 132.04 985.51 131.11 985.58 130.64 C 985.04 130.57 983.98 130.45 983.45 130.38 C 983.48 135.45 983.55 140.51 983.52 145.58 C 981.16 145.60 978.82 145.60 976.49 145.56 C 976.49 134.09 976.47 122.62 976.48 111.15 Z" />
<path fill="#070707" opacity="1.00" d=" M 1017.15 140.29 C 1021.94 130.88 1026.01 121.11 1030.88 111.73 C 1031.93 112.88 1033.04 114.06 1033.69 115.52 C 1037.98 124.32 1041.81 133.34 1046.31 142.04 C 1047.45 145.26 1042.77 144.55 1040.91 144.73 C 1040.15 142.21 1039.06 139.80 1037.63 137.59 C 1033.23 137.82 1028.81 137.44 1024.43 137.83 C 1023.19 140.07 1022.55 142.59 1021.50 144.92 C 1019.75 144.69 1018.01 144.47 1016.28 144.24 C 1016.23 142.84 1016.52 141.53 1017.15 140.29 M 1030.55 125.51 L 1029.45 125.58 C 1029.47 126.31 1029.50 127.79 1029.52 128.53 L 1028.41 128.46 C 1028.35 129.54 1028.23 131.71 1028.17 132.80 C 1030.41 132.76 1032.66 132.72 1034.92 132.67 C 1034.45 130.61 1033.90 128.59 1033.35 126.57 L 1032.35 126.44 C 1032.42 125.98 1032.56 125.05 1032.62 124.59 L 1030.40 124.30 L 1030.55 125.51 Z" />
<path fill="#070707" opacity="1.00" d=" M 1098.42 176.54 C 1098.42 174.87 1098.44 173.19 1098.49 171.52 C 1105.51 171.43 1112.55 171.62 1119.58 171.41 L 1119.34 172.65 L 1120.55 172.46 C 1120.51 173.47 1120.42 175.49 1120.38 176.50 C 1118.06 176.59 1115.74 176.59 1113.44 176.48 L 1113.64 177.61 L 1112.51 177.48 C 1112.64 186.84 1112.60 196.19 1112.56 205.55 C 1110.60 205.57 1108.67 205.60 1106.74 205.63 C 1106.43 205.27 1105.81 204.56 1105.50 204.20 C 1105.61 194.99 1105.69 185.78 1105.51 176.58 C 1103.13 176.60 1100.77 176.58 1098.42 176.54 Z" />
</g>
<g id="#353b70ff">
<path fill="#353b70" opacity="1.00" d=" M 679.51 112.36 C 680.73 112.40 681.96 112.45 683.21 112.51 C 684.95 113.92 686.81 115.20 688.78 116.30 C 689.89 116.79 691.01 117.31 692.14 117.83 C 693.05 118.29 693.97 118.77 694.90 119.24 C 697.57 120.55 700.26 121.81 703.07 122.80 C 704.36 123.25 705.64 123.75 706.92 124.28 C 708.62 124.78 710.32 125.33 712.02 125.88 C 713.35 126.20 714.66 126.51 715.99 126.87 C 719.36 127.90 722.92 127.80 726.41 127.65 C 726.42 128.26 726.44 128.87 726.47 129.48 C 745.64 129.86 764.82 129.50 783.99 129.27 C 786.84 128.00 790.05 128.72 793.08 128.47 C 800.36 128.18 807.72 128.96 814.95 127.71 C 825.62 127.20 836.32 127.70 847.00 127.24 C 854.84 125.55 863.14 127.58 870.98 125.81 C 874.65 125.27 878.39 124.87 881.93 123.68 C 882.48 123.61 883.59 123.46 884.14 123.39 C 885.72 122.80 887.33 122.25 888.92 121.62 C 889.49 121.56 890.64 121.42 891.22 121.35 C 892.10 120.78 892.98 120.21 893.88 119.63 C 894.42 119.56 895.50 119.42 896.04 119.35 C 896.96 118.81 897.89 118.28 898.83 117.74 C 900.59 116.94 902.32 116.04 904.13 115.31 C 905.10 115.39 906.08 115.48 907.07 115.59 C 906.26 123.07 906.49 130.60 906.97 138.09 C 907.22 139.95 905.64 141.31 904.62 142.64 C 904.15 142.93 903.22 143.50 902.76 143.79 C 900.68 144.98 898.59 146.21 896.29 146.90 C 896.76 152.06 900.73 156.08 902.34 160.95 C 902.42 161.50 902.58 162.60 902.66 163.15 C 903.21 164.41 903.76 165.67 904.34 166.92 C 904.45 168.30 904.59 169.68 904.75 171.05 C 906.39 174.45 906.57 178.28 906.63 181.98 C 906.58 193.04 908.00 204.70 902.82 214.94 C 898.69 225.17 891.35 233.94 882.47 240.40 L 881.70 240.65 C 879.87 241.86 878.06 243.09 876.16 244.16 C 873.47 245.25 870.80 246.39 868.06 247.33 C 867.53 247.42 866.45 247.61 865.92 247.71 C 862.10 249.09 857.96 248.52 853.99 248.70 C 849.33 248.51 844.51 249.21 840.00 247.76 C 838.98 247.58 837.97 247.40 836.97 247.23 C 835.55 246.79 834.12 246.48 832.69 246.22 C 831.81 245.73 830.94 245.24 830.08 244.75 C 828.82 244.47 827.50 244.43 826.38 243.76 C 821.35 241.17 816.19 238.76 811.65 235.34 C 811.47 234.92 811.12 234.09 810.95 233.67 C 810.82 233.42 810.56 232.92 810.44 232.67 C 809.08 231.64 806.13 231.41 807.22 229.07 C 811.68 229.61 814.87 233.21 818.58 235.40 C 822.87 238.66 828.28 239.63 832.97 242.12 C 834.53 242.93 836.18 243.61 837.97 243.79 C 844.27 244.54 850.62 245.73 857.00 244.95 C 861.95 244.31 867.23 244.29 871.67 241.71 C 874.88 239.87 878.34 238.47 881.49 236.50 C 887.27 232.33 891.97 226.82 895.76 220.80 C 899.06 216.25 899.69 210.51 901.67 205.37 C 903.75 199.80 902.99 193.77 903.19 187.95 C 903.55 179.76 900.92 171.88 898.82 164.07 C 897.31 158.45 893.51 153.71 892.28 148.01 C 893.87 142.78 900.03 141.88 903.67 138.59 C 903.07 132.44 904.64 126.14 902.90 120.12 C 899.05 121.90 895.56 124.50 891.43 125.63 C 883.10 127.92 874.55 129.24 866.06 130.72 C 851.71 131.12 837.35 131.06 823.00 131.04 C 817.26 131.02 811.74 133.00 805.99 132.89 C 791.34 132.75 776.69 133.09 762.04 133.08 C 757.67 133.02 753.34 133.44 749.03 134.02 C 743.65 134.79 738.26 133.85 732.91 133.43 C 715.63 133.05 699.30 126.22 684.20 118.29 C 684.32 122.91 683.32 127.41 682.35 131.89 C 684.21 139.80 693.90 141.94 696.87 149.12 C 696.08 155.85 691.32 161.38 689.89 167.98 C 688.81 173.02 687.65 178.05 686.30 183.03 C 684.80 194.19 684.06 205.69 686.43 216.78 C 688.98 222.91 690.98 229.50 695.43 234.59 C 698.45 238.22 701.05 242.44 705.32 244.76 C 709.58 247.17 713.66 250.07 718.40 251.50 C 724.56 252.87 730.90 251.66 737.14 251.64 C 748.71 251.04 758.22 243.86 767.39 237.55 C 770.13 235.59 771.99 232.72 774.42 230.44 C 776.03 228.86 778.49 229.38 780.53 229.14 C 779.17 229.93 777.84 230.74 776.58 231.65 C 776.40 232.10 776.04 233.00 775.86 233.45 C 775.71 233.86 775.41 234.70 775.27 235.11 C 768.36 241.77 760.78 247.98 751.88 251.78 C 750.44 252.38 749.05 253.08 747.66 253.76 C 745.78 254.26 743.91 254.84 742.04 255.33 C 734.01 256.12 725.91 255.98 717.87 255.39 C 716.65 254.84 715.42 254.31 714.21 253.77 C 699.79 248.87 689.00 236.04 684.19 221.88 C 680.40 212.71 681.30 202.70 681.35 193.03 C 681.44 190.35 681.29 187.59 682.23 185.02 C 682.41 183.68 682.58 182.34 682.78 181.00 C 683.45 178.73 683.40 176.29 684.27 174.08 C 685.04 172.04 685.49 169.91 685.76 167.75 C 686.28 166.85 686.82 165.96 687.36 165.06 C 687.46 164.03 687.57 163.00 687.70 161.97 C 689.05 160.52 689.53 158.62 689.73 156.69 C 690.13 156.27 690.91 155.45 691.31 155.03 C 691.39 154.46 691.56 153.33 691.64 152.76 C 692.38 151.81 693.13 150.85 693.87 149.89 C 691.71 147.68 689.15 145.94 686.58 144.26 C 684.33 142.36 681.96 140.60 679.47 139.04 C 678.92 130.15 679.81 121.25 679.51 112.36 Z" />
</g>
<g id="#060606ff">
<path fill="#060606" opacity="1.00" d=" M 919.55 112.87 C 919.91 112.28 920.63 111.09 920.99 110.50 L 921.74 112.33 C 922.17 112.45 923.02 112.70 923.44 112.83 C 923.42 113.24 923.38 114.06 923.36 114.47 L 924.19 114.59 C 925.04 116.12 926.12 117.51 927.28 118.83 C 927.74 119.72 928.19 120.62 928.63 121.52 L 929.19 121.58 C 929.49 122.13 930.09 123.24 930.39 123.80 L 930.35 124.57 L 931.31 124.53 C 931.71 125.55 932.13 126.57 932.56 127.58 L 933.58 127.54 C 933.55 128.00 933.49 128.92 933.46 129.38 L 934.65 129.48 C 934.61 129.98 934.55 130.98 934.51 131.48 C 935.52 131.51 937.53 131.59 938.54 131.63 C 938.51 131.11 938.46 130.07 938.43 129.55 L 939.64 129.57 L 939.57 128.84 C 939.87 128.27 940.49 127.12 940.79 126.55 L 941.40 126.52 C 941.81 125.52 942.23 124.52 942.66 123.52 L 943.38 123.47 C 943.79 122.49 944.21 121.51 944.65 120.54 L 945.18 120.42 C 945.87 119.32 946.63 118.27 947.44 117.24 L 947.48 116.73 C 948.71 115.41 949.88 114.02 950.93 112.54 C 951.60 112.48 952.92 112.35 953.58 112.29 C 953.33 123.37 953.52 134.46 953.46 145.54 C 951.13 145.59 948.82 145.57 946.51 145.51 C 946.42 140.46 946.54 135.42 946.55 130.38 C 946.01 130.44 944.94 130.57 944.40 130.64 C 944.48 131.11 944.65 132.04 944.74 132.51 L 943.71 132.46 C 942.60 134.82 941.47 137.16 940.28 139.48 L 939.37 139.53 C 939.43 140.00 939.55 140.95 939.61 141.42 L 938.34 141.52 C 938.39 142.04 938.50 143.06 938.55 143.58 C 937.63 143.55 935.80 143.49 934.88 143.46 C 934.28 141.38 933.32 139.44 932.31 137.54 L 931.39 137.38 C 931.46 136.90 931.60 135.94 931.67 135.46 L 930.78 135.43 C 930.48 134.82 929.88 133.59 929.58 132.97 C 929.60 132.59 929.63 131.82 929.65 131.44 C 928.58 131.42 927.52 131.39 926.48 131.36 C 926.67 134.42 926.69 137.48 926.52 140.54 L 927.44 140.48 C 927.45 141.25 927.47 142.78 927.48 143.54 L 926.30 143.54 C 926.42 144.05 926.66 145.07 926.77 145.58 C 924.36 145.60 921.95 145.57 919.56 145.47 C 919.58 134.60 919.61 123.74 919.55 112.87 M 944.39 128.85 C 945.89 129.43 947.41 130.00 948.93 130.56 C 949.76 127.57 950.47 124.35 949.14 121.38 C 947.17 123.61 945.85 126.29 944.39 128.85 Z" />
<path fill="#060606" opacity="1.00" d=" M 1052.46 112.56 C 1053.26 112.57 1054.84 112.58 1055.64 112.59 C 1059.73 112.75 1063.91 111.54 1067.93 112.79 C 1070.99 113.52 1073.96 115.76 1074.60 118.99 C 1075.05 121.94 1074.06 124.87 1072.88 127.53 L 1072.62 128.13 C 1072.46 129.56 1072.35 130.99 1072.29 132.43 L 1073.43 132.43 C 1073.93 133.76 1074.43 135.10 1074.67 136.51 L 1075.25 136.55 C 1075.49 137.72 1075.88 138.85 1076.41 139.93 C 1076.40 141.64 1077.20 143.62 1076.14 145.16 C 1074.21 145.66 1072.23 145.65 1070.28 145.74 C 1070.36 145.21 1070.54 144.14 1070.62 143.61 L 1069.53 143.42 C 1069.50 142.10 1069.47 140.78 1069.47 139.47 L 1068.27 139.58 C 1068.37 139.08 1068.55 138.07 1068.65 137.57 L 1067.79 137.37 C 1066.30 134.22 1063.20 131.54 1059.50 132.28 C 1059.55 136.71 1059.45 141.14 1059.46 145.56 C 1057.20 145.61 1054.91 145.81 1052.71 145.29 C 1052.44 134.38 1052.69 123.47 1052.46 112.56 M 1058.53 116.73 C 1059.25 120.39 1057.11 125.21 1060.11 128.02 C 1063.66 129.18 1067.63 126.59 1069.25 123.46 C 1071.00 117.74 1062.84 113.18 1058.53 116.73 Z" />
<path fill="#060606" opacity="1.00" d=" M 1095.28 116.45 C 1096.04 114.31 1097.98 112.93 1100.02 112.13 C 1103.02 110.89 1106.34 111.56 1109.51 111.49 L 1109.53 112.30 C 1111.19 112.71 1112.83 113.25 1114.50 113.72 C 1114.56 114.67 1114.67 116.58 1114.73 117.53 L 1113.47 117.34 L 1113.41 118.47 C 1112.68 118.50 1111.21 118.56 1110.48 118.58 L 1110.46 117.47 C 1107.48 117.24 1104.49 117.15 1101.52 117.40 C 1101.50 118.42 1101.47 120.46 1101.45 121.48 L 1102.62 121.50 C 1102.62 121.90 1102.60 122.71 1102.60 123.11 C 1103.69 123.40 1104.75 123.82 1105.77 124.37 L 1106.14 124.50 C 1107.29 125.14 1108.40 125.93 1109.71 126.29 C 1112.36 127.59 1114.73 129.41 1116.59 131.73 C 1116.82 134.97 1116.83 138.23 1116.58 141.48 L 1115.72 141.48 C 1115.49 141.82 1115.02 142.51 1114.78 142.85 C 1114.44 143.26 1113.76 144.06 1113.43 144.47 C 1109.21 146.48 1104.40 145.94 1099.94 145.36 C 1098.88 144.79 1097.76 144.43 1096.58 144.29 L 1096.65 143.69 C 1096.30 143.37 1095.58 142.73 1095.22 142.41 L 1094.09 142.49 C 1094.43 141.90 1095.13 140.74 1095.47 140.15 L 1095.54 139.26 C 1097.67 139.33 1100.02 139.05 1101.84 140.46 C 1103.94 140.61 1106.05 140.66 1108.17 140.60 C 1108.75 140.23 1109.90 139.49 1110.48 139.13 C 1110.48 138.32 1110.47 136.72 1110.47 135.91 C 1108.97 134.63 1107.40 133.46 1105.86 132.23 C 1104.40 131.63 1102.97 131.00 1101.56 130.34 L 1101.41 129.40 C 1100.94 129.46 1099.99 129.58 1099.51 129.64 L 1099.49 128.78 C 1097.96 127.92 1096.66 126.75 1095.52 125.45 C 1094.14 122.68 1094.38 119.57 1094.50 116.57 L 1095.28 116.45 Z" />
<path fill="#060606" opacity="1.00" d=" M 1046.87 171.56 C 1048.10 171.51 1049.33 171.47 1050.59 171.44 C 1050.53 171.94 1050.40 172.92 1050.33 173.42 L 1051.61 173.57 C 1051.54 174.05 1051.39 175.03 1051.32 175.51 L 1052.63 175.48 C 1052.58 175.96 1052.49 176.92 1052.44 177.41 L 1053.75 177.59 C 1053.63 178.06 1053.39 179.00 1053.28 179.47 L 1054.31 179.45 C 1054.63 180.08 1055.27 181.33 1055.59 181.96 C 1055.51 182.34 1055.37 183.09 1055.29 183.47 L 1056.67 183.47 C 1056.59 183.96 1056.44 184.94 1056.36 185.42 L 1057.32 185.57 C 1057.67 186.90 1058.11 188.21 1058.53 189.53 L 1059.32 189.53 C 1059.39 190.74 1059.73 191.85 1060.34 192.87 C 1060.91 193.99 1061.51 195.13 1061.68 196.42 L 1062.61 196.59 C 1062.54 197.07 1062.40 198.04 1062.33 198.52 L 1063.68 198.55 C 1063.60 199.05 1063.42 200.04 1063.34 200.54 L 1064.56 200.55 C 1064.53 201.92 1064.55 203.29 1064.55 204.66 C 1064.15 204.60 1063.35 204.46 1062.95 204.39 C 1061.87 206.22 1059.50 205.28 1057.82 205.53 C 1057.52 203.81 1057.06 202.12 1056.55 200.45 L 1055.48 200.30 C 1055.52 199.80 1055.60 198.81 1055.64 198.32 C 1051.22 198.40 1046.81 198.55 1042.41 198.32 L 1042.66 199.56 L 1041.33 199.51 C 1041.41 199.99 1041.58 200.96 1041.66 201.45 L 1040.43 201.52 C 1040.46 202.25 1040.52 203.71 1040.54 204.44 L 1039.34 204.45 L 1039.59 205.69 C 1038.59 205.65 1036.57 205.56 1035.57 205.51 L 1035.55 204.35 C 1034.99 204.39 1033.88 204.46 1033.33 204.50 C 1033.38 202.72 1033.24 200.84 1034.27 199.29 C 1034.72 198.43 1035.19 197.57 1035.67 196.72 C 1036.80 194.39 1038.19 192.12 1038.70 189.53 L 1039.44 189.58 C 1039.84 188.24 1040.30 186.93 1040.68 185.58 L 1041.59 185.41 C 1041.53 184.93 1041.40 183.96 1041.33 183.47 L 1042.30 183.49 C 1042.66 182.11 1043.08 180.75 1043.49 179.39 L 1044.51 179.48 C 1044.51 178.76 1044.50 177.32 1044.50 176.60 L 1045.49 176.55 C 1046.10 174.93 1046.59 173.27 1046.87 171.56 M 1046.92 183.67 C 1046.44 187.09 1044.24 190.02 1044.34 193.55 C 1047.44 193.73 1050.55 193.74 1053.67 193.57 C 1053.44 189.96 1051.50 186.83 1050.44 183.46 C 1049.25 183.52 1048.08 183.59 1046.92 183.67 Z" />
<path fill="#060606" opacity="1.00" d=" M 960.53 171.52 C 961.27 171.50 962.76 171.47 963.50 171.45 L 963.43 172.57 L 964.15 172.64 C 967.53 176.95 971.87 180.39 975.30 184.66 C 975.61 184.94 976.22 185.48 976.53 185.76 L 976.38 186.55 L 977.46 186.54 L 977.42 187.63 L 978.25 187.50 L 978.34 188.75 C 978.44 192.38 981.05 195.15 983.73 197.28 C 984.18 189.19 981.39 181.32 982.02 173.19 C 983.52 173.22 985.04 173.25 986.57 173.29 C 985.15 183.77 986.86 194.41 985.39 204.88 C 983.96 203.81 982.61 202.66 981.53 201.26 L 981.50 200.50 L 980.79 200.54 C 980.46 200.20 979.80 199.52 979.47 199.18 L 979.61 198.43 L 978.87 198.35 C 976.62 195.24 973.49 192.91 971.26 189.80 C 970.36 188.47 969.20 187.21 967.46 187.16 C 967.52 193.28 967.64 199.40 967.56 205.52 C 965.51 205.55 963.47 205.60 961.44 205.64 L 961.59 204.44 L 960.45 204.53 C 960.67 193.53 960.58 182.52 960.53 171.52 Z" />
<path fill="#060606" opacity="1.00" d=" M 1139.14 232.28 C 1144.42 232.25 1149.70 232.35 1155.00 232.24 C 1156.53 232.40 1158.38 231.89 1159.72 232.93 C 1160.06 236.70 1154.89 235.33 1152.51 236.47 L 1152.50 237.82 C 1152.81 246.71 1152.35 255.61 1152.81 264.49 C 1152.66 264.50 1152.35 264.51 1152.19 264.51 C 1150.27 264.58 1148.36 264.62 1146.45 264.56 C 1146.62 255.32 1146.81 246.04 1146.43 236.81 C 1144.84 234.70 1141.80 235.88 1139.58 235.52 C 1139.42 234.44 1139.27 233.36 1139.14 232.28 Z" />
</g>
<g id="#050505ff">
<path fill="#050505" opacity="1.00" d=" M 1123.58 112.39 C 1124.07 112.47 1125.06 112.62 1125.56 112.69 L 1125.49 111.54 C 1126.24 111.53 1127.73 111.52 1128.48 111.52 L 1128.58 112.61 C 1129.09 112.53 1130.11 112.37 1130.63 112.28 C 1130.53 123.38 1130.63 134.47 1130.55 145.56 C 1128.34 145.14 1124.89 146.77 1123.63 144.37 C 1123.59 133.71 1123.69 123.05 1123.58 112.39 Z" />
<path fill="#050505" opacity="1.00" d=" M 1002.39 232.74 C 1004.42 232.31 1007.14 230.42 1008.95 231.94 C 1010.83 235.98 1012.55 240.13 1013.76 244.43 L 1014.72 244.48 C 1014.67 244.87 1014.55 245.65 1014.50 246.03 C 1015.26 247.01 1015.65 248.16 1015.67 249.46 L 1016.71 249.49 C 1016.62 249.98 1016.43 250.94 1016.34 251.42 L 1017.66 251.46 L 1017.47 252.91 C 1019.21 252.57 1019.93 251.45 1019.64 249.56 L 1020.74 249.44 C 1020.62 248.97 1020.38 248.01 1020.26 247.54 L 1021.53 247.47 C 1021.51 246.72 1021.47 245.21 1021.45 244.46 L 1022.64 244.50 C 1022.58 243.99 1022.44 242.99 1022.37 242.48 L 1023.39 242.49 C 1023.29 241.12 1023.68 239.97 1024.57 239.03 C 1024.50 238.65 1024.37 237.88 1024.31 237.50 L 1025.31 237.54 C 1025.69 235.85 1026.17 234.19 1026.62 232.52 L 1027.59 232.58 L 1027.42 231.31 C 1028.43 231.36 1030.45 231.47 1031.46 231.53 L 1031.58 232.64 C 1032.11 232.56 1033.18 232.39 1033.72 232.31 C 1033.78 234.47 1033.50 236.61 1032.36 238.49 L 1031.34 238.60 C 1031.45 239.07 1031.67 240.00 1031.78 240.47 L 1030.42 240.51 C 1030.45 240.91 1030.52 241.69 1030.56 242.08 C 1029.69 243.02 1029.29 244.16 1029.36 245.51 L 1028.59 245.35 C 1028.15 246.64 1027.70 247.91 1027.28 249.20 C 1026.10 251.22 1025.16 253.36 1024.38 255.55 L 1023.48 255.54 C 1023.48 256.25 1023.50 257.67 1023.50 258.38 L 1022.32 258.41 L 1022.67 259.64 L 1021.75 259.58 C 1021.48 260.88 1020.87 262.05 1020.32 263.24 C 1020.04 263.83 1019.48 265.01 1019.20 265.60 C 1018.51 265.59 1017.15 265.58 1016.46 265.57 C 1016.49 265.06 1016.54 264.04 1016.56 263.54 L 1015.27 263.44 C 1015.38 262.98 1015.60 262.04 1015.71 261.57 L 1014.35 261.44 C 1014.44 260.95 1014.61 259.97 1014.70 259.48 L 1013.30 259.48 C 1013.39 259.00 1013.59 258.05 1013.69 257.57 L 1012.34 257.42 C 1012.44 256.94 1012.65 255.97 1012.75 255.49 L 1011.37 255.50 C 1011.44 255.01 1011.58 254.05 1011.65 253.56 L 1010.75 253.39 C 1010.43 252.13 1009.94 250.95 1009.38 249.80 C 1008.74 248.82 1008.38 247.73 1008.31 246.54 L 1007.48 246.58 C 1007.07 245.23 1006.65 243.90 1006.30 242.54 L 1005.38 242.47 C 1005.43 241.99 1005.54 241.04 1005.59 240.56 L 1004.43 240.46 C 1004.42 239.83 1004.40 238.57 1004.39 237.94 C 1002.02 237.24 1002.48 234.64 1002.39 232.74 Z" />
<path fill="#050505" opacity="1.00" d=" M 1068.55 232.62 L 1068.52 231.54 C 1073.72 231.46 1078.92 231.08 1084.13 231.56 C 1084.61 231.88 1085.57 232.53 1086.05 232.85 C 1086.80 233.52 1087.58 234.17 1088.38 234.82 L 1088.40 235.64 L 1089.49 235.58 C 1089.81 238.85 1089.81 242.15 1089.53 245.43 L 1088.76 245.59 C 1087.54 247.34 1086.23 249.11 1086.30 251.36 L 1087.29 251.41 C 1087.55 251.78 1088.07 252.51 1088.34 252.88 C 1089.82 255.37 1090.05 258.38 1091.52 260.88 C 1091.52 261.82 1091.53 263.70 1091.53 264.64 C 1091.04 264.56 1090.05 264.39 1089.55 264.30 L 1089.44 265.44 C 1088.45 265.49 1086.47 265.57 1085.47 265.61 L 1085.60 264.35 L 1084.70 264.47 C 1084.52 261.92 1083.65 259.52 1082.78 257.15 C 1081.90 255.99 1081.02 254.84 1080.20 253.65 C 1079.29 253.19 1078.39 252.74 1077.51 252.29 L 1077.46 251.45 C 1076.71 251.46 1075.20 251.49 1074.44 251.50 C 1074.33 255.80 1074.29 260.11 1074.44 264.41 L 1073.31 264.44 L 1073.57 265.57 C 1071.52 265.54 1069.49 265.50 1067.46 265.47 C 1067.34 254.46 1067.58 243.44 1067.37 232.43 L 1068.55 232.62 M 1074.33 236.23 C 1074.34 239.72 1074.34 243.21 1074.34 246.69 C 1075.91 246.62 1077.50 246.52 1079.10 246.40 C 1079.70 246.11 1080.92 245.55 1081.53 245.27 L 1081.36 244.31 L 1082.60 244.54 C 1082.62 242.51 1082.64 240.49 1082.67 238.47 L 1081.83 238.54 C 1081.47 238.23 1080.74 237.61 1080.38 237.29 L 1080.47 236.44 C 1078.42 236.34 1076.37 236.27 1074.33 236.23 Z" />
<path fill="#050505" opacity="1.00" d=" M 1100.18 233.15 C 1102.59 230.96 1105.99 231.29 1109.02 231.28 C 1110.68 231.47 1112.69 231.10 1114.02 232.42 C 1114.40 232.41 1115.15 232.39 1115.53 232.37 L 1115.48 233.62 C 1115.99 233.58 1117.01 233.51 1117.53 233.48 C 1117.54 234.50 1117.58 236.55 1117.60 237.58 C 1113.08 238.29 1108.94 235.73 1104.43 236.48 C 1104.49 236.97 1104.60 237.95 1104.65 238.44 L 1103.22 238.57 C 1103.74 239.76 1104.26 240.95 1104.77 242.16 C 1106.01 242.62 1107.26 243.11 1108.52 243.59 L 1108.56 244.67 C 1108.93 244.61 1109.66 244.50 1110.03 244.44 C 1110.64 244.77 1111.85 245.44 1112.46 245.77 L 1112.53 246.66 C 1113.01 246.61 1113.97 246.49 1114.45 246.43 L 1114.45 247.65 L 1115.32 247.45 C 1116.38 248.51 1117.45 249.57 1118.55 250.63 L 1118.34 251.56 L 1119.51 251.58 C 1119.71 254.50 1119.68 257.43 1119.47 260.36 L 1118.36 260.40 L 1118.59 261.55 L 1117.36 261.42 L 1117.64 262.62 L 1116.84 262.54 C 1116.56 262.84 1116.02 263.43 1115.75 263.73 C 1114.88 264.33 1114.01 264.91 1113.14 265.48 C 1109.59 265.74 1106.04 265.56 1102.50 265.50 L 1102.44 264.71 C 1100.46 264.51 1099.00 263.11 1097.42 262.10 C 1097.61 260.71 1097.98 259.37 1098.55 258.08 C 1103.01 259.78 1107.76 260.08 1112.48 259.54 L 1112.42 258.40 L 1113.71 258.50 C 1113.40 257.69 1112.78 256.07 1112.47 255.26 L 1112.53 254.39 L 1111.65 254.52 C 1110.88 253.86 1110.11 253.21 1109.37 252.55 C 1108.42 252.15 1107.48 251.75 1106.55 251.35 L 1106.44 250.37 C 1105.97 250.44 1105.02 250.58 1104.55 250.65 L 1104.56 249.58 C 1103.51 249.18 1102.47 248.79 1101.45 248.39 L 1101.57 247.40 L 1100.73 247.50 C 1099.92 246.81 1099.17 246.08 1098.47 245.31 L 1098.62 244.43 L 1097.47 244.45 C 1097.26 241.49 1097.26 238.53 1097.48 235.58 L 1098.24 235.48 C 1098.64 234.50 1099.29 233.72 1100.18 233.15 Z" />
</g>
<g id="#080808ff">
<path fill="#080808" opacity="1.00" d=" M 1138.49 112.26 C 1139.66 112.34 1140.85 112.44 1142.05 112.55 C 1144.93 116.40 1148.80 119.38 1151.83 123.13 C 1152.05 123.47 1152.49 124.17 1152.71 124.52 L 1153.17 124.63 C 1154.44 126.21 1155.65 127.86 1156.91 129.46 C 1157.59 129.53 1158.95 129.68 1159.63 129.75 C 1159.32 123.97 1159.48 118.18 1159.41 112.40 L 1160.54 112.63 L 1160.53 111.50 C 1162.13 111.55 1163.75 111.59 1165.38 111.61 C 1165.68 112.73 1165.95 113.86 1166.18 115.00 C 1165.16 120.62 1165.79 126.37 1165.71 132.05 C 1167.10 134.19 1164.59 136.84 1166.28 139.01 C 1165.04 141.14 1166.29 143.50 1166.61 145.69 C 1165.58 145.64 1164.56 145.54 1163.57 145.38 C 1160.68 142.89 1158.19 139.97 1155.48 137.30 L 1155.48 136.84 C 1155.16 136.50 1154.53 135.82 1154.21 135.48 L 1153.87 135.36 C 1152.08 133.01 1149.88 131.00 1148.30 128.50 C 1147.75 127.39 1146.29 127.51 1145.34 127.05 C 1145.42 133.20 1145.43 139.35 1145.41 145.51 C 1143.13 145.61 1140.87 145.58 1138.61 145.47 C 1138.52 134.40 1138.76 123.32 1138.49 112.26 Z" />
<path fill="#080808" opacity="1.00" d=" M 996.62 172.58 L 996.43 171.41 C 1002.78 171.62 1009.13 171.41 1015.49 171.51 C 1015.51 173.20 1015.57 174.89 1015.62 176.57 C 1011.54 176.59 1007.47 176.57 1003.40 176.57 C 1003.46 177.05 1003.57 178.01 1003.63 178.49 L 1002.39 178.51 C 1002.52 180.56 1002.76 182.62 1003.51 184.56 C 1007.07 184.51 1010.65 184.53 1014.22 184.52 C 1014.57 185.14 1015.25 186.38 1015.59 187.00 C 1015.26 187.62 1014.61 188.86 1014.28 189.48 C 1010.75 189.47 1007.23 189.45 1003.71 189.46 C 1003.44 190.06 1002.90 191.25 1002.63 191.85 C 1003.03 194.76 1001.21 199.04 1004.79 200.43 C 1008.73 200.28 1012.68 200.31 1016.64 200.39 C 1016.61 202.11 1016.59 203.84 1016.57 205.56 C 1009.85 205.61 1003.13 205.45 996.41 205.64 L 996.60 204.45 L 995.52 204.48 C 995.71 193.83 995.71 183.17 995.52 172.52 L 996.62 172.58 Z" />
</g>
<g id="#7075a2ff">
<path fill="#7075a2" opacity="1.00" d=" M 904.13 115.31 C 904.47 113.08 906.92 113.65 908.54 113.27 C 908.51 121.89 908.52 130.50 908.61 139.12 C 908.76 141.29 906.41 142.36 904.62 142.64 C 905.64 141.31 907.22 139.95 906.97 138.09 C 906.49 130.60 906.26 123.07 907.07 115.59 C 906.08 115.48 905.10 115.39 904.13 115.31 Z" />
</g>
<g id="#030303ff">
<path fill="#030303" opacity="1.00" d=" M 961.48 112.38 C 963.83 112.37 966.19 112.37 968.56 112.39 C 968.50 123.44 968.51 134.49 968.50 145.54 C 966.17 145.58 963.85 145.58 961.53 145.54 C 961.51 134.48 961.55 123.43 961.48 112.38 Z" />
<path fill="#030303" opacity="1.00" d=" M 1209.28 144.82 C 1209.52 133.87 1209.02 122.89 1209.59 111.95 C 1214.54 116.08 1218.10 121.60 1223.01 125.76 C 1223.32 126.01 1223.93 126.51 1224.24 126.76 C 1224.41 127.10 1224.73 127.77 1224.90 128.10 C 1225.46 130.39 1227.75 130.67 1229.71 131.07 C 1229.78 125.30 1229.33 119.52 1229.61 113.75 C 1230.72 112.16 1232.82 112.77 1234.47 112.47 C 1234.62 123.41 1234.48 134.36 1234.53 145.30 C 1227.65 139.99 1222.26 133.04 1216.70 126.42 C 1216.06 126.39 1214.78 126.33 1214.14 126.30 C 1214.31 132.34 1214.45 138.38 1214.41 144.43 C 1212.69 144.57 1210.98 144.70 1209.28 144.82 Z" />
<path fill="#030303" opacity="1.00" d=" M 945.46 172.77 C 945.78 172.44 946.43 171.77 946.75 171.44 C 948.68 171.47 950.62 171.50 952.58 171.51 C 952.69 182.86 952.66 194.21 952.61 205.56 C 950.23 205.57 947.87 205.55 945.51 205.50 C 945.49 194.59 945.63 183.68 945.46 172.77 Z" />
<path fill="#030303" opacity="1.00" d=" M 1039.66 232.55 C 1046.04 232.02 1052.44 232.28 1058.84 232.34 C 1058.68 233.46 1058.52 234.58 1058.37 235.70 C 1054.12 235.60 1049.79 235.19 1045.64 236.30 C 1045.64 239.03 1045.63 241.76 1045.61 244.50 C 1049.46 244.76 1053.34 244.46 1057.18 244.98 C 1057.34 245.86 1057.66 247.61 1057.82 248.49 C 1054.58 248.52 1051.34 248.33 1048.13 248.58 C 1047.00 248.47 1045.89 249.30 1045.78 250.42 C 1045.42 253.60 1045.59 256.80 1045.54 259.99 C 1050.09 260.81 1054.78 260.84 1059.37 260.23 L 1059.59 261.04 C 1061.23 262.20 1059.71 264.13 1059.46 265.56 C 1052.84 265.46 1046.23 265.38 1039.62 265.59 C 1039.90 254.58 1039.85 243.56 1039.66 232.55 Z" />
</g>
<g id="#384385ff">
<path fill="#384385" opacity="1.00" d=" M 684.20 118.29 C 699.30 126.22 715.63 133.05 732.91 133.43 C 738.26 133.85 743.65 134.79 749.03 134.02 C 753.34 133.44 757.67 133.02 762.04 133.08 C 776.69 133.09 791.34 132.75 805.99 132.89 C 811.74 133.00 817.26 131.02 823.00 131.04 C 837.35 131.06 851.71 131.12 866.06 130.72 C 874.55 129.24 883.10 127.92 891.43 125.63 C 895.56 124.50 899.05 121.90 902.90 120.12 C 904.64 126.14 903.07 132.44 903.67 138.59 C 900.03 141.88 893.87 142.78 892.28 148.01 C 893.51 153.71 897.31 158.45 898.82 164.07 C 900.92 171.88 903.55 179.76 903.19 187.95 C 902.99 193.77 903.75 199.80 901.67 205.37 C 899.69 210.51 899.06 216.25 895.76 220.80 C 891.97 226.82 887.27 232.33 881.49 236.50 C 878.34 238.47 874.88 239.87 871.67 241.71 C 867.23 244.29 861.95 244.31 857.00 244.95 C 850.62 245.73 844.27 244.54 837.97 243.79 C 836.18 243.61 834.53 242.93 832.97 242.12 C 828.28 239.63 822.87 238.66 818.58 235.40 C 814.87 233.21 811.68 229.61 807.22 229.07 C 806.13 231.41 809.08 231.64 810.44 232.67 C 810.56 232.92 810.82 233.42 810.95 233.67 C 808.85 233.09 807.42 234.53 806.17 235.95 C 805.99 235.13 805.62 233.49 805.44 232.67 C 803.97 233.75 802.37 234.78 801.50 236.43 C 798.87 241.06 795.90 245.49 792.48 249.56 C 791.45 250.89 789.86 251.54 788.44 252.34 C 788.08 245.27 786.70 237.93 782.00 232.37 C 781.51 233.60 781.05 234.84 780.62 236.10 C 780.16 235.20 779.70 234.30 779.24 233.41 C 778.10 233.42 776.97 233.43 775.86 233.45 C 776.04 233.00 776.40 232.10 776.58 231.65 C 777.84 230.74 779.17 229.93 780.53 229.14 C 778.49 229.38 776.03 228.86 774.42 230.44 C 771.99 232.72 770.13 235.59 767.39 237.55 C 758.22 243.86 748.71 251.04 737.14 251.64 C 730.90 251.66 724.56 252.87 718.40 251.50 C 713.66 250.07 709.58 247.17 705.32 244.76 C 701.05 242.44 698.45 238.22 695.43 234.59 C 690.98 229.50 688.98 222.91 686.43 216.78 C 684.06 205.69 684.80 194.19 686.30 183.03 C 687.65 178.05 688.81 173.02 689.89 167.98 C 691.32 161.38 696.08 155.85 696.87 149.12 C 693.90 141.94 684.21 139.80 682.35 131.89 C 683.32 127.41 684.32 122.91 684.20 118.29 M 790.63 149.54 C 780.12 150.59 769.53 149.75 758.99 150.02 C 753.42 150.12 747.68 151.73 743.35 155.33 C 743.05 156.99 744.11 158.59 745.34 159.62 C 748.42 162.21 751.56 164.73 754.63 167.35 C 757.33 169.68 758.41 173.24 759.47 176.53 C 760.29 176.31 761.13 176.10 761.98 175.89 C 764.67 177.89 767.25 180.10 769.27 182.80 C 774.30 189.39 780.48 195.11 784.81 202.22 C 787.03 206.20 790.06 209.82 794.15 211.98 C 798.53 210.42 800.33 205.54 802.96 202.06 C 807.65 195.99 812.76 190.12 816.18 183.19 C 818.59 178.54 823.58 176.02 826.31 171.62 C 829.24 165.51 836.30 162.96 839.60 157.11 C 839.02 156.79 837.86 156.15 837.28 155.83 C 837.50 153.85 837.03 151.93 836.27 150.11 C 830.32 147.93 824.06 149.55 817.98 149.98 C 808.87 149.97 799.73 148.23 790.63 149.54 M 857.01 168.28 C 859.36 173.07 862.61 177.49 863.51 182.87 C 865.45 187.42 864.61 192.52 862.93 197.00 C 859.67 201.83 854.30 205.51 848.32 205.59 C 845.25 206.01 842.98 203.34 840.02 203.03 C 837.75 202.75 836.36 200.80 834.64 199.54 C 832.94 197.89 830.44 198.32 828.30 198.06 C 829.35 198.90 830.35 199.83 831.31 200.80 C 830.71 200.75 829.53 200.64 828.93 200.59 C 825.89 204.28 822.82 208.36 821.66 213.08 C 821.27 213.07 820.50 213.04 820.11 213.03 C 821.33 215.54 822.52 218.40 825.13 219.78 C 832.57 222.99 839.69 227.62 848.03 227.97 C 855.32 228.80 862.30 226.00 868.68 222.80 C 872.38 220.94 874.60 217.33 877.16 214.23 C 884.27 206.40 886.37 195.29 885.93 185.00 C 886.70 176.98 882.52 169.74 879.04 162.85 C 877.16 160.56 875.07 157.74 872.02 157.16 C 865.61 158.44 861.09 163.53 857.01 168.28 M 708.17 169.25 C 706.41 172.59 706.33 176.47 704.93 179.94 C 703.51 183.41 702.45 187.02 701.69 190.69 C 701.46 194.17 702.76 197.54 702.91 201.00 C 703.29 204.87 702.37 209.03 704.24 212.62 C 706.05 216.37 708.51 219.74 710.90 223.14 C 712.27 225.04 713.56 227.19 715.82 228.15 C 718.98 229.59 721.38 232.59 724.98 232.99 C 728.25 233.55 731.40 235.93 734.79 234.53 C 739.32 232.78 744.33 232.22 748.49 229.58 C 756.46 224.88 763.74 218.79 768.98 211.10 C 766.84 207.89 765.00 204.45 762.44 201.55 C 761.06 200.15 759.16 198.60 757.07 199.24 C 751.72 201.50 748.39 206.54 744.00 210.06 C 739.53 212.10 734.22 212.46 729.44 211.51 C 725.89 207.20 723.21 201.72 723.70 196.01 C 723.58 187.78 726.98 180.04 730.92 173.01 C 728.46 167.07 722.10 163.80 717.04 160.20 C 713.02 161.83 710.05 165.43 708.17 169.25 Z" />
</g>
<g id="#121212ff">
<path fill="#121212" opacity="1.00" d=" M 944.39 128.85 C 945.85 126.29 947.17 123.61 949.14 121.38 C 950.47 124.35 949.76 127.57 948.93 130.56 C 947.41 130.00 945.89 129.43 944.39 128.85 Z" />
<path fill="#121212" opacity="1.00" d=" M 29.68 226.70 C 33.89 222.12 40.95 222.14 46.53 223.65 C 51.23 225.20 49.61 231.13 48.72 234.73 C 47.62 232.12 47.16 229.03 44.83 227.15 C 42.25 224.19 37.46 224.11 34.32 226.20 C 31.50 228.61 31.33 233.30 33.83 235.99 C 37.46 240.55 43.86 241.06 48.01 244.99 C 52.41 248.54 52.84 255.90 48.84 259.90 C 43.67 265.47 34.67 265.98 28.03 262.99 C 25.29 261.87 24.95 258.63 25.54 256.10 C 26.13 254.65 25.36 251.85 27.29 251.45 C 27.81 255.44 28.95 260.11 33.07 261.84 C 36.83 263.13 41.93 262.98 44.51 259.51 C 46.28 257.47 46.71 254.24 45.04 252.01 C 41.68 246.52 34.19 246.58 30.08 241.91 C 25.77 238.19 25.34 230.56 29.68 226.70 Z" />
<path fill="#121212" opacity="1.00" d=" M 358.24 223.46 C 363.50 223.92 368.78 223.86 374.04 223.52 C 372.71 225.08 369.75 225.40 369.89 227.97 C 369.43 238.29 369.40 248.68 369.90 259.00 C 369.69 261.27 371.59 262.24 373.49 262.61 C 373.59 263.02 373.78 263.85 373.87 264.27 C 369.06 263.04 364.10 263.82 359.22 263.72 L 358.22 262.85 C 359.47 262.44 360.73 262.06 362.01 261.71 C 363.53 255.61 363.00 249.27 363.09 243.05 C 363.01 237.83 363.38 232.56 362.43 227.41 C 362.14 225.18 359.25 225.18 358.24 223.46 Z" />
</g>
<g id="#f3f3f3ff">
</g>
<g id="#afafafff">
<path fill="#afafaf" opacity="1.00" d=" M 1180.42 139.32 C 1180.83 138.96 1181.65 138.23 1182.06 137.86 C 1186.15 137.93 1190.77 136.73 1194.42 139.15 C 1189.82 139.97 1185.07 139.34 1180.42 139.32 Z" />
</g>
<g id="#353d72ff">
<path fill="#353d72" opacity="1.00" d=" M 790.63 149.54 C 799.73 148.23 808.87 149.97 817.98 149.98 C 824.06 149.55 830.32 147.93 836.27 150.11 C 837.03 151.93 837.50 153.85 837.28 155.83 C 837.86 156.15 839.02 156.79 839.60 157.11 C 836.30 162.96 829.24 165.51 826.31 171.62 C 823.58 176.02 818.59 178.54 816.18 183.19 C 812.76 190.12 807.65 195.99 802.96 202.06 C 800.33 205.54 798.53 210.42 794.15 211.98 C 790.06 209.82 787.03 206.20 784.81 202.22 C 780.48 195.11 774.30 189.39 769.27 182.80 C 767.25 180.10 764.67 177.89 761.98 175.89 C 761.13 176.10 760.29 176.31 759.47 176.53 C 758.41 173.24 757.33 169.68 754.63 167.35 C 751.56 164.73 748.42 162.21 745.34 159.62 C 744.11 158.59 743.05 156.99 743.35 155.33 C 747.68 151.73 753.42 150.12 758.99 150.02 C 769.53 149.75 780.12 150.59 790.63 149.54 M 749.47 154.73 C 749.46 155.83 749.46 156.93 749.48 158.03 C 756.51 163.79 762.54 170.67 769.01 177.04 C 777.60 186.58 785.92 196.44 792.96 207.21 C 793.48 207.33 794.52 207.57 795.04 207.69 C 795.53 206.62 796.09 205.58 796.70 204.58 C 807.53 189.01 818.01 172.95 831.73 159.71 C 833.75 157.81 836.74 156.48 837.06 153.38 C 813.03 153.60 788.99 153.00 764.97 153.75 C 759.92 155.12 754.63 154.49 749.47 154.73 Z" />
</g>
<g id="#fffffeff">
</g>
<g id="#2f356dff">
<path fill="#2f356d" opacity="1.00" d=" M 857.01 168.28 C 861.09 163.53 865.61 158.44 872.02 157.16 C 875.07 157.74 877.16 160.56 879.04 162.85 C 882.52 169.74 886.70 176.98 885.93 185.00 C 886.37 195.29 884.27 206.40 877.16 214.23 C 874.60 217.33 872.38 220.94 868.68 222.80 C 862.30 226.00 855.32 228.80 848.03 227.97 C 839.69 227.62 832.57 222.99 825.13 219.78 C 822.52 218.40 821.33 215.54 820.11 213.03 C 820.50 213.04 821.27 213.07 821.66 213.08 C 826.50 215.47 830.39 219.47 835.49 221.43 C 842.00 224.61 849.45 225.32 856.56 224.24 C 852.32 223.57 847.93 224.19 843.82 222.70 C 848.85 222.10 853.90 222.42 858.95 222.51 C 858.71 222.83 858.23 223.46 858.00 223.78 C 867.40 222.05 874.94 214.57 879.13 206.25 C 883.24 198.30 883.31 189.10 882.45 180.41 C 881.44 172.93 877.78 166.18 873.49 160.10 C 868.20 161.02 864.67 165.52 860.15 168.03 C 862.72 172.91 866.25 177.44 867.21 183.01 C 867.99 187.89 868.17 193.23 865.84 197.74 C 861.83 206.03 851.30 210.65 842.55 207.59 C 838.39 206.11 834.44 203.93 831.31 200.80 C 830.35 199.83 829.35 198.90 828.30 198.06 C 830.44 198.32 832.94 197.89 834.64 199.54 C 836.36 200.80 837.75 202.75 840.02 203.03 C 842.98 203.34 845.25 206.01 848.32 205.59 C 854.30 205.51 859.67 201.83 862.93 197.00 C 864.61 192.52 865.45 187.42 863.51 182.87 C 862.61 177.49 859.36 173.07 857.01 168.28 Z" />
</g>
<g id="#343b70ff">
<path fill="#343b70" opacity="1.00" d=" M 708.17 169.25 C 710.05 165.43 713.02 161.83 717.04 160.20 C 722.10 163.80 728.46 167.07 730.92 173.01 C 726.98 180.04 723.58 187.78 723.70 196.01 C 723.21 201.72 725.89 207.20 729.44 211.51 C 734.22 212.46 739.53 212.10 744.00 210.06 C 748.39 206.54 751.72 201.50 757.07 199.24 C 759.16 198.60 761.06 200.15 762.44 201.55 C 765.00 204.45 766.84 207.89 768.98 211.10 C 763.74 218.79 756.46 224.88 748.49 229.58 C 744.33 232.22 739.32 232.78 734.79 234.53 C 731.40 235.93 728.25 233.55 724.98 232.99 C 721.38 232.59 718.98 229.59 715.82 228.15 C 713.56 227.19 712.27 225.04 710.90 223.14 C 708.51 219.74 706.05 216.37 704.24 212.62 C 702.37 209.03 703.29 204.87 702.91 201.00 C 702.76 197.54 701.46 194.17 701.69 190.69 C 702.45 187.02 703.51 183.41 704.93 179.94 C 706.33 176.47 706.41 172.59 708.17 169.25 M 711.65 171.72 C 711.03 173.12 710.55 174.56 710.15 176.04 C 705.78 185.42 705.97 195.99 706.66 206.08 C 707.18 207.37 707.68 208.69 708.17 210.00 C 710.39 217.94 716.20 224.93 723.77 228.32 C 728.58 230.36 734.01 229.70 739.09 229.30 C 749.45 226.58 757.56 218.92 764.58 211.19 C 764.89 209.29 763.07 208.23 762.12 206.90 C 760.66 205.45 759.84 203.34 758.02 202.33 C 753.43 205.92 750.20 211.35 744.65 213.76 C 741.18 215.95 737.00 215.85 733.06 215.75 C 726.59 216.10 721.98 209.74 720.63 204.03 C 719.92 196.95 719.54 189.50 721.90 182.68 C 723.12 178.70 726.35 175.31 725.75 170.89 C 721.74 169.31 719.25 164.93 714.91 164.35 C 714.02 166.89 712.97 169.38 711.65 171.72 Z" />
</g>
<g id="#9aa1b9ff">
<path fill="#9aa1b9" opacity="1.00" d=" M 860.15 168.03 C 864.67 165.52 868.20 161.02 873.49 160.10 C 877.78 166.18 881.44 172.93 882.45 180.41 C 883.31 189.10 883.24 198.30 879.13 206.25 C 874.94 214.57 867.40 222.05 858.00 223.78 C 858.23 223.46 858.71 222.83 858.95 222.51 C 865.31 219.88 871.46 216.10 875.18 210.11 C 877.75 206.28 879.36 201.89 880.61 197.47 C 882.45 191.35 882.25 184.69 880.58 178.56 C 879.14 173.14 877.16 167.72 873.75 163.22 C 873.14 162.14 872.28 161.87 871.16 162.42 C 867.79 164.05 864.95 166.56 861.95 168.75 C 866.19 174.67 869.79 181.54 869.45 189.04 C 869.74 201.06 857.78 211.70 845.91 210.02 C 839.86 208.92 834.57 205.58 829.72 201.98 C 827.47 204.90 825.10 207.78 823.48 211.11 C 823.82 212.40 824.98 213.22 825.95 214.06 C 831.21 218.18 837.45 220.81 843.82 222.70 C 847.93 224.19 852.32 223.57 856.56 224.24 C 849.45 225.32 842.00 224.61 835.49 221.43 C 830.39 219.47 826.50 215.47 821.66 213.08 C 822.82 208.36 825.89 204.28 828.93 200.59 C 829.53 200.64 830.71 200.75 831.31 200.80 C 834.44 203.93 838.39 206.11 842.55 207.59 C 851.30 210.65 861.83 206.03 865.84 197.74 C 868.17 193.23 867.99 187.89 867.21 183.01 C 866.25 177.44 862.72 172.91 860.15 168.03 Z" />
</g>
<g id="#feffffff">
</g>
<g id="#838381ff">
<path fill="#838381" opacity="1.00" d=" M 919.71 170.61 C 926.24 170.58 932.79 170.42 939.32 170.70 C 939.54 172.93 939.60 175.18 939.49 177.43 C 935.53 177.52 931.58 177.48 927.64 177.59 C 927.55 179.86 927.36 182.24 928.69 184.22 C 931.99 183.57 935.45 183.29 938.66 184.56 C 938.58 186.41 939.04 188.40 938.23 190.15 C 935.05 191.00 931.69 190.33 928.46 190.38 C 926.90 195.59 928.21 201.08 927.43 206.41 C 924.83 206.48 922.24 206.49 919.65 206.43 C 919.20 204.65 918.64 202.88 918.72 201.03 C 918.76 193.01 918.79 185.00 918.72 176.98 C 918.61 174.80 919.11 172.68 919.71 170.61 M 920.54 172.49 C 920.59 183.17 920.58 193.85 920.50 204.53 C 922.19 204.64 923.89 204.76 925.60 204.89 C 927.09 199.92 925.84 194.63 926.43 189.52 C 930.09 187.97 934.30 190.10 937.71 188.21 C 937.61 187.56 937.41 186.27 937.32 185.62 C 934.08 185.23 930.83 185.70 927.61 185.41 C 924.84 183.31 925.54 179.32 926.41 176.42 C 929.88 175.49 933.43 175.93 936.96 176.21 C 938.77 175.81 939.12 172.91 937.20 172.46 C 931.64 172.27 926.08 172.44 920.54 172.49 Z" />
</g>
<g id="#6a6a6aff">
<path fill="#6a6a6a" opacity="1.00" d=" M 1074.59 170.83 C 1080.27 170.17 1087.75 169.39 1091.47 174.75 C 1091.56 175.14 1091.73 175.91 1091.82 176.30 C 1086.57 170.49 1078.25 172.44 1071.39 172.89 C 1071.23 183.52 1071.17 194.17 1071.39 204.81 C 1072.96 204.68 1074.54 204.55 1076.14 204.43 C 1076.05 200.03 1076.00 195.63 1076.38 191.25 C 1076.57 191.90 1076.94 193.22 1077.13 193.87 C 1077.63 198.02 1078.21 202.63 1076.39 206.54 C 1074.09 206.18 1070.07 207.43 1069.64 204.13 C 1069.48 194.41 1069.63 184.67 1069.54 174.94 C 1068.86 171.92 1072.49 171.43 1074.59 170.83 Z" />
</g>
<g id="#181818ff">
<path fill="#181818" opacity="1.00" d=" M 981.44 171.40 C 983.40 171.43 985.36 171.45 987.34 171.44 C 987.58 172.06 988.08 173.30 988.33 173.92 C 988.35 176.29 988.38 178.66 988.25 181.03 C 987.55 185.23 989.32 189.78 987.76 194.00 C 988.10 195.44 988.39 196.90 988.61 198.38 L 987.33 198.64 C 987.54 199.47 987.97 201.15 988.18 201.99 C 988.24 202.53 988.35 203.60 988.41 204.14 C 988.16 204.55 987.67 205.38 987.43 205.79 C 986.89 205.75 985.82 205.68 985.28 205.64 C 985.31 205.45 985.36 205.07 985.39 204.88 C 986.86 194.41 985.15 183.77 986.57 173.29 C 985.04 173.25 983.52 173.22 982.02 173.19 C 981.39 181.32 984.18 189.19 983.73 197.28 C 981.05 195.15 978.44 192.38 978.34 188.75 C 979.43 188.65 980.53 188.55 981.64 188.46 C 981.40 187.62 980.91 185.94 980.67 185.10 C 980.98 180.56 979.69 175.71 981.44 171.40 Z" />
</g>
<g id="#040404ff">
<path fill="#040404" opacity="1.00" d=" M 1127.66 172.80 C 1128.24 172.51 1129.41 171.94 1129.99 171.66 C 1134.15 171.07 1138.45 171.12 1142.41 172.71 L 1142.44 173.31 C 1144.83 173.40 1144.67 175.84 1144.77 177.61 C 1140.61 178.24 1136.78 176.17 1132.67 176.34 C 1132.32 176.89 1131.63 177.99 1131.29 178.54 L 1130.13 178.57 C 1130.42 180.78 1132.02 182.23 1133.77 183.39 C 1135.97 184.45 1138.13 185.59 1140.35 186.63 C 1141.13 187.27 1141.93 187.90 1142.76 188.52 L 1143.55 188.36 L 1143.53 189.14 C 1143.86 189.47 1144.50 190.14 1144.83 190.48 L 1145.40 190.46 C 1147.08 193.55 1146.76 197.10 1146.55 200.48 L 1145.81 200.53 C 1142.94 206.90 1135.22 205.85 1129.51 205.50 L 1129.49 204.67 C 1127.80 204.24 1126.17 203.70 1124.52 203.25 C 1124.53 202.32 1124.56 200.45 1124.58 199.51 C 1129.54 198.39 1134.55 202.43 1139.29 199.48 C 1139.64 199.16 1140.36 198.52 1140.72 198.20 C 1140.44 197.44 1139.87 195.92 1139.59 195.16 L 1139.52 194.60 C 1138.49 194.20 1137.48 193.80 1136.47 193.41 L 1136.41 192.80 C 1135.00 192.08 1133.62 191.33 1132.26 190.56 L 1131.44 190.66 L 1131.47 189.42 C 1131.00 189.46 1130.05 189.55 1129.57 189.60 L 1129.56 188.71 C 1129.19 188.50 1128.46 188.08 1128.09 187.86 C 1127.00 186.98 1126.00 186.03 1125.12 184.97 C 1123.93 182.43 1124.27 179.58 1124.49 176.89 C 1124.82 176.30 1125.48 175.14 1125.81 174.55 L 1126.24 174.54 C 1126.56 174.22 1127.20 173.60 1127.53 173.28 L 1127.66 172.80 Z" />
<path fill="#040404" opacity="1.00" d=" M 1071.39 172.89 C 1078.25 172.44 1086.57 170.49 1091.82 176.30 C 1092.27 178.73 1093.32 181.39 1092.13 183.77 C 1090.85 186.12 1089.02 188.20 1088.41 190.86 C 1091.60 194.29 1093.51 198.94 1093.64 203.61 C 1092.35 204.82 1090.35 204.47 1088.77 204.90 C 1087.97 200.31 1086.44 195.44 1082.50 192.57 C 1080.82 191.09 1078.43 191.50 1076.38 191.25 C 1076.00 195.63 1076.05 200.03 1076.14 204.43 C 1074.54 204.55 1072.96 204.68 1071.39 204.81 C 1071.17 194.17 1071.23 183.52 1071.39 172.89 M 1076.57 177.83 C 1076.59 180.26 1076.65 182.69 1076.66 185.12 C 1076.94 185.76 1077.52 187.05 1077.80 187.70 C 1079.69 187.32 1081.57 186.82 1083.46 186.35 L 1083.37 185.72 C 1083.75 185.42 1084.49 184.83 1084.87 184.53 L 1085.63 184.49 C 1085.62 182.50 1085.61 180.51 1085.58 178.52 L 1084.81 178.59 C 1084.46 178.25 1083.77 177.58 1083.43 177.25 L 1083.37 176.53 C 1081.47 176.46 1079.58 176.39 1077.71 176.33 C 1077.42 176.71 1076.85 177.45 1076.57 177.83 Z" />
<path fill="#040404" opacity="1.00" d=" M 920.31 231.40 C 922.73 231.41 925.29 231.23 927.43 232.62 C 927.18 240.82 927.26 249.02 927.44 257.22 C 928.50 258.86 930.06 259.87 932.08 259.79 C 932.67 260.03 933.84 260.51 934.43 260.76 L 934.52 259.57 C 936.22 259.56 937.94 259.53 939.66 259.50 C 939.59 259.02 939.44 258.07 939.36 257.59 L 940.48 257.53 C 940.21 252.52 940.78 247.42 939.37 242.53 L 940.44 242.52 C 940.34 240.51 940.34 238.50 940.43 236.49 L 939.34 236.46 C 939.56 234.73 939.95 233.03 940.51 231.37 C 942.51 231.43 944.53 231.49 946.57 231.52 C 946.53 241.71 946.76 251.92 946.46 262.10 C 944.11 262.89 941.98 264.31 939.50 264.65 L 939.48 265.47 C 935.50 265.56 931.52 265.63 927.54 265.53 L 927.46 264.73 C 926.89 264.52 925.76 264.12 925.20 263.91 C 924.95 263.57 924.44 262.89 924.19 262.55 L 923.65 262.56 C 923.35 262.24 922.77 261.61 922.47 261.29 L 922.55 260.39 L 921.31 260.54 C 921.39 260.05 921.56 259.09 921.64 258.60 L 920.46 258.48 C 920.12 249.46 920.27 240.42 920.31 231.40 Z" />
<path fill="#040404" opacity="1.00" d=" M 990.61 232.57 L 990.44 231.42 C 992.47 231.44 994.51 231.46 996.57 231.47 L 996.30 232.61 L 997.45 232.51 C 997.45 233.26 997.47 234.77 997.48 235.52 L 996.55 235.48 C 996.67 238.16 996.68 240.84 996.55 243.52 L 997.44 243.49 L 997.49 245.52 L 996.54 245.46 C 996.62 247.48 996.61 249.51 996.53 251.53 L 997.61 251.52 C 996.74 253.99 996.50 256.58 996.63 259.17 C 998.02 261.13 996.83 263.42 996.44 265.50 C 994.52 265.51 992.60 265.52 990.70 265.54 C 990.43 264.94 989.88 263.75 989.61 263.15 C 989.59 252.93 989.76 242.72 989.52 232.50 L 990.61 232.57 Z" />
</g>
<g id="#020101ff">
<path fill="#020101" opacity="1.00" d=" M 920.54 172.49 C 926.08 172.44 931.64 172.27 937.20 172.46 C 939.12 172.91 938.77 175.81 936.96 176.21 C 933.43 175.93 929.88 175.49 926.41 176.42 C 925.54 179.32 924.84 183.31 927.61 185.41 C 930.83 185.70 934.08 185.23 937.32 185.62 C 937.41 186.27 937.61 187.56 937.71 188.21 C 934.30 190.10 930.09 187.97 926.43 189.52 C 925.84 194.63 927.09 199.92 925.60 204.89 C 923.89 204.76 922.19 204.64 920.50 204.53 C 920.58 193.85 920.59 183.17 920.54 172.49 Z" />
</g>
<g id="#7f7f7fff">
<path fill="#7f7f7f" opacity="1.00" d=" M 1091.47 174.75 C 1094.67 176.69 1095.03 180.82 1093.80 184.03 C 1092.86 186.16 1090.94 187.78 1090.30 190.04 C 1092.77 194.09 1094.62 198.49 1095.59 203.15 C 1094.71 206.47 1090.53 206.78 1087.65 206.51 C 1086.44 201.04 1085.08 194.36 1078.97 192.44 C 1078.51 192.80 1077.59 193.51 1077.13 193.87 C 1076.94 193.22 1076.57 191.90 1076.38 191.25 C 1078.43 191.50 1080.82 191.09 1082.50 192.57 C 1086.44 195.44 1087.97 200.31 1088.77 204.90 C 1090.35 204.47 1092.35 204.82 1093.64 203.61 C 1093.51 198.94 1091.60 194.29 1088.41 190.86 C 1089.02 188.20 1090.85 186.12 1092.13 183.77 C 1093.32 181.39 1092.27 178.73 1091.82 176.30 C 1091.73 175.91 1091.56 175.14 1091.47 174.75 Z" />
</g>
<g id="#cfd6e1ff">
<path fill="#cfd6e1" opacity="1.00" d=" M 880.58 178.56 C 882.25 184.69 882.45 191.35 880.61 197.47 C 880.29 191.17 880.34 184.86 880.58 178.56 Z" />
</g>
<g id="#808080ff">
<path fill="#808080" opacity="1.00" d=" M 1046.92 183.67 C 1048.08 183.59 1049.25 183.52 1050.44 183.46 C 1051.50 186.83 1053.44 189.96 1053.67 193.57 C 1050.55 193.74 1047.44 193.73 1044.34 193.55 C 1044.24 190.02 1046.44 187.09 1046.92 183.67 M 1046.01 191.61 C 1047.95 192.57 1050.04 192.62 1051.97 191.52 C 1051.10 189.43 1050.30 187.30 1049.23 185.31 C 1046.97 186.31 1047.02 189.63 1046.01 191.61 Z" />
</g>
<g id="#131313ff">
<path fill="#131313" opacity="1.00" d=" M 11.23 212.30 C 14.71 210.67 18.76 215.94 15.73 218.66 C 14.11 221.01 10.30 220.61 9.09 218.08 C 7.50 216.05 9.13 213.17 11.23 212.30 Z" />
</g>
<g id="#111111ff">
<path fill="#111111" opacity="1.00" d=" M 365.16 212.15 C 368.60 211.16 371.94 215.77 369.38 218.55 C 367.85 221.02 364.12 220.65 362.74 218.23 C 360.93 216.11 362.74 212.82 365.16 212.15 Z" />
<path fill="#111111" opacity="1.00" d=" M 110.41 223.18 C 110.68 223.12 111.20 223.01 111.47 222.96 C 115.20 234.23 119.85 245.15 124.55 256.05 C 125.39 257.90 126.16 259.84 127.47 261.44 C 128.82 262.17 130.88 262.05 131.34 263.86 C 126.10 263.55 120.85 263.41 115.61 263.81 C 116.20 262.39 117.73 262.06 118.98 261.47 C 117.79 257.07 115.62 253.02 114.30 248.66 C 110.54 248.79 106.79 248.76 103.03 248.75 C 101.51 252.96 99.09 257.03 99.00 261.62 C 100.44 262.09 102.05 262.39 102.96 263.74 C 98.38 263.56 93.81 263.67 89.25 263.66 C 89.19 262.14 90.97 262.34 91.92 261.83 C 93.88 261.30 94.64 259.16 95.60 257.60 C 100.59 246.14 105.65 234.72 110.41 223.18 M 103.59 246.47 C 106.89 246.35 110.19 246.36 113.49 246.45 C 111.86 242.50 110.16 238.57 108.71 234.55 C 106.68 238.37 105.20 242.46 103.59 246.47 Z" />
<path fill="#111111" opacity="1.00" d=" M 339.93 224.11 C 344.24 223.94 348.61 224.04 352.85 223.11 C 352.80 226.77 352.81 230.44 352.76 234.10 C 350.42 234.10 351.25 231.48 350.93 229.96 C 347.90 225.47 341.99 227.20 337.44 226.69 C 337.15 236.48 337.25 246.28 337.27 256.07 C 337.36 257.92 337.19 259.97 338.31 261.57 C 339.76 262.21 341.40 262.27 342.94 262.63 C 342.71 262.94 342.23 263.56 341.99 263.87 C 338.35 263.78 334.71 263.33 331.07 263.65 C 329.10 263.64 326.88 264.46 325.17 263.08 C 326.57 262.49 328.04 262.07 329.43 261.43 C 330.79 260.02 330.54 257.84 330.66 256.04 C 330.56 246.27 330.80 236.49 330.46 226.72 C 326.62 227.03 322.51 226.25 318.89 227.84 C 316.27 229.08 317.11 232.55 315.19 234.37 C 314.72 230.68 314.93 226.97 315.01 223.27 C 323.27 224.39 331.62 224.11 339.93 224.11 Z" />
<path fill="#111111" opacity="1.00" d=" M 381.14 233.14 C 385.18 226.37 393.24 222.63 401.00 222.79 C 405.77 222.87 410.99 222.95 414.94 226.04 C 414.91 229.00 414.89 231.96 414.83 234.93 C 414.47 234.95 413.74 234.98 413.38 235.00 C 413.09 231.06 410.67 227.38 406.92 225.98 C 402.18 224.49 396.66 224.51 392.38 227.28 C 387.46 230.78 385.64 237.20 385.71 242.98 C 385.51 248.42 386.97 254.16 390.82 258.18 C 394.56 261.75 400.10 262.75 405.08 262.03 C 408.48 261.53 412.02 259.36 412.89 255.85 C 413.29 254.40 413.75 252.95 414.72 251.77 C 414.66 255.30 416.45 260.51 412.59 262.60 C 407.53 265.15 401.58 264.97 396.10 264.26 C 388.42 263.13 380.84 257.90 378.99 250.06 C 378.21 244.42 377.92 238.12 381.14 233.14 Z" />
<path fill="#111111" opacity="1.00" d=" M 466.94 223.52 C 474.30 224.44 481.75 222.74 489.08 224.04 C 494.17 224.89 498.95 229.59 498.02 235.06 C 497.81 239.67 493.77 242.58 490.28 244.88 C 494.29 250.42 497.94 256.44 503.33 260.78 C 504.95 262.40 507.90 261.59 509.16 263.68 C 504.15 263.87 498.23 264.53 494.29 260.74 C 490.25 256.85 487.57 251.84 484.68 247.10 C 482.82 246.19 480.52 246.89 478.51 246.64 C 478.60 251.09 478.31 255.57 478.98 259.99 C 479.33 262.19 481.85 262.18 483.53 262.74 C 483.39 263.05 483.12 263.65 482.99 263.95 C 477.79 263.28 472.55 263.35 467.34 263.89 C 467.80 262.10 469.64 262.18 471.09 261.84 C 471.89 259.63 472.29 257.30 472.19 254.96 C 472.17 247.33 472.16 239.70 472.17 232.07 C 472.15 230.09 472.15 227.96 471.06 226.23 C 469.83 225.08 467.82 225.07 466.94 223.52 M 478.58 225.79 C 478.49 231.93 478.57 238.07 478.50 244.21 C 482.32 244.22 487.42 245.55 489.88 241.68 C 492.53 237.06 491.81 229.86 486.81 227.11 C 484.34 225.62 481.33 225.91 478.58 225.79 Z" />
<path fill="#111111" opacity="1.00" d=" M 430.86 289.97 C 433.92 284.29 441.72 283.07 447.21 285.67 C 450.40 287.34 448.44 291.55 448.53 294.37 C 446.61 292.80 447.03 289.78 445.04 288.23 C 442.22 284.64 434.67 285.94 434.66 290.97 C 434.24 295.19 438.41 297.74 441.74 299.24 C 445.46 300.77 449.65 303.05 450.50 307.37 C 451.80 313.06 446.34 317.91 441.11 318.57 C 437.88 318.77 434.39 318.97 431.42 317.48 C 427.68 315.56 429.03 310.40 430.42 307.30 C 431.01 310.39 431.68 313.79 434.28 315.88 C 437.13 317.47 440.83 317.45 443.64 315.74 C 446.20 313.61 446.64 309.32 444.14 306.96 C 440.90 304.31 436.69 303.23 433.41 300.65 C 430.22 298.24 429.35 293.55 430.86 289.97 Z" />
</g>
<g id="#0f0f0fff">
<path fill="#0f0f0f" opacity="1.00" d=" M 138.73 222.69 C 148.79 233.22 159.56 243.03 170.43 252.72 C 170.13 244.43 170.77 236.09 169.85 227.84 C 169.76 225.60 167.42 224.83 165.56 224.66 L 165.54 223.36 C 169.56 223.92 173.63 223.95 177.66 223.47 C 175.95 224.91 174.03 226.50 174.01 228.94 C 173.45 240.93 173.39 252.95 173.33 264.95 C 162.90 254.64 152.04 244.78 141.32 234.77 C 141.65 242.53 141.60 250.31 141.91 258.07 C 141.91 259.63 143.05 260.77 143.93 261.92 C 145.24 262.17 146.54 262.48 147.84 262.82 C 146.72 264.53 144.60 263.54 142.98 263.67 C 139.92 263.42 136.86 263.75 133.81 263.71 C 134.41 262.34 135.89 262.09 137.17 261.72 C 137.57 260.51 138.05 259.31 138.14 258.03 C 138.94 246.26 138.55 234.47 138.73 222.69 Z" />
<path fill="#0f0f0f" opacity="1.00" d=" M 4.76 223.49 C 9.94 223.94 15.13 223.91 20.31 223.50 C 19.53 225.20 16.78 225.10 16.55 227.09 C 15.45 233.01 16.07 239.09 15.90 245.08 C 16.06 250.61 15.56 256.26 16.98 261.66 C 18.31 262.14 19.88 262.35 20.60 263.75 C 15.31 263.60 10.03 263.52 4.74 263.77 C 5.35 262.35 6.89 262.16 8.20 261.80 C 9.91 258.11 9.27 253.90 9.46 249.97 C 9.32 242.60 9.79 235.20 9.05 227.86 C 9.04 225.28 5.83 225.34 4.76 223.49 Z" />
<path fill="#0f0f0f" opacity="1.00" d=" M 166.25 284.41 C 174.55 292.95 183.14 301.25 192.33 308.84 C 191.97 302.18 192.61 295.47 191.76 288.85 C 191.58 286.77 189.00 286.57 187.67 285.39 C 191.14 285.15 194.63 285.36 198.11 285.19 C 196.78 286.59 194.66 287.70 194.88 289.94 C 194.50 299.61 194.50 309.30 194.37 318.98 C 186.04 310.56 177.28 302.58 168.54 294.61 C 168.74 301.12 168.67 307.63 168.94 314.14 C 169.18 316.39 172.10 316.60 173.60 317.83 C 169.88 317.99 166.17 317.79 162.46 317.95 C 163.51 316.71 165.56 315.96 165.47 314.06 C 166.63 304.22 165.85 294.29 166.25 284.41 Z" />
<path fill="#0f0f0f" opacity="1.00" d=" M 285.95 285.23 C 291.33 285.49 296.71 284.99 302.09 285.22 C 306.78 285.32 312.06 288.79 311.61 293.99 C 311.61 297.98 308.21 300.51 305.28 302.59 C 309.18 307.90 312.56 314.50 319.03 317.04 C 319.32 317.31 319.89 317.87 320.18 318.14 C 316.22 317.81 311.57 318.63 308.45 315.58 C 305.19 312.28 302.94 308.17 300.40 304.34 C 298.83 303.79 297.08 304.04 295.45 303.82 C 295.66 307.80 295.05 311.92 296.17 315.79 C 297.42 316.57 298.79 317.15 300.11 317.83 C 295.48 317.91 290.84 317.61 286.22 318.08 C 287.56 316.87 290.17 316.28 290.11 314.08 C 290.40 306.06 290.29 298.01 290.18 289.98 C 290.46 287.33 287.61 286.56 285.95 285.23 M 295.48 287.03 C 295.47 292.00 295.48 296.97 295.42 301.94 C 298.65 301.95 302.78 302.93 305.01 299.86 C 306.78 296.68 306.42 292.57 304.40 289.60 C 302.15 287.09 298.58 287.05 295.48 287.03 Z" />
</g>
<g id="#101010ff">
<path fill="#101010" opacity="1.00" d=" M 442.55 223.18 C 442.82 223.13 443.36 223.02 443.62 222.96 C 447.11 234.05 451.79 244.72 456.38 255.38 C 457.45 258.64 459.01 262.72 463.17 262.53 C 463.01 263.27 462.76 263.97 462.42 264.64 C 457.87 262.49 452.59 263.97 447.73 263.77 C 448.27 262.38 449.77 262.12 450.97 261.56 C 450.10 257.03 447.88 252.93 446.21 248.68 C 442.46 248.77 438.70 248.74 434.95 248.74 C 433.48 252.49 432.02 256.28 431.15 260.21 C 430.42 262.53 434.40 261.59 434.52 263.56 C 430.38 263.95 426.15 263.32 421.98 263.84 C 421.73 263.52 421.24 262.89 421.00 262.57 C 422.28 262.32 423.57 262.09 424.87 261.88 C 429.66 255.16 431.97 247.07 435.48 239.66 C 438.12 234.28 439.95 228.57 442.55 223.18 M 440.39 234.33 C 438.99 238.42 437.44 242.46 435.71 246.43 C 438.94 246.38 442.19 246.37 445.43 246.47 C 443.97 242.34 442.49 238.18 440.39 234.33 Z" />
<path fill="#101010" opacity="1.00" d=" M 513.36 223.55 C 522.02 224.29 530.72 223.32 539.39 223.83 C 539.63 227.12 539.14 230.40 538.62 233.64 C 537.20 232.86 537.30 231.21 537.07 229.83 C 534.17 225.37 528.37 226.82 523.88 226.59 C 523.85 231.48 523.85 236.37 523.87 241.26 C 528.67 241.20 533.58 241.84 538.26 240.46 C 537.77 242.71 538.28 245.33 536.83 247.27 C 536.05 246.19 535.60 244.38 533.98 244.34 C 530.63 243.92 527.25 244.14 523.88 244.09 C 524.35 249.34 522.69 255.25 525.08 260.06 C 529.38 260.91 534.93 261.63 538.59 258.51 C 540.61 256.88 540.28 253.74 542.30 252.12 C 542.35 255.43 542.10 258.74 541.96 262.05 C 541.05 262.65 540.36 263.90 539.11 263.71 C 530.32 263.83 521.52 263.26 512.74 263.84 C 513.26 261.49 517.12 262.73 517.06 260.03 C 517.92 252.06 517.34 244.00 517.50 236.00 C 517.22 232.39 518.02 228.42 516.07 225.16 C 515.12 224.98 513.22 224.63 512.26 224.45 C 512.54 224.23 513.08 223.77 513.36 223.55 Z" />
<path fill="#101010" opacity="1.00" d=" M 547.24 223.16 C 559.80 224.69 572.59 224.44 585.16 223.27 C 585.03 226.96 585.02 230.66 584.74 234.35 C 582.99 233.63 583.45 231.53 582.95 230.07 C 582.68 228.20 580.60 227.40 579.00 227.02 C 575.93 226.66 572.83 226.84 569.76 226.79 C 569.64 236.84 569.59 246.89 569.71 256.94 C 569.67 258.65 570.25 260.27 570.81 261.86 C 572.36 262.29 574.71 261.77 575.27 263.79 C 569.45 263.60 563.62 263.51 557.80 263.80 C 558.53 262.14 560.49 262.07 561.92 261.33 C 562.73 259.67 562.96 257.82 562.92 256.00 C 562.88 246.28 562.96 236.56 562.80 226.84 C 558.70 227.05 553.99 225.94 550.40 228.45 C 548.29 229.81 549.59 233.26 547.20 234.35 C 546.99 230.62 547.21 226.89 547.24 223.16 Z" />
<path fill="#101010" opacity="1.00" d=" M 55.03 223.29 C 67.63 224.52 80.40 224.50 93.00 223.28 C 92.81 226.92 92.86 230.56 92.75 234.20 C 89.80 233.70 92.08 229.56 89.67 228.35 C 86.16 225.99 81.62 227.10 77.64 226.73 C 77.52 237.81 77.11 248.95 77.82 260.01 C 78.26 262.88 82.12 261.39 83.18 263.73 C 77.36 263.67 71.54 263.46 65.72 263.83 C 66.28 262.18 68.12 262.12 69.46 261.44 C 70.83 260.04 70.61 257.85 70.71 256.05 C 70.64 246.27 70.85 236.49 70.48 226.72 C 66.45 227.01 62.04 226.15 58.36 228.21 C 56.50 229.80 56.87 232.63 55.30 234.45 C 54.74 230.75 55.15 227.01 55.03 223.29 Z" />
<path fill="#101010" opacity="1.00" d=" M 183.28 223.36 C 190.96 224.92 199.32 221.77 206.57 225.37 C 210.70 227.28 212.08 232.32 210.31 236.33 C 209.17 238.86 206.77 240.41 204.44 241.72 C 207.08 242.30 209.82 243.16 211.69 245.24 C 215.89 248.83 215.95 256.13 211.77 259.77 C 208.13 263.87 202.18 264.56 197.03 263.95 C 193.40 263.91 189.59 262.88 186.10 264.24 C 184.96 264.96 184.03 263.22 183.08 263.09 C 184.38 262.58 185.71 262.17 187.06 261.80 C 188.76 257.04 188.02 251.92 188.19 246.98 C 188.06 240.68 188.51 234.34 187.83 228.07 C 187.61 225.77 185.40 224.64 183.28 224.69 L 183.28 223.36 M 194.58 225.66 C 194.34 230.94 194.57 236.23 194.48 241.51 C 197.47 241.21 201.35 242.28 203.49 239.51 C 205.40 236.81 204.92 233.06 203.93 230.09 C 202.45 226.38 198.18 225.39 194.58 225.66 M 194.50 243.69 C 194.74 249.10 193.95 254.59 194.90 259.93 C 196.88 262.31 200.86 262.48 203.67 261.55 C 209.58 258.92 209.73 249.87 204.88 246.14 C 202.04 243.65 198.05 243.68 194.50 243.69 Z" />
<path fill="#101010" opacity="1.00" d=" M 218.26 223.44 C 223.54 224.02 228.85 223.89 234.13 223.43 C 233.51 225.35 230.63 224.89 230.29 226.99 C 229.21 233.25 230.07 239.69 229.78 246.03 C 229.76 251.30 230.12 257.96 235.34 260.84 C 240.81 263.49 248.72 262.47 251.97 256.87 C 254.06 252.21 253.82 246.95 253.83 241.97 C 253.72 237.11 254.08 232.20 253.41 227.37 C 253.36 224.94 250.31 225.22 249.29 223.49 C 253.45 223.80 257.63 223.94 261.80 223.53 C 260.64 224.69 258.71 225.30 258.21 227.00 C 256.73 235.89 259.04 245.17 256.52 253.93 C 254.73 260.23 248.50 264.64 242.01 264.69 C 236.73 264.95 230.81 263.97 227.17 259.78 C 223.03 255.69 223.02 249.39 223.11 243.97 C 222.91 238.32 223.63 232.59 222.58 227.00 C 222.15 224.85 219.07 225.36 218.26 223.44 Z" />
<path fill="#101010" opacity="1.00" d=" M 263.47 223.34 C 268.63 224.17 273.87 223.84 279.06 223.46 C 277.96 225.25 274.79 225.31 274.99 227.95 C 274.38 237.96 274.62 248.02 274.88 258.05 C 276.01 262.53 282.16 260.55 285.46 260.24 C 290.17 259.30 289.64 253.48 292.44 250.88 C 292.27 254.56 292.48 258.30 291.79 261.94 C 291.05 264.35 287.91 263.63 285.99 263.80 C 278.44 263.43 270.86 263.72 263.33 263.61 C 263.53 261.84 265.82 262.35 267.02 261.82 C 268.75 257.06 267.99 251.95 268.15 247.01 C 268.02 240.69 268.44 234.35 267.82 228.06 C 267.69 225.83 265.55 224.66 263.50 224.76 L 263.47 223.34 Z" />
<path fill="#101010" opacity="1.00" d=" M 208.41 276.43 C 212.48 275.19 214.21 282.21 209.96 282.94 C 205.64 284.20 204.06 277.09 208.41 276.43 Z" />
<path fill="#101010" opacity="1.00" d=" M 353.40 276.37 C 357.46 275.30 359.18 282.18 354.96 282.83 C 350.62 284.38 349.06 277.04 353.40 276.37 Z" />
<path fill="#101010" opacity="1.00" d=" M 457.26 280.00 C 458.06 278.44 458.77 276.24 460.94 276.33 C 463.96 275.86 465.72 280.40 463.29 282.23 C 461.11 284.12 458.18 282.34 457.26 280.00 Z" />
<path fill="#101010" opacity="1.00" d=" M 325.56 287.58 C 329.49 283.93 335.71 283.50 340.43 285.77 C 343.27 287.61 341.52 291.59 341.58 294.36 C 339.55 292.76 340.16 289.52 337.89 288.05 C 334.67 284.28 326.74 286.47 327.66 291.98 C 328.50 297.85 335.29 298.84 339.41 301.68 C 344.53 304.43 344.88 312.80 340.07 316.01 C 335.87 319.34 329.91 319.29 325.03 317.78 C 320.81 316.27 321.88 310.80 323.41 307.64 C 324.29 310.49 324.50 314.07 327.30 315.82 C 330.18 317.69 333.79 317.08 336.81 315.90 C 338.61 313.51 339.95 310.03 337.54 307.50 C 334.00 303.79 328.19 303.13 324.83 299.14 C 322.61 295.70 322.48 290.56 325.56 287.58 Z" />
<path fill="#101010" opacity="1.00" d=" M 217.83 285.24 C 222.38 285.25 226.93 285.36 231.48 285.22 C 230.67 286.07 229.68 286.64 228.53 286.95 C 228.77 291.11 231.02 294.76 232.51 298.57 C 234.38 302.52 235.75 306.70 237.84 310.56 C 240.83 302.86 243.96 295.18 246.22 287.23 C 245.30 286.62 244.42 285.97 243.59 285.26 C 246.83 285.31 250.07 285.31 253.32 285.20 C 248.39 288.25 247.47 294.27 245.07 299.10 C 241.95 305.51 239.81 312.37 236.44 318.66 C 236.23 318.65 235.80 318.62 235.59 318.60 C 231.36 308.53 226.69 298.65 222.21 288.68 C 221.32 286.96 219.27 286.38 217.83 285.24 Z" />
</g>
<g id="#fefefeff">
</g>
<g id="#7e7e7eff">
<path fill="#7e7e7e" opacity="1.00" d=" M 1162.90 231.86 C 1164.72 231.12 1166.15 229.48 1168.28 229.49 C 1170.45 232.86 1172.56 236.28 1175.06 239.42 C 1175.58 239.55 1176.62 239.82 1177.13 239.95 C 1179.73 236.79 1182.04 233.37 1184.07 229.82 C 1184.82 229.74 1185.59 229.67 1186.38 229.60 C 1187.67 230.70 1188.97 231.80 1190.30 232.89 C 1190.31 233.74 1190.34 234.59 1190.38 235.45 C 1187.03 238.91 1184.33 242.93 1181.56 246.84 C 1179.76 249.19 1180.60 252.30 1180.45 255.03 C 1180.30 258.68 1180.98 262.50 1180.03 266.04 C 1177.56 266.53 1175.02 266.29 1172.54 266.30 C 1171.58 260.62 1172.97 254.74 1171.80 249.15 C 1168.79 244.35 1165.26 239.80 1161.35 235.69 C 1158.68 237.34 1155.53 237.55 1152.50 237.82 L 1152.51 236.47 C 1154.89 235.33 1160.06 236.70 1159.72 232.93 C 1158.38 231.89 1156.53 232.40 1155.00 232.24 C 1149.70 232.35 1144.42 232.25 1139.14 232.28 C 1139.27 233.36 1139.42 234.44 1139.58 235.52 C 1141.80 235.88 1144.84 234.70 1146.43 236.81 C 1146.81 246.04 1146.62 255.32 1146.45 264.56 C 1148.36 264.62 1150.27 264.58 1152.19 264.51 C 1152.36 264.97 1152.69 265.87 1152.86 266.33 C 1150.08 266.40 1147.26 266.44 1144.68 265.30 C 1144.64 255.98 1144.72 246.66 1144.67 237.34 C 1142.72 237.30 1140.80 237.26 1138.88 237.23 C 1138.44 236.17 1138.02 235.11 1137.61 234.06 C 1137.95 232.91 1138.30 231.77 1138.67 230.63 C 1144.78 230.57 1150.90 230.66 1157.02 230.62 C 1159.08 230.43 1160.89 231.63 1162.90 231.86 M 1162.78 234.81 C 1166.45 239.24 1170.08 243.74 1173.29 248.52 C 1174.02 253.81 1173.32 259.22 1173.49 264.55 C 1175.17 264.61 1176.87 264.66 1178.58 264.70 C 1178.75 259.31 1178.28 253.89 1178.73 248.52 C 1181.58 243.72 1185.37 239.52 1188.59 234.95 C 1189.13 233.00 1186.88 232.17 1185.88 230.98 C 1182.54 234.37 1180.16 238.53 1177.53 242.46 C 1176.62 242.45 1175.73 242.44 1174.86 242.43 C 1172.91 238.58 1170.26 235.16 1167.84 231.61 C 1165.45 230.93 1164.39 233.64 1162.78 234.81 Z" />
</g>
<g id="#959595ff">
<path fill="#959595" opacity="1.00" d=" M 953.53 230.43 C 954.79 230.47 956.06 230.51 957.36 230.56 C 960.51 233.80 963.89 236.84 966.74 240.38 C 969.21 243.13 971.28 246.29 974.30 248.51 C 974.61 242.77 974.28 237.01 974.42 231.26 C 976.94 230.25 979.68 230.44 982.35 230.61 C 982.95 242.62 982.43 254.68 982.60 266.71 C 981.01 266.51 978.80 266.97 978.83 264.66 C 979.31 264.63 980.28 264.58 980.77 264.56 C 980.75 254.05 980.46 243.52 981.07 233.03 C 980.06 231.44 977.77 232.42 976.23 232.17 C 976.26 237.89 976.55 243.62 976.30 249.34 C 975.65 250.95 974.60 251.18 973.13 250.03 C 967.36 243.87 962.70 236.37 955.48 231.77 C 955.42 241.18 955.57 250.59 955.40 260.00 C 955.51 261.50 955.14 263.20 955.89 264.58 C 957.47 264.73 959.08 264.74 960.69 264.78 C 960.68 258.55 960.65 252.33 960.55 246.11 C 964.30 245.85 965.92 249.56 968.11 251.87 C 971.40 255.99 975.67 259.35 978.31 263.98 C 975.14 263.04 973.68 259.74 971.40 257.62 C 968.25 254.57 965.80 250.87 962.52 247.95 C 961.96 253.80 962.74 259.69 962.21 265.54 C 959.86 267.40 956.22 266.31 953.57 265.46 C 953.51 253.79 953.72 242.11 953.53 230.43 Z" />
</g>
<g id="#8c8c8cff">
<path fill="#8c8c8c" opacity="1.00" d=" M 1039.23 230.42 C 1045.90 230.63 1052.58 230.51 1059.25 230.68 C 1059.61 231.77 1059.97 232.87 1060.36 233.98 C 1059.94 235.08 1059.55 236.19 1059.17 237.31 C 1055.24 237.37 1051.31 237.34 1047.39 237.37 C 1047.38 239.37 1047.41 241.38 1047.45 243.38 C 1051.37 243.34 1055.30 243.29 1059.22 243.69 C 1059.30 245.34 1059.39 246.99 1059.50 248.65 C 1055.98 251.26 1051.46 250.07 1047.42 250.28 C 1047.35 253.08 1047.12 255.90 1047.44 258.69 C 1051.47 260.01 1056.12 258.66 1060.38 259.44 L 1059.37 260.23 C 1054.78 260.84 1050.09 260.81 1045.54 259.99 C 1045.59 256.80 1045.42 253.60 1045.78 250.42 C 1045.89 249.30 1047.00 248.47 1048.13 248.58 C 1051.34 248.33 1054.58 248.52 1057.82 248.49 C 1057.66 247.61 1057.34 245.86 1057.18 244.98 C 1053.34 244.46 1049.46 244.76 1045.61 244.50 C 1045.63 241.76 1045.64 239.03 1045.64 236.30 C 1049.79 235.19 1054.12 235.60 1058.37 235.70 C 1058.52 234.58 1058.68 233.46 1058.84 232.34 C 1052.44 232.28 1046.04 232.02 1039.66 232.55 C 1039.85 243.56 1039.90 254.58 1039.62 265.59 C 1039.34 265.24 1038.78 264.52 1038.51 264.16 C 1038.16 256.44 1038.49 248.70 1038.38 240.98 C 1038.48 237.45 1037.83 233.77 1039.23 230.42 Z" />
</g>
<g id="#020202ff">
<path fill="#020202" opacity="1.00" d=" M 1162.78 234.81 C 1164.39 233.64 1165.45 230.93 1167.84 231.61 C 1170.26 235.16 1172.91 238.58 1174.86 242.43 C 1175.73 242.44 1176.62 242.45 1177.53 242.46 C 1180.16 238.53 1182.54 234.37 1185.88 230.98 C 1186.88 232.17 1189.13 233.00 1188.59 234.95 C 1185.37 239.52 1181.58 243.72 1178.73 248.52 C 1178.28 253.89 1178.75 259.31 1178.58 264.70 C 1176.87 264.66 1175.17 264.61 1173.49 264.55 C 1173.32 259.22 1174.02 253.81 1173.29 248.52 C 1170.08 243.74 1166.45 239.24 1162.78 234.81 Z" />
<path fill="#020202" opacity="1.00" d=" M 976.23 232.17 C 977.77 232.42 980.06 231.44 981.07 233.03 C 980.46 243.52 980.75 254.05 980.77 264.56 C 980.28 264.58 979.31 264.63 978.83 264.66 L 978.69 264.66 L 978.31 263.98 C 975.67 259.35 971.40 255.99 968.11 251.87 C 965.92 249.56 964.30 245.85 960.55 246.11 C 960.65 252.33 960.68 258.55 960.69 264.78 C 959.08 264.74 957.47 264.73 955.89 264.58 C 955.14 263.20 955.51 261.50 955.40 260.00 C 955.57 250.59 955.42 241.18 955.48 231.77 C 962.70 236.37 967.36 243.87 973.13 250.03 C 974.60 251.18 975.65 250.95 976.30 249.34 C 976.55 243.62 976.26 237.89 976.23 232.17 Z" />
<path fill="#020202" opacity="1.00" d=" M 1126.50 231.53 C 1128.77 231.47 1131.06 231.41 1133.34 231.68 C 1133.69 242.63 1133.21 253.61 1133.55 264.56 L 1132.38 264.40 L 1132.55 265.63 C 1130.59 265.54 1128.64 265.54 1126.73 265.30 C 1126.21 254.06 1126.64 242.78 1126.50 231.53 Z" />
</g>
<g id="#353a6fff">
<path fill="#353a6f" opacity="1.00" d=" M 780.62 236.10 C 781.05 234.84 781.51 233.60 782.00 232.37 C 786.70 237.93 788.08 245.27 788.44 252.34 C 789.86 251.54 791.45 250.89 792.48 249.56 C 795.90 245.49 798.87 241.06 801.50 236.43 C 802.37 234.78 803.97 233.75 805.44 232.67 C 805.62 233.49 805.99 235.13 806.17 235.95 C 805.70 236.87 805.24 237.79 804.77 238.71 C 799.98 246.34 794.58 253.71 787.52 259.40 C 786.57 259.50 785.62 259.58 784.68 259.62 C 784.53 255.41 785.20 251.03 783.78 246.99 C 783.71 243.10 781.86 239.68 780.62 236.10 Z" />
</g>
<g id="#0d0d0dff">
<path fill="#0d0d0d" opacity="1.00" d=" M 134.81 280.94 C 135.61 279.51 136.91 277.07 138.94 278.26 C 140.64 279.26 140.53 281.24 139.64 282.77 C 137.65 283.29 136.06 282.46 134.81 280.94 Z" />
<path fill="#0d0d0d" opacity="1.00" d=" M 256.66 285.30 C 263.78 285.43 270.90 285.18 278.01 285.33 C 279.52 287.43 278.61 290.93 277.69 293.31 C 276.89 291.55 276.90 288.98 274.72 288.30 C 271.98 287.29 268.97 287.76 266.11 287.64 C 266.05 291.65 266.09 295.67 266.10 299.69 C 270.02 299.89 273.97 299.93 277.84 299.18 C 277.53 300.99 277.26 302.81 276.99 304.63 C 275.11 300.14 269.80 302.31 266.08 301.88 C 266.19 305.91 265.86 309.96 266.39 313.97 C 266.70 315.72 268.76 315.26 270.06 315.45 C 272.68 315.35 275.90 315.96 277.86 313.77 C 279.34 312.35 279.39 309.77 281.36 308.85 C 281.23 311.56 280.96 314.26 280.71 316.97 C 280.33 317.22 279.55 317.71 279.16 317.96 C 271.79 317.91 264.42 317.66 257.05 318.02 C 258.29 316.84 260.62 316.24 260.56 314.17 C 261.08 305.83 261.11 297.43 260.60 289.09 C 260.62 286.93 258.00 286.50 256.66 285.30 Z" />
</g>
<g id="#090909ff">
<path fill="#090909" opacity="1.00" d=" M 142.23 280.72 C 143.12 279.84 143.47 277.86 145.03 278.11 C 147.18 277.72 148.68 281.26 146.69 282.43 C 144.97 283.92 143.10 282.22 142.23 280.72 Z" />
<path fill="#090909" opacity="1.00" d=" M 147.80 285.19 C 151.16 285.50 154.55 285.02 157.90 285.41 C 156.90 286.23 155.88 287.04 154.87 287.85 C 154.49 293.95 154.85 300.06 154.50 306.16 C 154.15 311.74 150.29 317.42 144.52 318.39 C 141.09 318.74 137.50 318.83 134.18 317.79 C 130.52 316.38 127.37 313.07 126.89 309.08 C 126.02 302.09 127.16 294.99 126.14 288.02 C 125.08 286.90 123.72 286.15 122.48 285.28 C 126.77 285.32 131.06 285.38 135.34 285.17 C 133.89 286.51 131.92 287.72 132.05 289.96 C 131.92 297.02 131.39 304.21 132.87 311.17 C 134.25 316.73 141.28 317.59 145.90 315.95 C 149.05 314.60 151.09 311.34 151.18 307.95 C 151.63 301.26 151.58 294.51 151.15 287.82 C 150.21 286.73 148.92 286.05 147.80 285.19 Z" />
<path fill="#090909" opacity="1.00" d=" M 365.32 285.11 C 375.68 285.76 386.08 285.74 396.44 285.05 C 396.31 288.08 396.32 291.12 396.03 294.14 C 395.10 292.49 394.49 290.71 393.93 288.91 C 390.66 287.64 387.12 287.80 383.68 287.77 C 383.74 296.82 383.35 305.90 383.87 314.93 C 384.40 315.41 385.48 316.35 386.01 316.83 C 386.14 316.45 386.38 315.69 386.51 315.30 C 386.71 316.39 387.21 317.32 388.02 318.09 C 383.28 317.62 378.52 317.90 373.77 317.87 C 375.63 316.70 378.45 315.86 378.16 313.09 C 378.26 304.64 378.10 296.19 378.15 287.74 C 375.17 289.25 371.98 286.91 368.99 288.44 C 366.40 288.91 366.97 292.11 366.25 294.01 C 364.04 291.71 365.74 287.99 365.32 285.11 Z" />
</g>
<g id="#0e0e0eff">
<path fill="#0e0e0e" opacity="1.00" d=" M 454.75 285.49 C 456.04 285.16 457.36 284.84 458.68 284.57 C 461.36 286.12 464.51 284.95 467.43 285.22 C 465.99 286.59 463.56 287.48 463.88 289.91 C 463.76 297.93 463.64 305.99 464.01 314.01 C 464.00 316.21 466.37 316.95 467.80 318.09 C 463.46 317.76 459.11 317.77 454.77 318.01 C 456.02 316.79 458.38 316.10 458.21 313.99 C 458.58 305.69 458.64 297.34 458.17 289.05 C 458.25 287.04 456.02 286.53 454.75 285.49 Z" />
<path fill="#0e0e0e" opacity="1.00" d=" M 202.64 285.30 C 206.97 285.28 211.30 285.32 215.63 285.24 C 214.05 286.48 211.61 287.45 211.97 289.92 C 211.87 298.00 211.54 306.13 212.15 314.19 C 212.13 316.30 214.48 316.88 215.81 318.00 C 211.48 317.75 207.15 317.88 202.83 317.84 C 207.23 316.44 206.41 311.61 206.52 307.96 C 206.37 301.31 206.87 294.63 206.10 288.02 C 205.25 286.78 203.79 286.21 202.64 285.30 Z" />
</g>
<g id="#0b0b0bff">
<path fill="#0b0b0b" opacity="1.00" d=" M 347.73 285.25 C 352.05 285.32 356.37 285.39 360.69 285.18 C 359.06 286.45 356.60 287.44 356.93 289.96 C 356.82 298.00 356.54 306.09 357.10 314.12 C 357.08 316.30 359.42 316.91 360.82 318.01 C 356.48 317.81 352.14 317.78 347.81 317.96 C 349.06 316.78 351.37 316.06 351.25 313.99 C 351.66 305.99 351.57 297.96 351.31 289.95 C 351.78 287.48 349.24 286.59 347.73 285.25 Z" />
<path fill="#0b0b0b" opacity="1.00" d=" M 400.29 285.36 C 407.45 285.45 414.63 285.14 421.78 285.36 C 423.21 287.53 421.70 290.31 421.80 292.70 L 420.78 292.77 C 420.65 291.50 420.35 290.28 419.88 289.13 C 416.94 287.02 413.11 287.84 409.74 287.60 C 409.70 291.68 409.70 295.77 409.77 299.85 C 413.65 299.75 417.56 299.94 421.40 299.23 C 421.13 301.07 420.87 302.91 420.61 304.75 C 419.97 303.83 419.34 302.91 418.73 301.98 C 415.73 301.83 412.72 301.82 409.72 301.85 C 409.78 305.89 409.55 309.95 409.94 313.99 C 410.77 316.04 413.23 315.24 414.94 315.46 C 417.02 315.33 419.53 315.76 421.13 314.08 C 423.08 312.76 422.75 309.81 424.84 308.66 C 424.87 310.65 424.76 312.64 424.65 314.64 L 425.52 314.15 C 424.70 315.39 424.32 317.06 422.97 317.85 C 415.53 318.10 408.08 317.48 400.64 318.04 C 401.96 316.81 404.49 316.16 404.27 313.93 C 404.66 305.65 404.63 297.33 404.27 289.05 C 404.35 286.80 401.68 286.49 400.29 285.36 Z" />
</g>
</svg>
